<svg width="360" height="800" viewBox="0 0 360 800" fill="none" xmlns="http://www.w3.org/2000/svg">
<rect width="360" height="800" fill="white"/>
<rect x="191" y="741" width="150" height="40" rx="5" fill="#D9D9D9"/>
<path d="M232.872 768H229.577L234.598 753.455H238.561L243.575 768H240.28L236.636 756.778H236.523L232.872 768ZM232.666 762.283H240.45V764.683H232.666V762.283ZM246.137 753.455L249.653 764.506H249.788L253.311 753.455H256.72L251.706 768H247.743L242.721 753.455H246.137ZM259.044 768H255.749L260.77 753.455H264.733L269.747 768H266.452L262.808 756.778H262.695L259.044 768ZM258.838 762.283H266.622V764.683H258.838V762.283ZM283.664 753.455V768H281.008L274.68 758.845H274.573V768H271.498V753.455H274.197L280.475 762.602H280.603V753.455H283.664ZM285.651 755.99V753.455H297.597V755.99H293.144V768H290.104V755.99H285.651ZM302.64 753.455V768H299.564V753.455H302.64Z" fill="black"/>
<rect x="15" y="741" width="150" height="40" rx="5" fill="#D9D9D9"/>
<path d="M45.7784 768H42.483L47.5043 753.455H51.4674L56.4816 768H53.1861L49.5427 756.778H49.429L45.7784 768ZM45.5725 762.283H53.3566V764.683H45.5725V762.283ZM70.3985 753.455V768H67.7422L61.4141 758.845H61.3076V768H58.2323V753.455H60.9311L67.2096 762.602H67.3374V753.455H70.3985ZM85.1055 753.455V768H82.4493L76.1211 758.845H76.0146V768H72.9393V753.455H75.6382L81.9166 762.602H82.0444V753.455H85.1055ZM96.6307 753.455H99.706V762.901C99.706 763.961 99.4527 764.889 98.9461 765.685C98.4442 766.48 97.741 767.1 96.8367 767.545C95.9323 767.986 94.8788 768.206 93.6762 768.206C92.4688 768.206 91.4129 767.986 90.5086 767.545C89.6042 767.1 88.9011 766.48 88.3992 765.685C87.8973 764.889 87.6463 763.961 87.6463 762.901V753.455H90.7216V762.638C90.7216 763.192 90.8424 763.684 91.0838 764.115C91.3301 764.546 91.6757 764.884 92.1208 765.131C92.5659 765.377 93.0843 765.5 93.6762 765.5C94.2728 765.5 94.7912 765.377 95.2316 765.131C95.6766 764.884 96.0199 764.546 96.2614 764.115C96.5076 763.684 96.6307 763.192 96.6307 762.638V753.455ZM102.236 768V753.455H105.311V765.464H111.547V768H102.236ZM113.584 768V753.455H116.659V765.464H122.895V768H113.584ZM127.81 768H124.514L129.536 753.455H133.499L138.513 768H135.217L131.574 756.778H131.46L127.81 768ZM127.604 762.283H135.388V764.683H127.604V762.283Z" fill="black"/>
<path d="M40.3896 642.455C40.3385 642.023 40.1311 641.688 39.7674 641.449C39.4038 641.21 38.9578 641.091 38.4294 641.091C38.043 641.091 37.7049 641.153 37.4152 641.278C37.1282 641.403 36.9038 641.575 36.7419 641.794C36.5828 642.013 36.5032 642.261 36.5032 642.54C36.5032 642.773 36.5586 642.973 36.6694 643.141C36.7831 643.305 36.928 643.443 37.1041 643.554C37.2802 643.662 37.4649 643.751 37.6581 643.822C37.8513 643.891 38.0288 643.946 38.1907 643.989L39.0771 644.227C39.3044 644.287 39.5572 644.369 39.8356 644.474C40.1169 644.58 40.3853 644.723 40.641 644.905C40.8995 645.084 41.1126 645.314 41.2802 645.595C41.4478 645.876 41.5316 646.222 41.5316 646.631C41.5316 647.102 41.4081 647.528 41.1609 647.909C40.9166 648.29 40.5586 648.592 40.087 648.817C39.6183 649.041 39.0487 649.153 38.3782 649.153C37.7532 649.153 37.212 649.053 36.7547 648.851C36.3001 648.649 35.9422 648.368 35.6808 648.007C35.4223 647.646 35.276 647.227 35.2419 646.75H36.3328C36.3612 647.08 36.472 647.352 36.6652 647.568C36.8612 647.781 37.1084 647.94 37.4066 648.045C37.7078 648.148 38.0316 648.199 38.3782 648.199C38.7816 648.199 39.1439 648.134 39.4649 648.003C39.7859 647.869 40.0402 647.685 40.2277 647.449C40.4152 647.21 40.5089 646.932 40.5089 646.614C40.5089 646.324 40.428 646.088 40.266 645.906C40.1041 645.724 39.891 645.577 39.6268 645.463C39.3626 645.349 39.0771 645.25 38.7703 645.165L37.6964 644.858C37.0146 644.662 36.4748 644.382 36.0771 644.018C35.6794 643.655 35.4805 643.179 35.4805 642.591C35.4805 642.102 35.6126 641.676 35.8768 641.312C36.1439 640.946 36.5018 640.662 36.9507 640.46C37.4024 640.256 37.9066 640.153 38.4635 640.153C39.026 640.153 39.526 640.254 39.9635 640.456C40.401 640.655 40.7476 640.928 41.0032 641.274C41.2618 641.621 41.3981 642.014 41.4123 642.455H40.3896ZM47.2579 646.324V642.455H48.2635V649H47.2579V647.892H47.1897C47.0363 648.224 46.7976 648.507 46.4738 648.74C46.1499 648.97 45.7408 649.085 45.2465 649.085C44.8374 649.085 44.4738 648.996 44.1556 648.817C43.8374 648.635 43.5874 648.362 43.4056 647.999C43.2238 647.632 43.1329 647.17 43.1329 646.614V642.455H44.1385V646.545C44.1385 647.023 44.2721 647.403 44.5391 647.688C44.809 647.972 45.1527 648.114 45.5704 648.114C45.8204 648.114 46.0746 648.05 46.3331 647.922C46.5945 647.794 46.8133 647.598 46.9894 647.334C47.1684 647.07 47.2579 646.733 47.2579 646.324ZM52.7476 651.591C52.2618 651.591 51.8441 651.528 51.4947 651.403C51.1453 651.281 50.8541 651.119 50.6211 650.918C50.391 650.719 50.2078 650.506 50.0714 650.278L50.8726 649.716C50.9635 649.835 51.0785 649.972 51.2177 650.125C51.3569 650.281 51.5473 650.416 51.7888 650.53C52.0331 650.646 52.3527 650.705 52.7476 650.705C53.276 650.705 53.712 650.577 54.0558 650.321C54.3995 650.065 54.5714 649.665 54.5714 649.119V647.79H54.4862C54.4123 647.909 54.3072 648.057 54.1709 648.233C54.0373 648.406 53.8441 648.561 53.5913 648.697C53.3413 648.831 53.0032 648.898 52.5771 648.898C52.0487 648.898 51.5743 648.773 51.1538 648.523C50.7362 648.273 50.4052 647.909 50.1609 647.432C49.9194 646.955 49.7987 646.375 49.7987 645.693C49.7987 645.023 49.9166 644.439 50.1524 643.942C50.3882 643.442 50.7163 643.055 51.1368 642.783C51.5572 642.507 52.043 642.369 52.5941 642.369C53.0203 642.369 53.3584 642.44 53.6084 642.582C53.8612 642.722 54.0544 642.881 54.1879 643.06C54.3243 643.236 54.4294 643.381 54.5032 643.494H54.6055V642.455H55.5771V649.188C55.5771 649.75 55.4493 650.207 55.1936 650.56C54.9407 650.915 54.5998 651.175 54.1709 651.339C53.7447 651.507 53.2703 651.591 52.7476 651.591ZM52.7135 647.994C53.1169 647.994 53.4578 647.902 53.7362 647.717C54.0146 647.533 54.2263 647.267 54.3711 646.92C54.516 646.574 54.5885 646.159 54.5885 645.676C54.5885 645.205 54.5174 644.788 54.3754 644.428C54.2334 644.067 54.0231 643.784 53.7447 643.58C53.4663 643.375 53.1226 643.273 52.7135 643.273C52.2873 643.273 51.9322 643.381 51.6481 643.597C51.3669 643.812 51.1552 644.102 51.0132 644.466C50.874 644.83 50.8044 645.233 50.8044 645.676C50.8044 646.131 50.8754 646.533 51.0174 646.882C51.1623 647.229 51.3754 647.501 51.6566 647.7C51.9407 647.896 52.293 647.994 52.7135 647.994ZM60.0601 651.591C59.5743 651.591 59.1566 651.528 58.8072 651.403C58.4578 651.281 58.1666 651.119 57.9336 650.918C57.7035 650.719 57.5203 650.506 57.3839 650.278L58.1851 649.716C58.276 649.835 58.391 649.972 58.5302 650.125C58.6694 650.281 58.8598 650.416 59.1013 650.53C59.3456 650.646 59.6652 650.705 60.0601 650.705C60.5885 650.705 61.0245 650.577 61.3683 650.321C61.712 650.065 61.8839 649.665 61.8839 649.119V647.79H61.7987C61.7248 647.909 61.6197 648.057 61.4834 648.233C61.3498 648.406 61.1566 648.561 60.9038 648.697C60.6538 648.831 60.3157 648.898 59.8896 648.898C59.3612 648.898 58.8868 648.773 58.4663 648.523C58.0487 648.273 57.7177 647.909 57.4734 647.432C57.2319 646.955 57.1112 646.375 57.1112 645.693C57.1112 645.023 57.2291 644.439 57.4649 643.942C57.7007 643.442 58.0288 643.055 58.4493 642.783C58.8697 642.507 59.3555 642.369 59.9066 642.369C60.3328 642.369 60.6709 642.44 60.9209 642.582C61.1737 642.722 61.3669 642.881 61.5004 643.06C61.6368 643.236 61.7419 643.381 61.8157 643.494H61.918V642.455H62.8896V649.188C62.8896 649.75 62.7618 650.207 62.5061 650.56C62.2532 650.915 61.9123 651.175 61.4834 651.339C61.0572 651.507 60.5828 651.591 60.0601 651.591ZM60.026 647.994C60.4294 647.994 60.7703 647.902 61.0487 647.717C61.3271 647.533 61.5388 647.267 61.6836 646.92C61.8285 646.574 61.901 646.159 61.901 645.676C61.901 645.205 61.8299 644.788 61.6879 644.428C61.5459 644.067 61.3356 643.784 61.0572 643.58C60.7788 643.375 60.4351 643.273 60.026 643.273C59.5998 643.273 59.2447 643.381 58.9606 643.597C58.6794 643.812 58.4677 644.102 58.3257 644.466C58.1865 644.83 58.1169 645.233 58.1169 645.676C58.1169 646.131 58.1879 646.533 58.3299 646.882C58.4748 647.229 58.6879 647.501 58.9691 647.7C59.2532 647.896 59.6055 647.994 60.026 647.994ZM67.4748 649.136C66.8441 649.136 66.3001 648.997 65.8427 648.719C65.3882 648.438 65.0373 648.045 64.7902 647.543C64.5459 647.037 64.4237 646.449 64.4237 645.778C64.4237 645.108 64.5459 644.517 64.7902 644.006C65.0373 643.491 65.3811 643.091 65.8214 642.804C66.2646 642.514 66.7816 642.369 67.3726 642.369C67.7135 642.369 68.0501 642.426 68.3825 642.54C68.7149 642.653 69.0174 642.838 69.2902 643.094C69.5629 643.347 69.7802 643.682 69.9422 644.099C70.1041 644.517 70.1851 645.031 70.1851 645.642V646.068H65.1396V645.199H69.1623C69.1623 644.83 69.0885 644.5 68.9407 644.21C68.7959 643.92 68.5885 643.692 68.3186 643.524C68.0515 643.357 67.7362 643.273 67.3726 643.273C66.972 643.273 66.6254 643.372 66.3328 643.571C66.043 643.767 65.82 644.023 65.6638 644.338C65.5075 644.653 65.4294 644.991 65.4294 645.352V645.932C65.4294 646.426 65.5146 646.845 65.6851 647.189C65.8584 647.53 66.0984 647.79 66.4052 647.969C66.712 648.145 67.0686 648.233 67.4748 648.233C67.739 648.233 67.9777 648.196 68.1907 648.122C68.4066 648.045 68.5927 647.932 68.749 647.781C68.9052 647.628 69.026 647.437 69.1112 647.21L70.0828 647.483C69.9805 647.812 69.8086 648.102 69.5672 648.352C69.3257 648.599 69.0274 648.793 68.6723 648.932C68.3172 649.068 67.918 649.136 67.4748 649.136ZM71.7149 649V642.455H72.6865V643.443H72.7547C72.874 643.119 73.0899 642.857 73.4024 642.655C73.7149 642.453 74.0672 642.352 74.4592 642.352C74.5331 642.352 74.6254 642.354 74.7362 642.357C74.847 642.359 74.9308 642.364 74.9876 642.369V643.392C74.9535 643.384 74.8754 643.371 74.7532 643.354C74.6339 643.334 74.5075 643.324 74.374 643.324C74.0558 643.324 73.7717 643.391 73.5217 643.524C73.2745 643.655 73.0785 643.837 72.9336 644.07C72.7916 644.3 72.7206 644.562 72.7206 644.858V649H71.7149ZM76.1797 649V642.455H77.1854V649H76.1797ZM76.6911 641.364C76.4951 641.364 76.326 641.297 76.184 641.163C76.0448 641.03 75.9752 640.869 75.9752 640.682C75.9752 640.494 76.0448 640.334 76.184 640.2C76.326 640.067 76.4951 640 76.6911 640C76.8871 640 77.0547 640.067 77.1939 640.2C77.336 640.334 77.407 640.494 77.407 640.682C77.407 640.869 77.336 641.03 77.1939 641.163C77.0547 641.297 76.8871 641.364 76.6911 641.364ZM79.0274 649V642.455H79.999V643.477H80.0842C80.2206 643.128 80.4407 642.857 80.7447 642.663C81.0487 642.467 81.4138 642.369 81.8399 642.369C82.2717 642.369 82.6311 642.467 82.918 642.663C83.2078 642.857 83.4336 643.128 83.5956 643.477H83.6638C83.8314 643.139 84.0828 642.871 84.418 642.672C84.7532 642.47 85.1552 642.369 85.624 642.369C86.2092 642.369 86.6879 642.553 87.0601 642.919C87.4322 643.283 87.6183 643.849 87.6183 644.619V649H86.6126V644.619C86.6126 644.136 86.4805 643.791 86.2163 643.584C85.9521 643.376 85.641 643.273 85.2831 643.273C84.8228 643.273 84.4663 643.412 84.2135 643.69C83.9606 643.966 83.8342 644.315 83.8342 644.739V649H82.8115V644.517C82.8115 644.145 82.6907 643.845 82.4493 643.618C82.2078 643.388 81.8967 643.273 81.516 643.273C81.2547 643.273 81.0103 643.342 80.7831 643.482C80.5586 643.621 80.3768 643.814 80.2376 644.061C80.1013 644.305 80.0331 644.588 80.0331 644.909V649H79.0274ZM92.2014 649.136C91.5707 649.136 91.0267 648.997 90.5693 648.719C90.1147 648.438 89.7639 648.045 89.5167 647.543C89.2724 647.037 89.1503 646.449 89.1503 645.778C89.1503 645.108 89.2724 644.517 89.5167 644.006C89.7639 643.491 90.1076 643.091 90.548 642.804C90.9912 642.514 91.5082 642.369 92.0991 642.369C92.44 642.369 92.7767 642.426 93.1091 642.54C93.4415 642.653 93.744 642.838 94.0167 643.094C94.2895 643.347 94.5068 643.682 94.6687 644.099C94.8307 644.517 94.9116 645.031 94.9116 645.642V646.068H89.8662V645.199H93.8889C93.8889 644.83 93.815 644.5 93.6673 644.21C93.5224 643.92 93.315 643.692 93.0451 643.524C92.7781 643.357 92.4628 643.273 92.0991 643.273C91.6986 643.273 91.352 643.372 91.0593 643.571C90.7696 643.767 90.5466 644.023 90.3903 644.338C90.2341 644.653 90.1559 644.991 90.1559 645.352V645.932C90.1559 646.426 90.2412 646.845 90.4116 647.189C90.5849 647.53 90.825 647.79 91.1318 647.969C91.4386 648.145 91.7951 648.233 92.2014 648.233C92.4656 648.233 92.7042 648.196 92.9173 648.122C93.1332 648.045 93.3193 647.932 93.4755 647.781C93.6318 647.628 93.7525 647.437 93.8378 647.21L94.8093 647.483C94.7071 647.812 94.5352 648.102 94.2937 648.352C94.0522 648.599 93.754 648.793 93.3988 648.932C93.0437 649.068 92.6446 649.136 92.2014 649.136ZM97.4471 645.062V649H96.4415V642.455H97.413V643.477H97.4983C97.6517 643.145 97.8846 642.878 98.1971 642.676C98.5096 642.472 98.913 642.369 99.4074 642.369C99.8505 642.369 100.238 642.46 100.571 642.642C100.903 642.821 101.162 643.094 101.346 643.46C101.531 643.824 101.623 644.284 101.623 644.841V649H100.618V644.909C100.618 644.395 100.484 643.994 100.217 643.707C99.95 643.418 99.5835 643.273 99.1176 643.273C98.7966 643.273 98.5096 643.342 98.2568 643.482C98.0068 643.621 97.8093 643.824 97.6645 644.091C97.5196 644.358 97.4471 644.682 97.4471 645.062ZM106.308 642.455V643.307H102.916V642.455H106.308ZM103.904 640.886H104.91V647.125C104.91 647.409 104.951 647.622 105.033 647.764C105.119 647.903 105.227 647.997 105.357 648.045C105.491 648.091 105.631 648.114 105.779 648.114C105.89 648.114 105.981 648.108 106.052 648.097C106.123 648.082 106.18 648.071 106.222 648.062L106.427 648.966C106.359 648.991 106.264 649.017 106.141 649.043C106.019 649.071 105.864 649.085 105.677 649.085C105.393 649.085 105.114 649.024 104.842 648.902C104.572 648.78 104.347 648.594 104.168 648.344C103.992 648.094 103.904 647.778 103.904 647.398V640.886ZM110.409 649.136C109.818 649.136 109.3 648.996 108.854 648.714C108.411 648.433 108.064 648.04 107.814 647.534C107.567 647.028 107.443 646.437 107.443 645.761C107.443 645.08 107.567 644.484 107.814 643.976C108.064 643.467 108.411 643.072 108.854 642.791C109.3 642.51 109.818 642.369 110.409 642.369C111 642.369 111.517 642.51 111.96 642.791C112.406 643.072 112.753 643.467 113 643.976C113.25 644.484 113.375 645.08 113.375 645.761C113.375 646.437 113.25 647.028 113 647.534C112.753 648.04 112.406 648.433 111.96 648.714C111.517 648.996 111 649.136 110.409 649.136ZM110.409 648.233C110.858 648.233 111.227 648.118 111.517 647.888C111.807 647.658 112.021 647.355 112.161 646.98C112.3 646.605 112.369 646.199 112.369 645.761C112.369 645.324 112.3 644.916 112.161 644.538C112.021 644.161 111.807 643.855 111.517 643.622C111.227 643.389 110.858 643.273 110.409 643.273C109.96 643.273 109.591 643.389 109.301 643.622C109.011 643.855 108.797 644.161 108.658 644.538C108.519 644.916 108.449 645.324 108.449 645.761C108.449 646.199 108.519 646.605 108.658 646.98C108.797 647.355 109.011 647.658 109.301 647.888C109.591 648.118 109.96 648.233 110.409 648.233ZM121.336 640.273V649H120.28V641.381H120.228L118.098 642.795V641.722L120.28 640.273H121.336Z" fill="#D9D9D9"/>
<rect x="15.5" y="631.5" width="325" height="88" rx="9.5" stroke="black"/>
<path d="M40.3896 543.455C40.3385 543.023 40.1311 542.688 39.7674 542.449C39.4038 542.21 38.9578 542.091 38.4294 542.091C38.043 542.091 37.7049 542.153 37.4152 542.278C37.1282 542.403 36.9038 542.575 36.7419 542.794C36.5828 543.013 36.5032 543.261 36.5032 543.54C36.5032 543.773 36.5586 543.973 36.6694 544.141C36.7831 544.305 36.928 544.443 37.1041 544.554C37.2802 544.662 37.4649 544.751 37.6581 544.822C37.8513 544.891 38.0288 544.946 38.1907 544.989L39.0771 545.227C39.3044 545.287 39.5572 545.369 39.8356 545.474C40.1169 545.58 40.3853 545.723 40.641 545.905C40.8995 546.084 41.1126 546.314 41.2802 546.595C41.4478 546.876 41.5316 547.222 41.5316 547.631C41.5316 548.102 41.4081 548.528 41.1609 548.909C40.9166 549.29 40.5586 549.592 40.087 549.817C39.6183 550.041 39.0487 550.153 38.3782 550.153C37.7532 550.153 37.212 550.053 36.7547 549.851C36.3001 549.649 35.9422 549.368 35.6808 549.007C35.4223 548.646 35.276 548.227 35.2419 547.75H36.3328C36.3612 548.08 36.472 548.352 36.6652 548.568C36.8612 548.781 37.1084 548.94 37.4066 549.045C37.7078 549.148 38.0316 549.199 38.3782 549.199C38.7816 549.199 39.1439 549.134 39.4649 549.003C39.7859 548.869 40.0402 548.685 40.2277 548.449C40.4152 548.21 40.5089 547.932 40.5089 547.614C40.5089 547.324 40.428 547.088 40.266 546.906C40.1041 546.724 39.891 546.577 39.6268 546.463C39.3626 546.349 39.0771 546.25 38.7703 546.165L37.6964 545.858C37.0146 545.662 36.4748 545.382 36.0771 545.018C35.6794 544.655 35.4805 544.179 35.4805 543.591C35.4805 543.102 35.6126 542.676 35.8768 542.312C36.1439 541.946 36.5018 541.662 36.9507 541.46C37.4024 541.256 37.9066 541.153 38.4635 541.153C39.026 541.153 39.526 541.254 39.9635 541.456C40.401 541.655 40.7476 541.928 41.0032 542.274C41.2618 542.621 41.3981 543.014 41.4123 543.455H40.3896ZM47.2579 547.324V543.455H48.2635V550H47.2579V548.892H47.1897C47.0363 549.224 46.7976 549.507 46.4738 549.74C46.1499 549.97 45.7408 550.085 45.2465 550.085C44.8374 550.085 44.4738 549.996 44.1556 549.817C43.8374 549.635 43.5874 549.362 43.4056 548.999C43.2238 548.632 43.1329 548.17 43.1329 547.614V543.455H44.1385V547.545C44.1385 548.023 44.2721 548.403 44.5391 548.688C44.809 548.972 45.1527 549.114 45.5704 549.114C45.8204 549.114 46.0746 549.05 46.3331 548.922C46.5945 548.794 46.8133 548.598 46.9894 548.334C47.1684 548.07 47.2579 547.733 47.2579 547.324ZM52.7476 552.591C52.2618 552.591 51.8441 552.528 51.4947 552.403C51.1453 552.281 50.8541 552.119 50.6211 551.918C50.391 551.719 50.2078 551.506 50.0714 551.278L50.8726 550.716C50.9635 550.835 51.0785 550.972 51.2177 551.125C51.3569 551.281 51.5473 551.416 51.7888 551.53C52.0331 551.646 52.3527 551.705 52.7476 551.705C53.276 551.705 53.712 551.577 54.0558 551.321C54.3995 551.065 54.5714 550.665 54.5714 550.119V548.79H54.4862C54.4123 548.909 54.3072 549.057 54.1709 549.233C54.0373 549.406 53.8441 549.561 53.5913 549.697C53.3413 549.831 53.0032 549.898 52.5771 549.898C52.0487 549.898 51.5743 549.773 51.1538 549.523C50.7362 549.273 50.4052 548.909 50.1609 548.432C49.9194 547.955 49.7987 547.375 49.7987 546.693C49.7987 546.023 49.9166 545.439 50.1524 544.942C50.3882 544.442 50.7163 544.055 51.1368 543.783C51.5572 543.507 52.043 543.369 52.5941 543.369C53.0203 543.369 53.3584 543.44 53.6084 543.582C53.8612 543.722 54.0544 543.881 54.1879 544.06C54.3243 544.236 54.4294 544.381 54.5032 544.494H54.6055V543.455H55.5771V550.188C55.5771 550.75 55.4493 551.207 55.1936 551.56C54.9407 551.915 54.5998 552.175 54.1709 552.339C53.7447 552.507 53.2703 552.591 52.7476 552.591ZM52.7135 548.994C53.1169 548.994 53.4578 548.902 53.7362 548.717C54.0146 548.533 54.2263 548.267 54.3711 547.92C54.516 547.574 54.5885 547.159 54.5885 546.676C54.5885 546.205 54.5174 545.788 54.3754 545.428C54.2334 545.067 54.0231 544.784 53.7447 544.58C53.4663 544.375 53.1226 544.273 52.7135 544.273C52.2873 544.273 51.9322 544.381 51.6481 544.597C51.3669 544.812 51.1552 545.102 51.0132 545.466C50.874 545.83 50.8044 546.233 50.8044 546.676C50.8044 547.131 50.8754 547.533 51.0174 547.882C51.1623 548.229 51.3754 548.501 51.6566 548.7C51.9407 548.896 52.293 548.994 52.7135 548.994ZM60.0601 552.591C59.5743 552.591 59.1566 552.528 58.8072 552.403C58.4578 552.281 58.1666 552.119 57.9336 551.918C57.7035 551.719 57.5203 551.506 57.3839 551.278L58.1851 550.716C58.276 550.835 58.391 550.972 58.5302 551.125C58.6694 551.281 58.8598 551.416 59.1013 551.53C59.3456 551.646 59.6652 551.705 60.0601 551.705C60.5885 551.705 61.0245 551.577 61.3683 551.321C61.712 551.065 61.8839 550.665 61.8839 550.119V548.79H61.7987C61.7248 548.909 61.6197 549.057 61.4834 549.233C61.3498 549.406 61.1566 549.561 60.9038 549.697C60.6538 549.831 60.3157 549.898 59.8896 549.898C59.3612 549.898 58.8868 549.773 58.4663 549.523C58.0487 549.273 57.7177 548.909 57.4734 548.432C57.2319 547.955 57.1112 547.375 57.1112 546.693C57.1112 546.023 57.2291 545.439 57.4649 544.942C57.7007 544.442 58.0288 544.055 58.4493 543.783C58.8697 543.507 59.3555 543.369 59.9066 543.369C60.3328 543.369 60.6709 543.44 60.9209 543.582C61.1737 543.722 61.3669 543.881 61.5004 544.06C61.6368 544.236 61.7419 544.381 61.8157 544.494H61.918V543.455H62.8896V550.188C62.8896 550.75 62.7618 551.207 62.5061 551.56C62.2532 551.915 61.9123 552.175 61.4834 552.339C61.0572 552.507 60.5828 552.591 60.0601 552.591ZM60.026 548.994C60.4294 548.994 60.7703 548.902 61.0487 548.717C61.3271 548.533 61.5388 548.267 61.6836 547.92C61.8285 547.574 61.901 547.159 61.901 546.676C61.901 546.205 61.8299 545.788 61.6879 545.428C61.5459 545.067 61.3356 544.784 61.0572 544.58C60.7788 544.375 60.4351 544.273 60.026 544.273C59.5998 544.273 59.2447 544.381 58.9606 544.597C58.6794 544.812 58.4677 545.102 58.3257 545.466C58.1865 545.83 58.1169 546.233 58.1169 546.676C58.1169 547.131 58.1879 547.533 58.3299 547.882C58.4748 548.229 58.6879 548.501 58.9691 548.7C59.2532 548.896 59.6055 548.994 60.026 548.994ZM67.4748 550.136C66.8441 550.136 66.3001 549.997 65.8427 549.719C65.3882 549.438 65.0373 549.045 64.7902 548.543C64.5459 548.037 64.4237 547.449 64.4237 546.778C64.4237 546.108 64.5459 545.517 64.7902 545.006C65.0373 544.491 65.3811 544.091 65.8214 543.804C66.2646 543.514 66.7816 543.369 67.3726 543.369C67.7135 543.369 68.0501 543.426 68.3825 543.54C68.7149 543.653 69.0174 543.838 69.2902 544.094C69.5629 544.347 69.7802 544.682 69.9422 545.099C70.1041 545.517 70.1851 546.031 70.1851 546.642V547.068H65.1396V546.199H69.1623C69.1623 545.83 69.0885 545.5 68.9407 545.21C68.7959 544.92 68.5885 544.692 68.3186 544.524C68.0515 544.357 67.7362 544.273 67.3726 544.273C66.972 544.273 66.6254 544.372 66.3328 544.571C66.043 544.767 65.82 545.023 65.6638 545.338C65.5075 545.653 65.4294 545.991 65.4294 546.352V546.932C65.4294 547.426 65.5146 547.845 65.6851 548.189C65.8584 548.53 66.0984 548.79 66.4052 548.969C66.712 549.145 67.0686 549.233 67.4748 549.233C67.739 549.233 67.9777 549.196 68.1907 549.122C68.4066 549.045 68.5927 548.932 68.749 548.781C68.9052 548.628 69.026 548.437 69.1112 548.21L70.0828 548.483C69.9805 548.812 69.8086 549.102 69.5672 549.352C69.3257 549.599 69.0274 549.793 68.6723 549.932C68.3172 550.068 67.918 550.136 67.4748 550.136ZM71.7149 550V543.455H72.6865V544.443H72.7547C72.874 544.119 73.0899 543.857 73.4024 543.655C73.7149 543.453 74.0672 543.352 74.4592 543.352C74.5331 543.352 74.6254 543.354 74.7362 543.357C74.847 543.359 74.9308 543.364 74.9876 543.369V544.392C74.9535 544.384 74.8754 544.371 74.7532 544.354C74.6339 544.334 74.5075 544.324 74.374 544.324C74.0558 544.324 73.7717 544.391 73.5217 544.524C73.2745 544.655 73.0785 544.837 72.9336 545.07C72.7916 545.3 72.7206 545.562 72.7206 545.858V550H71.7149ZM76.1797 550V543.455H77.1854V550H76.1797ZM76.6911 542.364C76.4951 542.364 76.326 542.297 76.184 542.163C76.0448 542.03 75.9752 541.869 75.9752 541.682C75.9752 541.494 76.0448 541.334 76.184 541.2C76.326 541.067 76.4951 541 76.6911 541C76.8871 541 77.0547 541.067 77.1939 541.2C77.336 541.334 77.407 541.494 77.407 541.682C77.407 541.869 77.336 542.03 77.1939 542.163C77.0547 542.297 76.8871 542.364 76.6911 542.364ZM79.0274 550V543.455H79.999V544.477H80.0842C80.2206 544.128 80.4407 543.857 80.7447 543.663C81.0487 543.467 81.4138 543.369 81.8399 543.369C82.2717 543.369 82.6311 543.467 82.918 543.663C83.2078 543.857 83.4336 544.128 83.5956 544.477H83.6638C83.8314 544.139 84.0828 543.871 84.418 543.672C84.7532 543.47 85.1552 543.369 85.624 543.369C86.2092 543.369 86.6879 543.553 87.0601 543.919C87.4322 544.283 87.6183 544.849 87.6183 545.619V550H86.6126V545.619C86.6126 545.136 86.4805 544.791 86.2163 544.584C85.9521 544.376 85.641 544.273 85.2831 544.273C84.8228 544.273 84.4663 544.412 84.2135 544.69C83.9606 544.966 83.8342 545.315 83.8342 545.739V550H82.8115V545.517C82.8115 545.145 82.6907 544.845 82.4493 544.618C82.2078 544.388 81.8967 544.273 81.516 544.273C81.2547 544.273 81.0103 544.342 80.7831 544.482C80.5586 544.621 80.3768 544.814 80.2376 545.061C80.1013 545.305 80.0331 545.588 80.0331 545.909V550H79.0274ZM92.2014 550.136C91.5707 550.136 91.0267 549.997 90.5693 549.719C90.1147 549.438 89.7639 549.045 89.5167 548.543C89.2724 548.037 89.1503 547.449 89.1503 546.778C89.1503 546.108 89.2724 545.517 89.5167 545.006C89.7639 544.491 90.1076 544.091 90.548 543.804C90.9912 543.514 91.5082 543.369 92.0991 543.369C92.44 543.369 92.7767 543.426 93.1091 543.54C93.4415 543.653 93.744 543.838 94.0167 544.094C94.2895 544.347 94.5068 544.682 94.6687 545.099C94.8307 545.517 94.9116 546.031 94.9116 546.642V547.068H89.8662V546.199H93.8889C93.8889 545.83 93.815 545.5 93.6673 545.21C93.5224 544.92 93.315 544.692 93.0451 544.524C92.7781 544.357 92.4628 544.273 92.0991 544.273C91.6986 544.273 91.352 544.372 91.0593 544.571C90.7696 544.767 90.5466 545.023 90.3903 545.338C90.2341 545.653 90.1559 545.991 90.1559 546.352V546.932C90.1559 547.426 90.2412 547.845 90.4116 548.189C90.5849 548.53 90.825 548.79 91.1318 548.969C91.4386 549.145 91.7951 549.233 92.2014 549.233C92.4656 549.233 92.7042 549.196 92.9173 549.122C93.1332 549.045 93.3193 548.932 93.4755 548.781C93.6318 548.628 93.7525 548.437 93.8378 548.21L94.8093 548.483C94.7071 548.812 94.5352 549.102 94.2937 549.352C94.0522 549.599 93.754 549.793 93.3988 549.932C93.0437 550.068 92.6446 550.136 92.2014 550.136ZM97.4471 546.062V550H96.4415V543.455H97.413V544.477H97.4983C97.6517 544.145 97.8846 543.878 98.1971 543.676C98.5096 543.472 98.913 543.369 99.4074 543.369C99.8505 543.369 100.238 543.46 100.571 543.642C100.903 543.821 101.162 544.094 101.346 544.46C101.531 544.824 101.623 545.284 101.623 545.841V550H100.618V545.909C100.618 545.395 100.484 544.994 100.217 544.707C99.95 544.418 99.5835 544.273 99.1176 544.273C98.7966 544.273 98.5096 544.342 98.2568 544.482C98.0068 544.621 97.8093 544.824 97.6645 545.091C97.5196 545.358 97.4471 545.682 97.4471 546.062ZM106.308 543.455V544.307H102.916V543.455H106.308ZM103.904 541.886H104.91V548.125C104.91 548.409 104.951 548.622 105.033 548.764C105.119 548.903 105.227 548.997 105.357 549.045C105.491 549.091 105.631 549.114 105.779 549.114C105.89 549.114 105.981 549.108 106.052 549.097C106.123 549.082 106.18 549.071 106.222 549.062L106.427 549.966C106.359 549.991 106.264 550.017 106.141 550.043C106.019 550.071 105.864 550.085 105.677 550.085C105.393 550.085 105.114 550.024 104.842 549.902C104.572 549.78 104.347 549.594 104.168 549.344C103.992 549.094 103.904 548.778 103.904 548.398V541.886ZM110.409 550.136C109.818 550.136 109.3 549.996 108.854 549.714C108.411 549.433 108.064 549.04 107.814 548.534C107.567 548.028 107.443 547.437 107.443 546.761C107.443 546.08 107.567 545.484 107.814 544.976C108.064 544.467 108.411 544.072 108.854 543.791C109.3 543.51 109.818 543.369 110.409 543.369C111 543.369 111.517 543.51 111.96 543.791C112.406 544.072 112.753 544.467 113 544.976C113.25 545.484 113.375 546.08 113.375 546.761C113.375 547.437 113.25 548.028 113 548.534C112.753 549.04 112.406 549.433 111.96 549.714C111.517 549.996 111 550.136 110.409 550.136ZM110.409 549.233C110.858 549.233 111.227 549.118 111.517 548.888C111.807 548.658 112.021 548.355 112.161 547.98C112.3 547.605 112.369 547.199 112.369 546.761C112.369 546.324 112.3 545.916 112.161 545.538C112.021 545.161 111.807 544.855 111.517 544.622C111.227 544.389 110.858 544.273 110.409 544.273C109.96 544.273 109.591 544.389 109.301 544.622C109.011 544.855 108.797 545.161 108.658 545.538C108.519 545.916 108.449 546.324 108.449 546.761C108.449 547.199 108.519 547.605 108.658 547.98C108.797 548.355 109.011 548.658 109.301 548.888C109.591 549.118 109.96 549.233 110.409 549.233ZM121.336 541.273V550H120.28V542.381H120.228L118.098 543.795V542.722L120.28 541.273H121.336Z" fill="#D9D9D9"/>
<rect x="15.5" y="532.5" width="325" height="88" rx="9.5" stroke="black"/>
<path d="M40.3896 444.455C40.3385 444.023 40.1311 443.688 39.7674 443.449C39.4038 443.21 38.9578 443.091 38.4294 443.091C38.043 443.091 37.7049 443.153 37.4152 443.278C37.1282 443.403 36.9038 443.575 36.7419 443.794C36.5828 444.013 36.5032 444.261 36.5032 444.54C36.5032 444.773 36.5586 444.973 36.6694 445.141C36.7831 445.305 36.928 445.443 37.1041 445.554C37.2802 445.662 37.4649 445.751 37.6581 445.822C37.8513 445.891 38.0288 445.946 38.1907 445.989L39.0771 446.227C39.3044 446.287 39.5572 446.369 39.8356 446.474C40.1169 446.58 40.3853 446.723 40.641 446.905C40.8995 447.084 41.1126 447.314 41.2802 447.595C41.4478 447.876 41.5316 448.222 41.5316 448.631C41.5316 449.102 41.4081 449.528 41.1609 449.909C40.9166 450.29 40.5586 450.592 40.087 450.817C39.6183 451.041 39.0487 451.153 38.3782 451.153C37.7532 451.153 37.212 451.053 36.7547 450.851C36.3001 450.649 35.9422 450.368 35.6808 450.007C35.4223 449.646 35.276 449.227 35.2419 448.75H36.3328C36.3612 449.08 36.472 449.352 36.6652 449.568C36.8612 449.781 37.1084 449.94 37.4066 450.045C37.7078 450.148 38.0316 450.199 38.3782 450.199C38.7816 450.199 39.1439 450.134 39.4649 450.003C39.7859 449.869 40.0402 449.685 40.2277 449.449C40.4152 449.21 40.5089 448.932 40.5089 448.614C40.5089 448.324 40.428 448.088 40.266 447.906C40.1041 447.724 39.891 447.577 39.6268 447.463C39.3626 447.349 39.0771 447.25 38.7703 447.165L37.6964 446.858C37.0146 446.662 36.4748 446.382 36.0771 446.018C35.6794 445.655 35.4805 445.179 35.4805 444.591C35.4805 444.102 35.6126 443.676 35.8768 443.312C36.1439 442.946 36.5018 442.662 36.9507 442.46C37.4024 442.256 37.9066 442.153 38.4635 442.153C39.026 442.153 39.526 442.254 39.9635 442.456C40.401 442.655 40.7476 442.928 41.0032 443.274C41.2618 443.621 41.3981 444.014 41.4123 444.455H40.3896ZM47.2579 448.324V444.455H48.2635V451H47.2579V449.892H47.1897C47.0363 450.224 46.7976 450.507 46.4738 450.74C46.1499 450.97 45.7408 451.085 45.2465 451.085C44.8374 451.085 44.4738 450.996 44.1556 450.817C43.8374 450.635 43.5874 450.362 43.4056 449.999C43.2238 449.632 43.1329 449.17 43.1329 448.614V444.455H44.1385V448.545C44.1385 449.023 44.2721 449.403 44.5391 449.688C44.809 449.972 45.1527 450.114 45.5704 450.114C45.8204 450.114 46.0746 450.05 46.3331 449.922C46.5945 449.794 46.8133 449.598 46.9894 449.334C47.1684 449.07 47.2579 448.733 47.2579 448.324ZM52.7476 453.591C52.2618 453.591 51.8441 453.528 51.4947 453.403C51.1453 453.281 50.8541 453.119 50.6211 452.918C50.391 452.719 50.2078 452.506 50.0714 452.278L50.8726 451.716C50.9635 451.835 51.0785 451.972 51.2177 452.125C51.3569 452.281 51.5473 452.416 51.7888 452.53C52.0331 452.646 52.3527 452.705 52.7476 452.705C53.276 452.705 53.712 452.577 54.0558 452.321C54.3995 452.065 54.5714 451.665 54.5714 451.119V449.79H54.4862C54.4123 449.909 54.3072 450.057 54.1709 450.233C54.0373 450.406 53.8441 450.561 53.5913 450.697C53.3413 450.831 53.0032 450.898 52.5771 450.898C52.0487 450.898 51.5743 450.773 51.1538 450.523C50.7362 450.273 50.4052 449.909 50.1609 449.432C49.9194 448.955 49.7987 448.375 49.7987 447.693C49.7987 447.023 49.9166 446.439 50.1524 445.942C50.3882 445.442 50.7163 445.055 51.1368 444.783C51.5572 444.507 52.043 444.369 52.5941 444.369C53.0203 444.369 53.3584 444.44 53.6084 444.582C53.8612 444.722 54.0544 444.881 54.1879 445.06C54.3243 445.236 54.4294 445.381 54.5032 445.494H54.6055V444.455H55.5771V451.188C55.5771 451.75 55.4493 452.207 55.1936 452.56C54.9407 452.915 54.5998 453.175 54.1709 453.339C53.7447 453.507 53.2703 453.591 52.7476 453.591ZM52.7135 449.994C53.1169 449.994 53.4578 449.902 53.7362 449.717C54.0146 449.533 54.2263 449.267 54.3711 448.92C54.516 448.574 54.5885 448.159 54.5885 447.676C54.5885 447.205 54.5174 446.788 54.3754 446.428C54.2334 446.067 54.0231 445.784 53.7447 445.58C53.4663 445.375 53.1226 445.273 52.7135 445.273C52.2873 445.273 51.9322 445.381 51.6481 445.597C51.3669 445.812 51.1552 446.102 51.0132 446.466C50.874 446.83 50.8044 447.233 50.8044 447.676C50.8044 448.131 50.8754 448.533 51.0174 448.882C51.1623 449.229 51.3754 449.501 51.6566 449.7C51.9407 449.896 52.293 449.994 52.7135 449.994ZM60.0601 453.591C59.5743 453.591 59.1566 453.528 58.8072 453.403C58.4578 453.281 58.1666 453.119 57.9336 452.918C57.7035 452.719 57.5203 452.506 57.3839 452.278L58.1851 451.716C58.276 451.835 58.391 451.972 58.5302 452.125C58.6694 452.281 58.8598 452.416 59.1013 452.53C59.3456 452.646 59.6652 452.705 60.0601 452.705C60.5885 452.705 61.0245 452.577 61.3683 452.321C61.712 452.065 61.8839 451.665 61.8839 451.119V449.79H61.7987C61.7248 449.909 61.6197 450.057 61.4834 450.233C61.3498 450.406 61.1566 450.561 60.9038 450.697C60.6538 450.831 60.3157 450.898 59.8896 450.898C59.3612 450.898 58.8868 450.773 58.4663 450.523C58.0487 450.273 57.7177 449.909 57.4734 449.432C57.2319 448.955 57.1112 448.375 57.1112 447.693C57.1112 447.023 57.2291 446.439 57.4649 445.942C57.7007 445.442 58.0288 445.055 58.4493 444.783C58.8697 444.507 59.3555 444.369 59.9066 444.369C60.3328 444.369 60.6709 444.44 60.9209 444.582C61.1737 444.722 61.3669 444.881 61.5004 445.06C61.6368 445.236 61.7419 445.381 61.8157 445.494H61.918V444.455H62.8896V451.188C62.8896 451.75 62.7618 452.207 62.5061 452.56C62.2532 452.915 61.9123 453.175 61.4834 453.339C61.0572 453.507 60.5828 453.591 60.0601 453.591ZM60.026 449.994C60.4294 449.994 60.7703 449.902 61.0487 449.717C61.3271 449.533 61.5388 449.267 61.6836 448.92C61.8285 448.574 61.901 448.159 61.901 447.676C61.901 447.205 61.8299 446.788 61.6879 446.428C61.5459 446.067 61.3356 445.784 61.0572 445.58C60.7788 445.375 60.4351 445.273 60.026 445.273C59.5998 445.273 59.2447 445.381 58.9606 445.597C58.6794 445.812 58.4677 446.102 58.3257 446.466C58.1865 446.83 58.1169 447.233 58.1169 447.676C58.1169 448.131 58.1879 448.533 58.3299 448.882C58.4748 449.229 58.6879 449.501 58.9691 449.7C59.2532 449.896 59.6055 449.994 60.026 449.994ZM67.4748 451.136C66.8441 451.136 66.3001 450.997 65.8427 450.719C65.3882 450.438 65.0373 450.045 64.7902 449.543C64.5459 449.037 64.4237 448.449 64.4237 447.778C64.4237 447.108 64.5459 446.517 64.7902 446.006C65.0373 445.491 65.3811 445.091 65.8214 444.804C66.2646 444.514 66.7816 444.369 67.3726 444.369C67.7135 444.369 68.0501 444.426 68.3825 444.54C68.7149 444.653 69.0174 444.838 69.2902 445.094C69.5629 445.347 69.7802 445.682 69.9422 446.099C70.1041 446.517 70.1851 447.031 70.1851 447.642V448.068H65.1396V447.199H69.1623C69.1623 446.83 69.0885 446.5 68.9407 446.21C68.7959 445.92 68.5885 445.692 68.3186 445.524C68.0515 445.357 67.7362 445.273 67.3726 445.273C66.972 445.273 66.6254 445.372 66.3328 445.571C66.043 445.767 65.82 446.023 65.6638 446.338C65.5075 446.653 65.4294 446.991 65.4294 447.352V447.932C65.4294 448.426 65.5146 448.845 65.6851 449.189C65.8584 449.53 66.0984 449.79 66.4052 449.969C66.712 450.145 67.0686 450.233 67.4748 450.233C67.739 450.233 67.9777 450.196 68.1907 450.122C68.4066 450.045 68.5927 449.932 68.749 449.781C68.9052 449.628 69.026 449.437 69.1112 449.21L70.0828 449.483C69.9805 449.812 69.8086 450.102 69.5672 450.352C69.3257 450.599 69.0274 450.793 68.6723 450.932C68.3172 451.068 67.918 451.136 67.4748 451.136ZM71.7149 451V444.455H72.6865V445.443H72.7547C72.874 445.119 73.0899 444.857 73.4024 444.655C73.7149 444.453 74.0672 444.352 74.4592 444.352C74.5331 444.352 74.6254 444.354 74.7362 444.357C74.847 444.359 74.9308 444.364 74.9876 444.369V445.392C74.9535 445.384 74.8754 445.371 74.7532 445.354C74.6339 445.334 74.5075 445.324 74.374 445.324C74.0558 445.324 73.7717 445.391 73.5217 445.524C73.2745 445.655 73.0785 445.837 72.9336 446.07C72.7916 446.3 72.7206 446.562 72.7206 446.858V451H71.7149ZM76.1797 451V444.455H77.1854V451H76.1797ZM76.6911 443.364C76.4951 443.364 76.326 443.297 76.184 443.163C76.0448 443.03 75.9752 442.869 75.9752 442.682C75.9752 442.494 76.0448 442.334 76.184 442.2C76.326 442.067 76.4951 442 76.6911 442C76.8871 442 77.0547 442.067 77.1939 442.2C77.336 442.334 77.407 442.494 77.407 442.682C77.407 442.869 77.336 443.03 77.1939 443.163C77.0547 443.297 76.8871 443.364 76.6911 443.364ZM79.0274 451V444.455H79.999V445.477H80.0842C80.2206 445.128 80.4407 444.857 80.7447 444.663C81.0487 444.467 81.4138 444.369 81.8399 444.369C82.2717 444.369 82.6311 444.467 82.918 444.663C83.2078 444.857 83.4336 445.128 83.5956 445.477H83.6638C83.8314 445.139 84.0828 444.871 84.418 444.672C84.7532 444.47 85.1552 444.369 85.624 444.369C86.2092 444.369 86.6879 444.553 87.0601 444.919C87.4322 445.283 87.6183 445.849 87.6183 446.619V451H86.6126V446.619C86.6126 446.136 86.4805 445.791 86.2163 445.584C85.9521 445.376 85.641 445.273 85.2831 445.273C84.8228 445.273 84.4663 445.412 84.2135 445.69C83.9606 445.966 83.8342 446.315 83.8342 446.739V451H82.8115V446.517C82.8115 446.145 82.6907 445.845 82.4493 445.618C82.2078 445.388 81.8967 445.273 81.516 445.273C81.2547 445.273 81.0103 445.342 80.7831 445.482C80.5586 445.621 80.3768 445.814 80.2376 446.061C80.1013 446.305 80.0331 446.588 80.0331 446.909V451H79.0274ZM92.2014 451.136C91.5707 451.136 91.0267 450.997 90.5693 450.719C90.1147 450.438 89.7639 450.045 89.5167 449.543C89.2724 449.037 89.1503 448.449 89.1503 447.778C89.1503 447.108 89.2724 446.517 89.5167 446.006C89.7639 445.491 90.1076 445.091 90.548 444.804C90.9912 444.514 91.5082 444.369 92.0991 444.369C92.44 444.369 92.7767 444.426 93.1091 444.54C93.4415 444.653 93.744 444.838 94.0167 445.094C94.2895 445.347 94.5068 445.682 94.6687 446.099C94.8307 446.517 94.9116 447.031 94.9116 447.642V448.068H89.8662V447.199H93.8889C93.8889 446.83 93.815 446.5 93.6673 446.21C93.5224 445.92 93.315 445.692 93.0451 445.524C92.7781 445.357 92.4628 445.273 92.0991 445.273C91.6986 445.273 91.352 445.372 91.0593 445.571C90.7696 445.767 90.5466 446.023 90.3903 446.338C90.2341 446.653 90.1559 446.991 90.1559 447.352V447.932C90.1559 448.426 90.2412 448.845 90.4116 449.189C90.5849 449.53 90.825 449.79 91.1318 449.969C91.4386 450.145 91.7951 450.233 92.2014 450.233C92.4656 450.233 92.7042 450.196 92.9173 450.122C93.1332 450.045 93.3193 449.932 93.4755 449.781C93.6318 449.628 93.7525 449.437 93.8378 449.21L94.8093 449.483C94.7071 449.812 94.5352 450.102 94.2937 450.352C94.0522 450.599 93.754 450.793 93.3988 450.932C93.0437 451.068 92.6446 451.136 92.2014 451.136ZM97.4471 447.062V451H96.4415V444.455H97.413V445.477H97.4983C97.6517 445.145 97.8846 444.878 98.1971 444.676C98.5096 444.472 98.913 444.369 99.4074 444.369C99.8505 444.369 100.238 444.46 100.571 444.642C100.903 444.821 101.162 445.094 101.346 445.46C101.531 445.824 101.623 446.284 101.623 446.841V451H100.618V446.909C100.618 446.395 100.484 445.994 100.217 445.707C99.95 445.418 99.5835 445.273 99.1176 445.273C98.7966 445.273 98.5096 445.342 98.2568 445.482C98.0068 445.621 97.8093 445.824 97.6645 446.091C97.5196 446.358 97.4471 446.682 97.4471 447.062ZM106.308 444.455V445.307H102.916V444.455H106.308ZM103.904 442.886H104.91V449.125C104.91 449.409 104.951 449.622 105.033 449.764C105.119 449.903 105.227 449.997 105.357 450.045C105.491 450.091 105.631 450.114 105.779 450.114C105.89 450.114 105.981 450.108 106.052 450.097C106.123 450.082 106.18 450.071 106.222 450.062L106.427 450.966C106.359 450.991 106.264 451.017 106.141 451.043C106.019 451.071 105.864 451.085 105.677 451.085C105.393 451.085 105.114 451.024 104.842 450.902C104.572 450.78 104.347 450.594 104.168 450.344C103.992 450.094 103.904 449.778 103.904 449.398V442.886ZM110.409 451.136C109.818 451.136 109.3 450.996 108.854 450.714C108.411 450.433 108.064 450.04 107.814 449.534C107.567 449.028 107.443 448.437 107.443 447.761C107.443 447.08 107.567 446.484 107.814 445.976C108.064 445.467 108.411 445.072 108.854 444.791C109.3 444.51 109.818 444.369 110.409 444.369C111 444.369 111.517 444.51 111.96 444.791C112.406 445.072 112.753 445.467 113 445.976C113.25 446.484 113.375 447.08 113.375 447.761C113.375 448.437 113.25 449.028 113 449.534C112.753 450.04 112.406 450.433 111.96 450.714C111.517 450.996 111 451.136 110.409 451.136ZM110.409 450.233C110.858 450.233 111.227 450.118 111.517 449.888C111.807 449.658 112.021 449.355 112.161 448.98C112.3 448.605 112.369 448.199 112.369 447.761C112.369 447.324 112.3 446.916 112.161 446.538C112.021 446.161 111.807 445.855 111.517 445.622C111.227 445.389 110.858 445.273 110.409 445.273C109.96 445.273 109.591 445.389 109.301 445.622C109.011 445.855 108.797 446.161 108.658 446.538C108.519 446.916 108.449 447.324 108.449 447.761C108.449 448.199 108.519 448.605 108.658 448.98C108.797 449.355 109.011 449.658 109.301 449.888C109.591 450.118 109.96 450.233 110.409 450.233ZM121.336 442.273V451H120.28V443.381H120.228L118.098 444.795V443.722L120.28 442.273H121.336Z" fill="#D9D9D9"/>
<rect x="15.5" y="433.5" width="325" height="88" rx="9.5" stroke="black"/>
<path d="M37.9521 352.136C37.4066 352.136 36.9251 351.999 36.5075 351.723C36.0899 351.445 35.7632 351.053 35.5274 350.547C35.2916 350.038 35.1737 349.438 35.1737 348.744C35.1737 348.057 35.2916 347.46 35.5274 346.955C35.7632 346.449 36.0913 346.058 36.5118 345.783C36.9322 345.507 37.418 345.369 37.9691 345.369C38.3953 345.369 38.7319 345.44 38.9791 345.582C39.2291 345.722 39.4194 345.881 39.5501 346.06C39.6836 346.236 39.7873 346.381 39.8612 346.494H39.9464V343.273H40.9521V352H39.9805V350.994H39.8612C39.7873 351.114 39.6822 351.264 39.5459 351.446C39.4095 351.625 39.2149 351.786 38.962 351.928C38.7092 352.067 38.3726 352.136 37.9521 352.136ZM38.0885 351.233C38.4919 351.233 38.8328 351.128 39.1112 350.918C39.3896 350.705 39.6013 350.411 39.7461 350.036C39.891 349.658 39.9635 349.222 39.9635 348.727C39.9635 348.239 39.8924 347.811 39.7504 347.445C39.6084 347.075 39.3981 346.788 39.1197 346.584C38.8413 346.376 38.4976 346.273 38.0885 346.273C37.6623 346.273 37.3072 346.382 37.0231 346.601C36.7419 346.817 36.5302 347.111 36.3882 347.483C36.249 347.852 36.1794 348.267 36.1794 348.727C36.1794 349.193 36.2504 349.616 36.3924 349.997C36.5373 350.375 36.7504 350.676 37.0316 350.901C37.3157 351.122 37.668 351.233 38.0885 351.233ZM45.678 352.136C45.0473 352.136 44.5032 351.997 44.0459 351.719C43.5913 351.438 43.2405 351.045 42.9933 350.543C42.749 350.037 42.6268 349.449 42.6268 348.778C42.6268 348.108 42.749 347.517 42.9933 347.006C43.2405 346.491 43.5842 346.091 44.0245 345.804C44.4677 345.514 44.9848 345.369 45.5757 345.369C45.9166 345.369 46.2532 345.426 46.5856 345.54C46.918 345.653 47.2206 345.838 47.4933 346.094C47.766 346.347 47.9834 346.682 48.1453 347.099C48.3072 347.517 48.3882 348.031 48.3882 348.642V349.068H43.3427V348.199H47.3655C47.3655 347.83 47.2916 347.5 47.1439 347.21C46.999 346.92 46.7916 346.692 46.5217 346.524C46.2547 346.357 45.9393 346.273 45.5757 346.273C45.1751 346.273 44.8285 346.372 44.5359 346.571C44.2461 346.767 44.0231 347.023 43.8669 347.338C43.7106 347.653 43.6325 347.991 43.6325 348.352V348.932C43.6325 349.426 43.7177 349.845 43.8882 350.189C44.0615 350.53 44.3015 350.79 44.6084 350.969C44.9152 351.145 45.2717 351.233 45.678 351.233C45.9422 351.233 46.1808 351.196 46.3939 351.122C46.6098 351.045 46.7959 350.932 46.9521 350.781C47.1084 350.628 47.2291 350.437 47.3143 350.21L48.2859 350.483C48.1836 350.812 48.0118 351.102 47.7703 351.352C47.5288 351.599 47.2305 351.793 46.8754 351.932C46.5203 352.068 46.1211 352.136 45.678 352.136ZM54.5544 346.92L53.651 347.176C53.5941 347.026 53.5103 346.879 53.3995 346.737C53.2916 346.592 53.1439 346.473 52.9564 346.379C52.7689 346.286 52.5288 346.239 52.2362 346.239C51.8356 346.239 51.5018 346.331 51.2348 346.516C50.9706 346.697 50.8385 346.929 50.8385 347.21C50.8385 347.46 50.9294 347.658 51.1112 347.803C51.293 347.947 51.5771 348.068 51.9635 348.165L52.9351 348.403C53.5203 348.545 53.9564 348.763 54.2433 349.055C54.5302 349.345 54.6737 349.719 54.6737 350.176C54.6737 350.551 54.5657 350.886 54.3498 351.182C54.1368 351.477 53.8385 351.71 53.4549 351.881C53.0714 352.051 52.6254 352.136 52.1169 352.136C51.4493 352.136 50.8967 351.991 50.4592 351.702C50.0217 351.412 49.7447 350.989 49.6282 350.432L50.5828 350.193C50.6737 350.545 50.8456 350.81 51.0984 350.986C51.3541 351.162 51.6879 351.25 52.0998 351.25C52.5686 351.25 52.9407 351.151 53.2163 350.952C53.4947 350.75 53.6339 350.509 53.6339 350.227C53.6339 350 53.5544 349.81 53.3953 349.656C53.2362 349.5 52.9919 349.384 52.6623 349.307L51.5714 349.051C50.972 348.909 50.5316 348.689 50.2504 348.391C49.972 348.089 49.8328 347.713 49.8328 347.261C49.8328 346.892 49.9365 346.565 50.1439 346.281C50.3541 345.997 50.6396 345.774 51.0004 345.612C51.364 345.45 51.776 345.369 52.2362 345.369C52.8839 345.369 53.3924 345.511 53.7618 345.795C54.1339 346.08 54.3981 346.455 54.5544 346.92ZM58.8466 352.136C58.233 352.136 57.7046 351.991 57.2614 351.702C56.8182 351.412 56.4773 351.013 56.2387 350.504C56 349.996 55.8807 349.415 55.8807 348.761C55.8807 348.097 56.0029 347.51 56.2472 347.001C56.4944 346.49 56.8381 346.091 57.2785 345.804C57.7216 345.514 58.2387 345.369 58.8296 345.369C59.2898 345.369 59.7046 345.455 60.0739 345.625C60.4432 345.795 60.7458 346.034 60.9816 346.341C61.2174 346.648 61.3637 347.006 61.4205 347.415H60.4148C60.3381 347.116 60.1677 346.852 59.9035 346.622C59.6421 346.389 59.2898 346.273 58.8466 346.273C58.4546 346.273 58.1108 346.375 57.8154 346.58C57.5228 346.781 57.2941 347.067 57.1293 347.436C56.9674 347.803 56.8864 348.233 56.8864 348.727C56.8864 349.233 56.966 349.673 57.125 350.048C57.287 350.423 57.5142 350.714 57.8069 350.922C58.1023 351.129 58.4489 351.233 58.8466 351.233C59.108 351.233 59.3452 351.188 59.5583 351.097C59.7714 351.006 59.9517 350.875 60.0995 350.705C60.2472 350.534 60.3523 350.33 60.4148 350.091H61.4205C61.3637 350.477 61.2231 350.825 60.9986 351.135C60.777 351.442 60.483 351.686 60.1165 351.868C59.7529 352.047 59.3296 352.136 58.8466 352.136ZM62.8907 352V345.455H63.8623V346.443H63.9304C64.0498 346.119 64.2657 345.857 64.5782 345.655C64.8907 345.453 65.2429 345.352 65.635 345.352C65.7089 345.352 65.8012 345.354 65.912 345.357C66.0228 345.359 66.1066 345.364 66.1634 345.369V346.392C66.1293 346.384 66.0512 346.371 65.929 346.354C65.8097 346.334 65.6833 346.324 65.5498 346.324C65.2316 346.324 64.9475 346.391 64.6975 346.524C64.4503 346.655 64.2543 346.837 64.1094 347.07C63.9674 347.3 63.8964 347.562 63.8964 347.858V352H62.8907ZM67.3555 352V345.455H68.3612V352H67.3555ZM67.8669 344.364C67.6709 344.364 67.5018 344.297 67.3598 344.163C67.2206 344.03 67.151 343.869 67.151 343.682C67.151 343.494 67.2206 343.334 67.3598 343.2C67.5018 343.067 67.6709 343 67.8669 343C68.0629 343 68.2305 343.067 68.3697 343.2C68.5118 343.334 68.5828 343.494 68.5828 343.682C68.5828 343.869 68.5118 344.03 68.3697 344.163C68.2305 344.297 68.0629 344.364 67.8669 344.364ZM70.0157 352V351.233L73.7316 346.46V346.392H70.135V345.455H75.027V346.256L71.4134 350.994V351.062H75.1464V352H70.0157ZM76.6954 352V345.455H77.701V352H76.6954ZM77.2067 344.364C77.0107 344.364 76.8417 344.297 76.6996 344.163C76.5604 344.03 76.4908 343.869 76.4908 343.682C76.4908 343.494 76.5604 343.334 76.6996 343.2C76.8417 343.067 77.0107 343 77.2067 343C77.4027 343 77.5704 343.067 77.7096 343.2C77.8516 343.334 77.9226 343.494 77.9226 343.682C77.9226 343.869 77.8516 344.03 77.7096 344.163C77.5704 344.297 77.4027 344.364 77.2067 344.364ZM82.2021 352.136C81.6112 352.136 81.0927 351.996 80.6467 351.714C80.2035 351.433 79.8569 351.04 79.6069 350.534C79.3598 350.028 79.2362 349.437 79.2362 348.761C79.2362 348.08 79.3598 347.484 79.6069 346.976C79.8569 346.467 80.2035 346.072 80.6467 345.791C81.0927 345.51 81.6112 345.369 82.2021 345.369C82.793 345.369 83.3101 345.51 83.7532 345.791C84.1993 346.072 84.5459 346.467 84.793 346.976C85.043 347.484 85.168 348.08 85.168 348.761C85.168 349.437 85.043 350.028 84.793 350.534C84.5459 351.04 84.1993 351.433 83.7532 351.714C83.3101 351.996 82.793 352.136 82.2021 352.136ZM82.2021 351.233C82.651 351.233 83.0203 351.118 83.3101 350.888C83.5998 350.658 83.8143 350.355 83.9535 349.98C84.0927 349.605 84.1623 349.199 84.1623 348.761C84.1623 348.324 84.0927 347.916 83.9535 347.538C83.8143 347.161 83.5998 346.855 83.3101 346.622C83.0203 346.389 82.651 346.273 82.2021 346.273C81.7532 346.273 81.3839 346.389 81.0941 346.622C80.8044 346.855 80.5899 347.161 80.4507 347.538C80.3115 347.916 80.2419 348.324 80.2419 348.761C80.2419 349.199 80.3115 349.605 80.4507 349.98C80.5899 350.355 80.8044 350.658 81.0941 350.888C81.3839 351.118 81.7532 351.233 82.2021 351.233ZM87.7089 348.062V352H86.7032V345.455H87.6748V346.477H87.76C87.9134 346.145 88.1464 345.878 88.4589 345.676C88.7714 345.472 89.1748 345.369 89.6691 345.369C90.1123 345.369 90.5 345.46 90.8324 345.642C91.1648 345.821 91.4233 346.094 91.608 346.46C91.7927 346.824 91.885 347.284 91.885 347.841V352H90.8793V347.909C90.8793 347.395 90.7458 346.994 90.4787 346.707C90.2117 346.418 89.8452 346.273 89.3793 346.273C89.0583 346.273 88.7714 346.342 88.5185 346.482C88.2685 346.621 88.0711 346.824 87.9262 347.091C87.7813 347.358 87.7089 347.682 87.7089 348.062ZM96.467 352.136C95.8363 352.136 95.2923 351.997 94.8349 351.719C94.3804 351.438 94.0295 351.045 93.7824 350.543C93.538 350.037 93.4159 349.449 93.4159 348.778C93.4159 348.108 93.538 347.517 93.7824 347.006C94.0295 346.491 94.3733 346.091 94.8136 345.804C95.2568 345.514 95.7738 345.369 96.3647 345.369C96.7057 345.369 97.0423 345.426 97.3747 345.54C97.7071 345.653 98.0096 345.838 98.2824 346.094C98.5551 346.347 98.7724 346.682 98.9343 347.099C99.0963 347.517 99.1772 348.031 99.1772 348.642V349.068H94.1318V348.199H98.1545C98.1545 347.83 98.0807 347.5 97.9329 347.21C97.788 346.92 97.5807 346.692 97.3108 346.524C97.0437 346.357 96.7284 346.273 96.3647 346.273C95.9642 346.273 95.6176 346.372 95.325 346.571C95.0352 346.767 94.8122 347.023 94.6559 347.338C94.4997 347.653 94.4216 347.991 94.4216 348.352V348.932C94.4216 349.426 94.5068 349.845 94.6772 350.189C94.8505 350.53 95.0906 350.79 95.3974 350.969C95.7042 351.145 96.0608 351.233 96.467 351.233C96.7312 351.233 96.9699 351.196 97.1829 351.122C97.3988 351.045 97.5849 350.932 97.7412 350.781C97.8974 350.628 98.0182 350.437 98.1034 350.21L99.075 350.483C98.9727 350.812 98.8008 351.102 98.5593 351.352C98.3179 351.599 98.0196 351.793 97.6645 351.932C97.3093 352.068 96.9102 352.136 96.467 352.136Z" fill="#D9D9D9"/>
<rect x="15.5" y="334.5" width="325" height="88" rx="9.5" stroke="black"/>
<rect x="15" y="177" width="326" height="143" rx="10" fill="#D9D9D9"/>
<rect x="15" y="138" width="147" height="29" rx="5" fill="#D9D9D9"/>
<path d="M61.8295 150.455C61.7784 150.023 61.571 149.688 61.2074 149.449C60.8438 149.21 60.3977 149.091 59.8693 149.091C59.483 149.091 59.1449 149.153 58.8551 149.278C58.5682 149.403 58.3438 149.575 58.1818 149.794C58.0227 150.013 57.9432 150.261 57.9432 150.54C57.9432 150.773 57.9986 150.973 58.1094 151.141C58.223 151.305 58.3679 151.443 58.544 151.554C58.7202 151.662 58.9048 151.751 59.098 151.822C59.2912 151.891 59.4688 151.946 59.6307 151.989L60.517 152.227C60.7443 152.287 60.9972 152.369 61.2756 152.474C61.5568 152.58 61.8253 152.723 62.081 152.905C62.3395 153.084 62.5526 153.314 62.7202 153.595C62.8878 153.876 62.9716 154.222 62.9716 154.631C62.9716 155.102 62.848 155.528 62.6009 155.909C62.3565 156.29 61.9986 156.592 61.527 156.817C61.0582 157.041 60.4886 157.153 59.8182 157.153C59.1932 157.153 58.652 157.053 58.1946 156.851C57.7401 156.649 57.3821 156.368 57.1207 156.007C56.8622 155.646 56.7159 155.227 56.6818 154.75H57.7727C57.8011 155.08 57.9119 155.352 58.1051 155.568C58.3011 155.781 58.5483 155.94 58.8466 156.045C59.1477 156.148 59.4716 156.199 59.8182 156.199C60.2216 156.199 60.5838 156.134 60.9048 156.003C61.2259 155.869 61.4801 155.685 61.6676 155.449C61.8551 155.21 61.9489 154.932 61.9489 154.614C61.9489 154.324 61.8679 154.088 61.706 153.906C61.544 153.724 61.331 153.577 61.0668 153.463C60.8026 153.349 60.517 153.25 60.2102 153.165L59.1364 152.858C58.4545 152.662 57.9148 152.382 57.517 152.018C57.1193 151.655 56.9205 151.179 56.9205 150.591C56.9205 150.102 57.0526 149.676 57.3168 149.312C57.5838 148.946 57.9418 148.662 58.3906 148.46C58.8423 148.256 59.3466 148.153 59.9034 148.153C60.4659 148.153 60.9659 148.254 61.4034 148.456C61.8409 148.655 62.1875 148.928 62.4432 149.274C62.7017 149.621 62.8381 150.014 62.8523 150.455H61.8295ZM67.2319 157.136C66.6183 157.136 66.0898 156.991 65.6467 156.702C65.2035 156.412 64.8626 156.013 64.6239 155.504C64.3853 154.996 64.266 154.415 64.266 153.761C64.266 153.097 64.3881 152.51 64.6325 152.001C64.8796 151.49 65.2234 151.091 65.6637 150.804C66.1069 150.514 66.6239 150.369 67.2148 150.369C67.6751 150.369 68.0898 150.455 68.4592 150.625C68.8285 150.795 69.131 151.034 69.3668 151.341C69.6026 151.648 69.7489 152.006 69.8058 152.415H68.8001C68.7234 152.116 68.5529 151.852 68.2887 151.622C68.0273 151.389 67.6751 151.273 67.2319 151.273C66.8398 151.273 66.4961 151.375 66.2006 151.58C65.908 151.781 65.6793 152.067 65.5146 152.436C65.3526 152.803 65.2717 153.233 65.2717 153.727C65.2717 154.233 65.3512 154.673 65.5103 155.048C65.6722 155.423 65.8995 155.714 66.1921 155.922C66.4876 156.129 66.8342 156.233 67.2319 156.233C67.4933 156.233 67.7305 156.188 67.9435 156.097C68.1566 156.006 68.337 155.875 68.4847 155.705C68.6325 155.534 68.7376 155.33 68.8001 155.091H69.8058C69.7489 155.477 69.6083 155.825 69.3839 156.135C69.1623 156.442 68.8683 156.686 68.5018 156.868C68.1381 157.047 67.7148 157.136 67.2319 157.136ZM73.2021 157.153C72.7873 157.153 72.4109 157.075 72.0728 156.919C71.7347 156.76 71.4663 156.531 71.2674 156.233C71.0685 155.932 70.9691 155.568 70.9691 155.142C70.9691 154.767 71.043 154.463 71.1907 154.23C71.3384 153.994 71.5359 153.81 71.783 153.676C72.0302 153.543 72.3029 153.443 72.6012 153.378C72.9023 153.31 73.2049 153.256 73.5089 153.216C73.9066 153.165 74.229 153.126 74.4762 153.101C74.7262 153.072 74.908 153.026 75.0217 152.96C75.1381 152.895 75.1964 152.781 75.1964 152.619V152.585C75.1964 152.165 75.0813 151.838 74.8512 151.605C74.6239 151.372 74.2788 151.256 73.8157 151.256C73.3356 151.256 72.9592 151.361 72.6864 151.571C72.4137 151.781 72.2219 152.006 72.1112 152.244L71.1566 151.903C71.3271 151.506 71.5543 151.196 71.8384 150.974C72.1254 150.75 72.4379 150.594 72.7759 150.506C73.1168 150.415 73.4521 150.369 73.7816 150.369C73.9918 150.369 74.2333 150.395 74.506 150.446C74.7816 150.494 75.0472 150.595 75.3029 150.749C75.5614 150.902 75.7759 151.134 75.9464 151.443C76.1168 151.753 76.2021 152.168 76.2021 152.688V157H75.1964V156.114H75.1452C75.0771 156.256 74.9634 156.408 74.8043 156.57C74.6452 156.732 74.4336 156.869 74.1694 156.983C73.9052 157.097 73.5827 157.153 73.2021 157.153ZM73.3555 156.25C73.7532 156.25 74.0884 156.172 74.3612 156.016C74.6367 155.859 74.8441 155.658 74.9833 155.411C75.1254 155.163 75.1964 154.903 75.1964 154.631V153.71C75.1538 153.761 75.06 153.808 74.9151 153.851C74.7731 153.891 74.6083 153.926 74.4208 153.957C74.2362 153.986 74.0558 154.011 73.8796 154.034C73.7063 154.054 73.5657 154.071 73.4577 154.085C73.1964 154.119 72.9521 154.175 72.7248 154.251C72.5004 154.325 72.3185 154.437 72.1793 154.588C72.043 154.736 71.9748 154.937 71.9748 155.193C71.9748 155.543 72.104 155.807 72.3626 155.986C72.6239 156.162 72.9549 156.25 73.3555 156.25ZM80.8842 150.455V151.307H77.4922V150.455H80.8842ZM78.4808 148.886H79.4865V155.125C79.4865 155.409 79.5277 155.622 79.6101 155.764C79.6953 155.903 79.8033 155.997 79.9339 156.045C80.0675 156.091 80.2081 156.114 80.3558 156.114C80.4666 156.114 80.5575 156.108 80.6286 156.097C80.6996 156.082 80.7564 156.071 80.799 156.062L81.0036 156.966C80.9354 156.991 80.8402 157.017 80.718 157.043C80.5959 157.071 80.4411 157.085 80.2536 157.085C79.9695 157.085 79.6911 157.024 79.4183 156.902C79.1484 156.78 78.924 156.594 78.745 156.344C78.5689 156.094 78.4808 155.778 78.4808 155.398V148.886ZM85.2436 150.455V151.307H81.8516V150.455H85.2436ZM82.8402 148.886H83.8459V155.125C83.8459 155.409 83.8871 155.622 83.9695 155.764C84.0547 155.903 84.1626 155.997 84.2933 156.045C84.4268 156.091 84.5675 156.114 84.7152 156.114C84.826 156.114 84.9169 156.108 84.9879 156.097C85.0589 156.082 85.1158 156.071 85.1584 156.062L85.3629 156.966C85.2947 156.991 85.1996 157.017 85.0774 157.043C84.9553 157.071 84.8004 157.085 84.6129 157.085C84.3288 157.085 84.0504 157.024 83.7777 156.902C83.5078 156.78 83.2834 156.594 83.1044 156.344C82.9283 156.094 82.8402 155.778 82.8402 155.398V148.886ZM88.6825 157.153C88.2678 157.153 87.8913 157.075 87.5533 156.919C87.2152 156.76 86.9467 156.531 86.7479 156.233C86.549 155.932 86.4496 155.568 86.4496 155.142C86.4496 154.767 86.5234 154.463 86.6712 154.23C86.8189 153.994 87.0163 153.81 87.2635 153.676C87.5107 153.543 87.7834 153.443 88.0817 153.378C88.3828 153.31 88.6854 153.256 88.9893 153.216C89.3871 153.165 89.7095 153.126 89.9567 153.101C90.2067 153.072 90.3885 153.026 90.5021 152.96C90.6186 152.895 90.6768 152.781 90.6768 152.619V152.585C90.6768 152.165 90.5618 151.838 90.3317 151.605C90.1044 151.372 89.7592 151.256 89.2962 151.256C88.8161 151.256 88.4396 151.361 88.1669 151.571C87.8942 151.781 87.7024 152.006 87.5916 152.244L86.6371 151.903C86.8075 151.506 87.0348 151.196 87.3189 150.974C87.6058 150.75 87.9183 150.594 88.2564 150.506C88.5973 150.415 88.9325 150.369 89.2621 150.369C89.4723 150.369 89.7138 150.395 89.9865 150.446C90.2621 150.494 90.5277 150.595 90.7834 150.749C91.0419 150.902 91.2564 151.134 91.4268 151.443C91.5973 151.753 91.6825 152.168 91.6825 152.688V157H90.6768V156.114H90.6257C90.5575 156.256 90.4439 156.408 90.2848 156.57C90.1257 156.732 89.9141 156.869 89.6499 156.983C89.3857 157.097 89.0632 157.153 88.6825 157.153ZM88.8359 156.25C89.2337 156.25 89.5689 156.172 89.8416 156.016C90.1172 155.859 90.3246 155.658 90.4638 155.411C90.6058 155.163 90.6768 154.903 90.6768 154.631V153.71C90.6342 153.761 90.5405 153.808 90.3956 153.851C90.2536 153.891 90.0888 153.926 89.9013 153.957C89.7166 153.986 89.5362 154.011 89.3601 154.034C89.1868 154.054 89.0462 154.071 88.9382 154.085C88.6768 154.119 88.4325 154.175 88.2053 154.251C87.9808 154.325 87.799 154.437 87.6598 154.588C87.5234 154.736 87.4553 154.937 87.4553 155.193C87.4553 155.543 87.5845 155.807 87.843 155.986C88.1044 156.162 88.4354 156.25 88.8359 156.25ZM99.8079 150.455V151.307H96.2795V150.455H99.8079ZM97.3363 157V149.551C97.3363 149.176 97.4244 148.864 97.6005 148.614C97.7766 148.364 98.0053 148.176 98.2866 148.051C98.5678 147.926 98.8647 147.864 99.1772 147.864C99.4244 147.864 99.6261 147.884 99.7823 147.923C99.9386 147.963 100.055 148 100.132 148.034L99.842 148.903C99.7908 148.886 99.7198 148.865 99.6289 148.839C99.5408 148.814 99.4244 148.801 99.2795 148.801C98.9471 148.801 98.707 148.885 98.5593 149.053C98.4144 149.22 98.342 149.466 98.342 149.79V157H97.3363ZM103.607 157.136C103.016 157.136 102.498 156.996 102.051 156.714C101.608 156.433 101.262 156.04 101.012 155.534C100.765 155.028 100.641 154.437 100.641 153.761C100.641 153.08 100.765 152.484 101.012 151.976C101.262 151.467 101.608 151.072 102.051 150.791C102.498 150.51 103.016 150.369 103.607 150.369C104.198 150.369 104.715 150.51 105.158 150.791C105.604 151.072 105.951 151.467 106.198 151.976C106.448 152.484 106.573 153.08 106.573 153.761C106.573 154.437 106.448 155.028 106.198 155.534C105.951 156.04 105.604 156.433 105.158 156.714C104.715 156.996 104.198 157.136 103.607 157.136ZM103.607 156.233C104.056 156.233 104.425 156.118 104.715 155.888C105.005 155.658 105.219 155.355 105.358 154.98C105.498 154.605 105.567 154.199 105.567 153.761C105.567 153.324 105.498 152.916 105.358 152.538C105.219 152.161 105.005 151.855 104.715 151.622C104.425 151.389 104.056 151.273 103.607 151.273C103.158 151.273 102.789 151.389 102.499 151.622C102.209 151.855 101.995 152.161 101.855 152.538C101.716 152.916 101.647 153.324 101.647 153.761C101.647 154.199 101.716 154.605 101.855 154.98C101.995 155.355 102.209 155.658 102.499 155.888C102.789 156.118 103.158 156.233 103.607 156.233ZM110.955 150.455V151.307H107.562V150.455H110.955ZM108.551 148.886H109.557V155.125C109.557 155.409 109.598 155.622 109.68 155.764C109.766 155.903 109.874 155.997 110.004 156.045C110.138 156.091 110.278 156.114 110.426 156.114C110.537 156.114 110.628 156.108 110.699 156.097C110.77 156.082 110.827 156.071 110.869 156.062L111.074 156.966C111.006 156.991 110.911 157.017 110.788 157.043C110.666 157.071 110.511 157.085 110.324 157.085C110.04 157.085 109.761 157.024 109.489 156.902C109.219 156.78 108.994 156.594 108.815 156.344C108.639 156.094 108.551 155.778 108.551 155.398V148.886ZM115.056 157.136C114.465 157.136 113.947 156.996 113.501 156.714C113.058 156.433 112.711 156.04 112.461 155.534C112.214 155.028 112.09 154.437 112.09 153.761C112.09 153.08 112.214 152.484 112.461 151.976C112.711 151.467 113.058 151.072 113.501 150.791C113.947 150.51 114.465 150.369 115.056 150.369C115.647 150.369 116.164 150.51 116.607 150.791C117.053 151.072 117.4 151.467 117.647 151.976C117.897 152.484 118.022 153.08 118.022 153.761C118.022 154.437 117.897 155.028 117.647 155.534C117.4 156.04 117.053 156.433 116.607 156.714C116.164 156.996 115.647 157.136 115.056 157.136ZM115.056 156.233C115.505 156.233 115.874 156.118 116.164 155.888C116.454 155.658 116.668 155.355 116.808 154.98C116.947 154.605 117.016 154.199 117.016 153.761C117.016 153.324 116.947 152.916 116.808 152.538C116.668 152.161 116.454 151.855 116.164 151.622C115.874 151.389 115.505 151.273 115.056 151.273C114.607 151.273 114.238 151.389 113.948 151.622C113.658 151.855 113.444 152.161 113.305 152.538C113.165 152.916 113.096 153.324 113.096 153.761C113.096 154.199 113.165 154.605 113.305 154.98C113.444 155.355 113.658 155.658 113.948 155.888C114.238 156.118 114.607 156.233 115.056 156.233Z" fill="black"/>
<path d="M32.0312 154.969C32.8646 155.776 33.8542 156.18 35 156.18C36.1458 156.18 37.1224 155.776 37.9297 154.969C38.763 154.135 39.1797 153.146 39.1797 152C39.1797 150.854 38.763 149.878 37.9297 149.07C37.1224 148.237 36.1458 147.82 35 147.82C33.8542 147.82 32.8646 148.237 32.0312 149.07C31.224 149.878 30.8203 150.854 30.8203 152C30.8203 153.146 31.224 154.135 32.0312 154.969ZM32.5 143.68H37.5L39.0234 145.32H41.6797C42.1224 145.32 42.5 145.49 42.8125 145.828C43.151 146.167 43.3203 146.557 43.3203 147V157C43.3203 157.443 43.151 157.833 42.8125 158.172C42.5 158.51 42.1224 158.68 41.6797 158.68H28.3203C27.8776 158.68 27.487 158.51 27.1484 158.172C26.8359 157.833 26.6797 157.443 26.6797 157V147C26.6797 146.557 26.8359 146.167 27.1484 145.828C27.487 145.49 27.8776 145.32 28.3203 145.32H30.9766L32.5 143.68ZM33.125 153.875C32.6042 153.354 32.3438 152.729 32.3438 152C32.3438 151.271 32.6042 150.646 33.125 150.125C33.6458 149.604 34.2708 149.344 35 149.344C35.7292 149.344 36.3542 149.604 36.875 150.125C37.3958 150.646 37.6562 151.271 37.6562 152C37.6562 152.729 37.3958 153.354 36.875 153.875C36.3542 154.396 35.7292 154.656 35 154.656C34.2708 154.656 33.6458 154.396 33.125 153.875Z" fill="black"/>
<line y1="-0.5" x2="289.055" y2="-0.5" transform="matrix(0.999998 0.00177412 -0.00209495 0.999998 34.5601 112)" stroke="black"/>
<path d="M38.3271 97.4545V98.3068H34.9351V97.4545H38.3271ZM35.9237 95.8864H36.9294V102.125C36.9294 102.409 36.9706 102.622 37.053 102.764C37.1382 102.903 37.2461 102.997 37.3768 103.045C37.5103 103.091 37.651 103.114 37.7987 103.114C37.9095 103.114 38.0004 103.108 38.0714 103.097C38.1424 103.082 38.1993 103.071 38.2419 103.062L38.4464 103.966C38.3782 103.991 38.2831 104.017 38.1609 104.043C38.0388 104.071 37.8839 104.085 37.6964 104.085C37.4123 104.085 37.1339 104.024 36.8612 103.902C36.5913 103.78 36.3669 103.594 36.1879 103.344C36.0118 103.094 35.9237 102.778 35.9237 102.398V95.8864ZM39.8399 104V97.4545H40.8456V104H39.8399ZM40.3513 96.3636C40.1552 96.3636 39.9862 96.2969 39.8441 96.1634C39.7049 96.0298 39.6353 95.8693 39.6353 95.6818C39.6353 95.4943 39.7049 95.3338 39.8441 95.2003C39.9862 95.0668 40.1552 95 40.3513 95C40.5473 95 40.7149 95.0668 40.8541 95.2003C40.9961 95.3338 41.0672 95.4943 41.0672 95.6818C41.0672 95.8693 40.9961 96.0298 40.8541 96.1634C40.7149 96.2969 40.5473 96.3636 40.3513 96.3636ZM45.5341 97.4545V98.3068H42.1421V97.4545H45.5341ZM43.1307 95.8864H44.1364V102.125C44.1364 102.409 44.1776 102.622 44.26 102.764C44.3452 102.903 44.4532 102.997 44.5839 103.045C44.7174 103.091 44.858 103.114 45.0057 103.114C45.1165 103.114 45.2074 103.108 45.2785 103.097C45.3495 103.082 45.4063 103.071 45.4489 103.062L45.6535 103.966C45.5853 103.991 45.4901 104.017 45.3679 104.043C45.2458 104.071 45.091 104.085 44.9035 104.085C44.6194 104.085 44.341 104.024 44.0682 103.902C43.7983 103.78 43.5739 103.594 43.3949 103.344C43.2188 103.094 43.1307 102.778 43.1307 102.398V95.8864ZM49.6357 104.136C49.0448 104.136 48.5263 103.996 48.0803 103.714C47.6371 103.433 47.2905 103.04 47.0405 102.534C46.7934 102.028 46.6698 101.437 46.6698 100.761C46.6698 100.08 46.7934 99.4844 47.0405 98.9759C47.2905 98.4673 47.6371 98.0724 48.0803 97.7912C48.5263 97.5099 49.0448 97.3693 49.6357 97.3693C50.2266 97.3693 50.7437 97.5099 51.1868 97.7912C51.6329 98.0724 51.9794 98.4673 52.2266 98.9759C52.4766 99.4844 52.6016 100.08 52.6016 100.761C52.6016 101.437 52.4766 102.028 52.2266 102.534C51.9794 103.04 51.6329 103.433 51.1868 103.714C50.7437 103.996 50.2266 104.136 49.6357 104.136ZM49.6357 103.233C50.0846 103.233 50.4539 103.118 50.7437 102.888C51.0334 102.658 51.2479 102.355 51.3871 101.98C51.5263 101.605 51.5959 101.199 51.5959 100.761C51.5959 100.324 51.5263 99.9162 51.3871 99.5384C51.2479 99.1605 51.0334 98.8551 50.7437 98.6222C50.4539 98.3892 50.0846 98.2727 49.6357 98.2727C49.1868 98.2727 48.8175 98.3892 48.5277 98.6222C48.238 98.8551 48.0235 99.1605 47.8843 99.5384C47.7451 99.9162 47.6755 100.324 47.6755 100.761C47.6755 101.199 47.7451 101.605 47.8843 101.98C48.0235 102.355 48.238 102.658 48.5277 102.888C48.8175 103.118 49.1868 103.233 49.6357 103.233ZM55.1424 95.2727V104H54.1368V95.2727H55.1424ZM59.6435 104.136C59.0526 104.136 58.5341 103.996 58.0881 103.714C57.6449 103.433 57.2983 103.04 57.0483 102.534C56.8012 102.028 56.6776 101.437 56.6776 100.761C56.6776 100.08 56.8012 99.4844 57.0483 98.9759C57.2983 98.4673 57.6449 98.0724 58.0881 97.7912C58.5341 97.5099 59.0526 97.3693 59.6435 97.3693C60.2344 97.3693 60.7515 97.5099 61.1946 97.7912C61.6407 98.0724 61.9873 98.4673 62.2344 98.9759C62.4844 99.4844 62.6094 100.08 62.6094 100.761C62.6094 101.437 62.4844 102.028 62.2344 102.534C61.9873 103.04 61.6407 103.433 61.1946 103.714C60.7515 103.996 60.2344 104.136 59.6435 104.136ZM59.6435 103.233C60.0924 103.233 60.4617 103.118 60.7515 102.888C61.0412 102.658 61.2557 102.355 61.3949 101.98C61.5341 101.605 61.6037 101.199 61.6037 100.761C61.6037 100.324 61.5341 99.9162 61.3949 99.5384C61.2557 99.1605 61.0412 98.8551 60.7515 98.6222C60.4617 98.3892 60.0924 98.2727 59.6435 98.2727C59.1946 98.2727 58.8253 98.3892 58.5356 98.6222C58.2458 98.8551 58.0313 99.1605 57.8921 99.5384C57.7529 99.9162 57.6833 100.324 57.6833 100.761C57.6833 101.199 57.7529 101.605 57.8921 101.98C58.0313 102.355 58.2458 102.658 58.5356 102.888C58.8253 103.118 59.1946 103.233 59.6435 103.233Z" fill="#D9D9D9"/>
<rect x="15.5" y="76.5" width="325" height="49" rx="9.5" stroke="black"/>
<path d="M128.315 23.4545V38H125.659L119.331 28.8452H119.224V38H116.149V23.4545H118.848L125.126 32.6023H125.254V23.4545H128.315ZM137.795 33.3551V27.0909H140.82V38H137.916V36.0185H137.802C137.556 36.6577 137.146 37.1714 136.573 37.5597C136.005 37.9479 135.311 38.142 134.492 38.142C133.763 38.142 133.122 37.9763 132.568 37.6449C132.014 37.3134 131.58 36.8423 131.268 36.2315C130.96 35.6207 130.804 34.8892 130.799 34.0369V27.0909H133.825V33.4972C133.829 34.1411 134.002 34.6501 134.343 35.0241C134.684 35.3982 135.141 35.5852 135.714 35.5852C136.079 35.5852 136.419 35.5024 136.737 35.3366C137.054 35.1662 137.31 34.9152 137.504 34.5838C137.703 34.2524 137.8 33.8428 137.795 33.3551ZM148.17 38.2131C147.066 38.2131 146.112 37.9787 145.307 37.5099C144.507 37.0365 143.889 36.3783 143.454 35.5355C143.018 34.688 142.8 33.7055 142.8 32.5881C142.8 31.4612 143.018 30.4763 143.454 29.6335C143.889 28.786 144.507 28.1278 145.307 27.6591C146.112 27.1856 147.066 26.9489 148.17 26.9489C149.273 26.9489 150.224 27.1856 151.025 27.6591C151.83 28.1278 152.45 28.786 152.885 29.6335C153.321 30.4763 153.539 31.4612 153.539 32.5881C153.539 33.7055 153.321 34.688 152.885 35.5355C152.45 36.3783 151.83 37.0365 151.025 37.5099C150.224 37.9787 149.273 38.2131 148.17 38.2131ZM148.184 35.8693C148.686 35.8693 149.105 35.7273 149.441 35.4432C149.777 35.1544 150.03 34.7614 150.201 34.2642C150.376 33.767 150.464 33.2012 150.464 32.5668C150.464 31.9323 150.376 31.3665 150.201 30.8693C150.03 30.3722 149.777 29.9792 149.441 29.6903C149.105 29.4015 148.686 29.2571 148.184 29.2571C147.677 29.2571 147.251 29.4015 146.905 29.6903C146.564 29.9792 146.306 30.3722 146.131 30.8693C145.961 31.3665 145.876 31.9323 145.876 32.5668C145.876 33.2012 145.961 33.767 146.131 34.2642C146.306 34.7614 146.564 35.1544 146.905 35.4432C147.251 35.7273 147.677 35.8693 148.184 35.8693ZM165.325 27.0909L161.511 38H158.102L154.288 27.0909H157.484L159.75 34.8963H159.863L162.122 27.0909H165.325ZM169.691 38.206C168.995 38.206 168.375 38.0852 167.83 37.8438C167.286 37.5975 166.855 37.2353 166.538 36.7571C166.225 36.2741 166.069 35.6728 166.069 34.9531C166.069 34.3471 166.18 33.8381 166.403 33.4261C166.625 33.0142 166.928 32.6828 167.312 32.4318C167.695 32.1809 168.131 31.9915 168.619 31.8636C169.111 31.7358 169.627 31.6458 170.167 31.5938C170.802 31.5275 171.313 31.4659 171.701 31.4091C172.089 31.3475 172.371 31.2576 172.546 31.1392C172.722 31.0208 172.809 30.8456 172.809 30.6136V30.571C172.809 30.1212 172.667 29.7732 172.383 29.527C172.104 29.2808 171.706 29.1577 171.19 29.1577C170.645 29.1577 170.212 29.2784 169.89 29.5199C169.568 29.7566 169.355 30.0549 169.251 30.4148L166.453 30.1875C166.595 29.5246 166.874 28.9517 167.291 28.4688C167.707 27.9811 168.245 27.607 168.903 27.3466C169.566 27.0814 170.333 26.9489 171.204 26.9489C171.81 26.9489 172.39 27.0199 172.944 27.1619C173.503 27.304 173.998 27.5241 174.428 27.8224C174.864 28.1207 175.207 28.5043 175.458 28.973C175.709 29.437 175.835 29.9934 175.835 30.642V38H172.965V36.4872H172.88C172.705 36.8281 172.471 37.1288 172.177 37.3892C171.883 37.6449 171.531 37.8461 171.119 37.9929C170.707 38.1349 170.231 38.206 169.691 38.206ZM170.558 36.1179C171.003 36.1179 171.396 36.0303 171.737 35.8551C172.078 35.6752 172.345 35.4337 172.539 35.1307C172.733 34.8277 172.83 34.4844 172.83 34.1009V32.9432C172.736 33.0047 172.606 33.0616 172.44 33.1136C172.279 33.161 172.097 33.206 171.893 33.2486C171.689 33.2865 171.486 33.322 171.282 33.3551C171.079 33.3835 170.894 33.4096 170.728 33.4332C170.373 33.4853 170.063 33.5682 169.798 33.6818C169.533 33.7955 169.327 33.9493 169.18 34.1435C169.033 34.3329 168.96 34.5696 168.96 34.8537C168.96 35.2656 169.109 35.5805 169.407 35.7983C169.71 36.0114 170.094 36.1179 170.558 36.1179ZM187.74 38.2131C186.622 38.2131 185.661 37.9763 184.856 37.5028C184.056 37.0246 183.441 36.3617 183.01 35.5142C182.584 34.6667 182.371 33.6913 182.371 32.5881C182.371 31.4706 182.586 30.4905 183.017 29.6477C183.452 28.8002 184.07 28.1397 184.871 27.6662C185.671 27.188 186.622 26.9489 187.726 26.9489C188.677 26.9489 189.511 27.1217 190.226 27.4673C190.941 27.813 191.506 28.2983 191.923 28.9233C192.34 29.5483 192.569 30.2822 192.612 31.125H189.757C189.676 30.5805 189.463 30.1425 189.118 29.8111C188.777 29.4749 188.329 29.3068 187.775 29.3068C187.307 29.3068 186.897 29.4347 186.547 29.6903C186.201 29.9413 185.931 30.3082 185.737 30.7912C185.543 31.2741 185.446 31.8589 185.446 32.5455C185.446 33.2415 185.541 33.8333 185.73 34.321C185.924 34.8087 186.196 35.1804 186.547 35.4361C186.897 35.6918 187.307 35.8196 187.775 35.8196C188.121 35.8196 188.431 35.7486 188.706 35.6065C188.985 35.4645 189.215 35.2585 189.395 34.9886C189.579 34.714 189.7 34.3849 189.757 34.0014H192.612C192.565 34.8348 192.337 35.5687 191.93 36.2031C191.528 36.8329 190.971 37.3253 190.261 37.6804C189.551 38.0355 188.711 38.2131 187.74 38.2131ZM197.66 38.206C196.964 38.206 196.344 38.0852 195.799 37.8438C195.255 37.5975 194.824 37.2353 194.507 36.7571C194.194 36.2741 194.038 35.6728 194.038 34.9531C194.038 34.3471 194.149 33.8381 194.372 33.4261C194.594 33.0142 194.897 32.6828 195.281 32.4318C195.664 32.1809 196.1 31.9915 196.588 31.8636C197.08 31.7358 197.596 31.6458 198.136 31.5938C198.77 31.5275 199.282 31.4659 199.67 31.4091C200.058 31.3475 200.34 31.2576 200.515 31.1392C200.69 31.0208 200.778 30.8456 200.778 30.6136V30.571C200.778 30.1212 200.636 29.7732 200.352 29.527C200.072 29.2808 199.675 29.1577 199.159 29.1577C198.614 29.1577 198.181 29.2784 197.859 29.5199C197.537 29.7566 197.324 30.0549 197.22 30.4148L194.421 30.1875C194.563 29.5246 194.843 28.9517 195.259 28.4688C195.676 27.9811 196.213 27.607 196.872 27.3466C197.535 27.0814 198.302 26.9489 199.173 26.9489C199.779 26.9489 200.359 27.0199 200.913 27.1619C201.472 27.304 201.966 27.5241 202.397 27.8224C202.833 28.1207 203.176 28.5043 203.427 28.973C203.678 29.437 203.803 29.9934 203.803 30.642V38H200.934V36.4872H200.849C200.674 36.8281 200.439 37.1288 200.146 37.3892C199.852 37.6449 199.499 37.8461 199.088 37.9929C198.676 38.1349 198.2 38.206 197.66 38.206ZM198.526 36.1179C198.972 36.1179 199.365 36.0303 199.705 35.8551C200.046 35.6752 200.314 35.4337 200.508 35.1307C200.702 34.8277 200.799 34.4844 200.799 34.1009V32.9432C200.704 33.0047 200.574 33.0616 200.409 33.1136C200.248 33.161 200.065 33.206 199.862 33.2486C199.658 33.2865 199.454 33.322 199.251 33.3551C199.047 33.3835 198.863 33.4096 198.697 33.4332C198.342 33.4853 198.032 33.5682 197.767 33.6818C197.501 33.7955 197.295 33.9493 197.149 34.1435C197.002 34.3329 196.928 34.5696 196.928 34.8537C196.928 35.2656 197.078 35.5805 197.376 35.7983C197.679 36.0114 198.062 36.1179 198.526 36.1179ZM211.08 38.2131C209.962 38.2131 209.001 37.9763 208.196 37.5028C207.396 37.0246 206.78 36.3617 206.35 35.5142C205.923 34.6667 205.71 33.6913 205.71 32.5881C205.71 31.4706 205.926 30.4905 206.357 29.6477C206.792 28.8002 207.41 28.1397 208.21 27.6662C209.011 27.188 209.962 26.9489 211.066 26.9489C212.017 26.9489 212.851 27.1217 213.566 27.4673C214.28 27.813 214.846 28.2983 215.263 28.9233C215.68 29.5483 215.909 30.2822 215.952 31.125H213.097C213.016 30.5805 212.803 30.1425 212.458 29.8111C212.117 29.4749 211.669 29.3068 211.115 29.3068C210.646 29.3068 210.237 29.4347 209.887 29.6903C209.541 29.9413 209.271 30.3082 209.077 30.7912C208.883 31.2741 208.786 31.8589 208.786 32.5455C208.786 33.2415 208.88 33.8333 209.07 34.321C209.264 34.8087 209.536 35.1804 209.887 35.4361C210.237 35.6918 210.646 35.8196 211.115 35.8196C211.461 35.8196 211.771 35.7486 212.046 35.6065C212.325 35.4645 212.555 35.2585 212.735 34.9886C212.919 34.714 213.04 34.3849 213.097 34.0014H215.952C215.905 34.8348 215.677 35.5687 215.27 36.2031C214.868 36.8329 214.311 37.3253 213.601 37.6804C212.891 38.0355 212.05 38.2131 211.08 38.2131ZM220.915 31.6932V38H217.889V23.4545H220.829V29.0156H220.957C221.203 28.3717 221.601 27.8674 222.15 27.5028C222.7 27.1335 223.389 26.9489 224.217 26.9489C224.975 26.9489 225.635 27.1146 226.199 27.446C226.767 27.7727 227.207 28.2438 227.52 28.8594C227.837 29.4702 227.993 30.2017 227.988 31.054V38H224.963V31.5938C224.968 30.9214 224.797 30.3982 224.452 30.0241C224.111 29.6501 223.632 29.4631 223.017 29.4631C222.605 29.4631 222.24 29.5507 221.923 29.7259C221.611 29.901 221.364 30.1567 221.184 30.4929C221.009 30.8243 220.919 31.2244 220.915 31.6932ZM235.341 38.2131C234.219 38.2131 233.253 37.9858 232.443 37.5312C231.638 37.072 231.018 36.4233 230.583 35.5852C230.147 34.7424 229.929 33.7457 229.929 32.5952C229.929 31.473 230.147 30.4882 230.583 29.6406C231.018 28.7931 231.631 28.1326 232.422 27.6591C233.218 27.1856 234.15 26.9489 235.22 26.9489C235.94 26.9489 236.61 27.0649 237.23 27.2969C237.855 27.5241 238.4 27.8674 238.864 28.3267C239.333 28.786 239.697 29.3636 239.958 30.0597C240.218 30.7509 240.348 31.5606 240.348 32.4886V33.3196H231.137V31.4446H237.5C237.5 31.009 237.405 30.6231 237.216 30.2869C237.027 29.9508 236.764 29.688 236.428 29.4986C236.096 29.3045 235.71 29.2074 235.27 29.2074C234.811 29.2074 234.404 29.3139 234.048 29.527C233.698 29.7353 233.423 30.017 233.225 30.3722C233.026 30.7225 232.924 31.1132 232.919 31.544V33.3267C232.919 33.8665 233.019 34.3329 233.218 34.7259C233.421 35.1188 233.708 35.4219 234.077 35.6349C234.446 35.848 234.884 35.9545 235.391 35.9545C235.727 35.9545 236.035 35.9072 236.314 35.8125C236.593 35.7178 236.833 35.5758 237.031 35.3864C237.23 35.197 237.382 34.965 237.486 34.6903L240.284 34.875C240.142 35.5473 239.851 36.1345 239.411 36.6364C238.975 37.1335 238.412 37.5218 237.72 37.8011C237.034 38.0758 236.241 38.2131 235.341 38.2131Z" fill="black"/>
</svg>
