<svg width="360" height="800" viewBox="0 0 360 800" fill="none" xmlns="http://www.w3.org/2000/svg">
<rect width="360" height="800" fill="white"/>
<path d="M33 304H333" stroke="black"/>
<path d="M317.18 286.5V284.82H318.82V286.5H317.18ZM313.273 293.727C314.602 295.029 316.177 295.68 318 295.68C319.823 295.68 321.385 295.029 322.688 293.727C324.016 292.398 324.68 290.823 324.68 289C324.68 287.177 324.016 285.615 322.688 284.312C321.385 282.984 319.823 282.32 318 282.32C316.177 282.32 314.602 282.984 313.273 284.312C311.971 285.615 311.32 287.177 311.32 289C311.32 290.823 311.971 292.398 313.273 293.727ZM312.102 283.141C313.742 281.5 315.708 280.68 318 280.68C320.292 280.68 322.245 281.5 323.859 283.141C325.5 284.755 326.32 286.708 326.32 289C326.32 291.292 325.5 293.258 323.859 294.898C322.245 296.513 320.292 297.32 318 297.32C315.708 297.32 313.742 296.513 312.102 294.898C310.487 293.258 309.68 291.292 309.68 289C309.68 286.708 310.487 284.755 312.102 283.141ZM317.18 293.18V288.18H318.82V293.18H317.18Z" fill="black"/>
<path d="M32.9659 277.017V275.455H43.875V277.017H39.3011V290H37.5398V277.017H32.9659ZM46.3661 290V279.091H48.0423V290H46.3661ZM47.2184 277.273C46.8917 277.273 46.61 277.161 46.3732 276.939C46.1412 276.716 46.0252 276.449 46.0252 276.136C46.0252 275.824 46.1412 275.556 46.3732 275.334C46.61 275.111 46.8917 275 47.2184 275C47.5451 275 47.8245 275.111 48.0565 275.334C48.2932 275.556 48.4116 275.824 48.4116 276.136C48.4116 276.449 48.2932 276.716 48.0565 276.939C47.8245 277.161 47.5451 277.273 47.2184 277.273ZM55.8565 279.091V280.511H50.2031V279.091H55.8565ZM51.8509 276.477H53.527V286.875C53.527 287.348 53.5956 287.704 53.733 287.94C53.875 288.172 54.0549 288.329 54.2727 288.409C54.4953 288.485 54.7296 288.523 54.9759 288.523C55.1605 288.523 55.312 288.513 55.4304 288.494C55.5488 288.471 55.6435 288.452 55.7145 288.438L56.0554 289.943C55.9418 289.986 55.7831 290.028 55.5795 290.071C55.3759 290.118 55.1179 290.142 54.8054 290.142C54.3319 290.142 53.8679 290.04 53.4134 289.837C52.9635 289.633 52.5895 289.323 52.2912 288.906C51.9976 288.49 51.8509 287.964 51.8509 287.33V276.477ZM62.6925 290.227C61.7076 290.227 60.8435 289.993 60.1001 289.524C59.3615 289.055 58.7839 288.4 58.3672 287.557C57.9553 286.714 57.7493 285.729 57.7493 284.602C57.7493 283.466 57.9553 282.474 58.3672 281.626C58.7839 280.779 59.3615 280.121 60.1001 279.652C60.8435 279.183 61.7076 278.949 62.6925 278.949C63.6773 278.949 64.5391 279.183 65.2777 279.652C66.0211 280.121 66.5987 280.779 67.0107 281.626C67.4273 282.474 67.6357 283.466 67.6357 284.602C67.6357 285.729 67.4273 286.714 67.0107 287.557C66.5987 288.4 66.0211 289.055 65.2777 289.524C64.5391 289.993 63.6773 290.227 62.6925 290.227ZM62.6925 288.722C63.4406 288.722 64.0561 288.53 64.5391 288.146C65.022 287.763 65.3795 287.259 65.6115 286.634C65.8435 286.009 65.9595 285.331 65.9595 284.602C65.9595 283.873 65.8435 283.194 65.6115 282.564C65.3795 281.934 65.022 281.425 64.5391 281.037C64.0561 280.649 63.4406 280.455 62.6925 280.455C61.9444 280.455 61.3288 280.649 60.8459 281.037C60.3629 281.425 60.0054 281.934 59.7734 282.564C59.5414 283.194 59.4254 283.873 59.4254 284.602C59.4254 285.331 59.5414 286.009 59.7734 286.634C60.0054 287.259 60.3629 287.763 60.8459 288.146C61.3288 288.53 61.9444 288.722 62.6925 288.722ZM71.8704 275.455V290H70.1942V275.455H71.8704ZM79.3722 290.227C78.3873 290.227 77.5232 289.993 76.7798 289.524C76.0412 289.055 75.4635 288.4 75.0469 287.557C74.6349 286.714 74.429 285.729 74.429 284.602C74.429 283.466 74.6349 282.474 75.0469 281.626C75.4635 280.779 76.0412 280.121 76.7798 279.652C77.5232 279.183 78.3873 278.949 79.3722 278.949C80.357 278.949 81.2188 279.183 81.9574 279.652C82.7008 280.121 83.2784 280.779 83.6903 281.626C84.107 282.474 84.3153 283.466 84.3153 284.602C84.3153 285.729 84.107 286.714 83.6903 287.557C83.2784 288.4 82.7008 289.055 81.9574 289.524C81.2188 289.993 80.357 290.227 79.3722 290.227ZM79.3722 288.722C80.1203 288.722 80.7358 288.53 81.2188 288.146C81.7017 287.763 82.0592 287.259 82.2912 286.634C82.5232 286.009 82.6392 285.331 82.6392 284.602C82.6392 283.873 82.5232 283.194 82.2912 282.564C82.0592 281.934 81.7017 281.425 81.2188 281.037C80.7358 280.649 80.1203 280.455 79.3722 280.455C78.6241 280.455 78.0085 280.649 77.5256 281.037C77.0426 281.425 76.6851 281.934 76.4531 282.564C76.2211 283.194 76.1051 283.873 76.1051 284.602C76.1051 285.331 76.2211 286.009 76.4531 286.634C76.6851 287.259 77.0426 287.763 77.5256 288.146C78.0085 288.53 78.6241 288.722 79.3722 288.722ZM104.431 280H102.669C102.565 279.493 102.383 279.048 102.123 278.665C101.867 278.281 101.554 277.959 101.185 277.699C100.82 277.434 100.416 277.235 99.9705 277.102C99.5255 276.97 99.0614 276.903 98.5785 276.903C97.6978 276.903 96.9 277.126 96.185 277.571C95.4748 278.016 94.909 278.672 94.4876 279.538C94.0709 280.405 93.8626 281.468 93.8626 282.727C93.8626 283.987 94.0709 285.05 94.4876 285.916C94.909 286.783 95.4748 287.438 96.185 287.884C96.9 288.329 97.6978 288.551 98.5785 288.551C99.0614 288.551 99.5255 288.485 99.9705 288.352C100.416 288.22 100.82 288.023 101.185 287.763C101.554 287.498 101.867 287.173 102.123 286.79C102.383 286.402 102.565 285.956 102.669 285.455H104.431C104.298 286.198 104.057 286.863 103.706 287.45C103.356 288.037 102.92 288.537 102.4 288.949C101.879 289.356 101.294 289.666 100.645 289.879C100.001 290.092 99.3124 290.199 98.5785 290.199C97.338 290.199 96.2347 289.896 95.2688 289.29C94.3029 288.684 93.543 287.822 92.989 286.705C92.435 285.587 92.158 284.261 92.158 282.727C92.158 281.193 92.435 279.867 92.989 278.75C93.543 277.633 94.3029 276.771 95.2688 276.165C96.2347 275.559 97.338 275.256 98.5785 275.256C99.3124 275.256 100.001 275.362 100.645 275.575C101.294 275.788 101.879 276.101 102.4 276.513C102.92 276.92 103.356 277.417 103.706 278.004C104.057 278.587 104.298 279.252 104.431 280ZM110.26 290.256C109.569 290.256 108.941 290.125 108.378 289.865C107.814 289.6 107.367 289.219 107.036 288.722C106.704 288.22 106.538 287.614 106.538 286.903C106.538 286.278 106.661 285.772 106.908 285.384C107.154 284.991 107.483 284.683 107.895 284.46C108.307 284.238 108.761 284.072 109.259 283.963C109.76 283.849 110.265 283.759 110.771 283.693C111.434 283.608 111.972 283.544 112.384 283.501C112.8 283.454 113.103 283.376 113.293 283.267C113.487 283.158 113.584 282.969 113.584 282.699V282.642C113.584 281.941 113.392 281.397 113.009 281.009C112.63 280.62 112.054 280.426 111.283 280.426C110.482 280.426 109.855 280.601 109.401 280.952C108.946 281.302 108.626 281.676 108.442 282.074L106.851 281.506C107.135 280.843 107.514 280.327 107.987 279.957C108.465 279.583 108.986 279.323 109.55 279.176C110.118 279.025 110.677 278.949 111.226 278.949C111.576 278.949 111.979 278.991 112.433 279.077C112.893 279.157 113.335 279.325 113.761 279.581C114.192 279.837 114.55 280.223 114.834 280.739C115.118 281.255 115.26 281.946 115.26 282.812V290H113.584V288.523H113.499C113.385 288.759 113.196 289.013 112.93 289.283C112.665 289.553 112.313 289.782 111.872 289.972C111.432 290.161 110.894 290.256 110.26 290.256ZM110.516 288.75C111.179 288.75 111.737 288.62 112.192 288.359C112.651 288.099 112.997 287.763 113.229 287.351C113.465 286.939 113.584 286.506 113.584 286.051V284.517C113.513 284.602 113.357 284.68 113.115 284.751C112.878 284.818 112.604 284.877 112.291 284.929C111.983 284.976 111.683 285.019 111.389 285.057C111.1 285.09 110.866 285.118 110.686 285.142C110.25 285.199 109.843 285.291 109.464 285.419C109.09 285.542 108.787 285.729 108.555 285.98C108.328 286.226 108.214 286.562 108.214 286.989C108.214 287.571 108.43 288.011 108.861 288.31C109.296 288.603 109.848 288.75 110.516 288.75ZM122.751 290.227C121.728 290.227 120.848 289.986 120.109 289.503C119.37 289.02 118.802 288.355 118.404 287.507C118.007 286.66 117.808 285.691 117.808 284.602C117.808 283.494 118.011 282.517 118.419 281.669C118.831 280.817 119.404 280.152 120.137 279.673C120.876 279.19 121.738 278.949 122.723 278.949C123.49 278.949 124.181 279.091 124.797 279.375C125.412 279.659 125.916 280.057 126.309 280.568C126.702 281.08 126.946 281.676 127.041 282.358H125.365C125.237 281.861 124.953 281.42 124.512 281.037C124.077 280.649 123.49 280.455 122.751 280.455C122.098 280.455 121.525 280.625 121.032 280.966C120.545 281.302 120.163 281.778 119.889 282.393C119.619 283.004 119.484 283.722 119.484 284.545C119.484 285.388 119.617 286.122 119.882 286.747C120.152 287.372 120.53 287.857 121.018 288.203C121.511 288.549 122.088 288.722 122.751 288.722C123.187 288.722 123.582 288.646 123.937 288.494C124.292 288.343 124.593 288.125 124.839 287.841C125.085 287.557 125.261 287.216 125.365 286.818H127.041C126.946 287.462 126.712 288.042 126.338 288.558C125.968 289.07 125.478 289.477 124.868 289.78C124.261 290.078 123.556 290.227 122.751 290.227ZM131.167 283.438V290H129.491V275.455H131.167V280.795H131.309C131.565 280.232 131.949 279.785 132.46 279.453C132.976 279.117 133.663 278.949 134.52 278.949C135.263 278.949 135.914 279.098 136.473 279.396C137.031 279.69 137.465 280.142 137.772 280.753C138.085 281.359 138.241 282.131 138.241 283.068V290H136.565V283.182C136.565 282.315 136.34 281.645 135.89 281.172C135.445 280.694 134.827 280.455 134.037 280.455C133.487 280.455 132.995 280.571 132.559 280.803C132.128 281.035 131.788 281.373 131.537 281.818C131.29 282.263 131.167 282.803 131.167 283.438ZM145.881 290.227C144.83 290.227 143.924 289.995 143.161 289.531C142.404 289.062 141.819 288.409 141.407 287.571C141 286.728 140.796 285.748 140.796 284.631C140.796 283.513 141 282.528 141.407 281.676C141.819 280.819 142.392 280.152 143.126 279.673C143.864 279.19 144.726 278.949 145.711 278.949C146.279 278.949 146.84 279.044 147.394 279.233C147.948 279.422 148.452 279.73 148.907 280.156C149.362 280.578 149.724 281.136 149.994 281.832C150.263 282.528 150.398 283.385 150.398 284.403V285.114H141.989V283.665H148.694C148.694 283.049 148.571 282.5 148.325 282.017C148.083 281.534 147.737 281.153 147.288 280.874C146.843 280.594 146.317 280.455 145.711 280.455C145.043 280.455 144.466 280.62 143.978 280.952C143.495 281.278 143.123 281.705 142.863 282.23C142.603 282.756 142.472 283.319 142.472 283.92V284.886C142.472 285.71 142.614 286.409 142.898 286.982C143.187 287.55 143.587 287.983 144.099 288.281C144.61 288.575 145.204 288.722 145.881 288.722C146.322 288.722 146.719 288.66 147.075 288.537C147.434 288.409 147.745 288.22 148.005 287.969C148.265 287.713 148.467 287.396 148.609 287.017L150.228 287.472C150.058 288.021 149.771 288.504 149.369 288.92C148.966 289.332 148.469 289.654 147.877 289.886C147.285 290.114 146.62 290.227 145.881 290.227ZM158.204 287.017V285.568L164.596 275.455H165.647V277.699H164.937L160.107 285.341V285.455H168.715V287.017H158.204ZM165.05 290V286.577V285.902V275.455H166.727V290H165.05Z" fill="black"/>
<path d="M33 240H333" stroke="black"/>
<path d="M317.18 222.5V220.82H318.82V222.5H317.18ZM313.273 229.727C314.602 231.029 316.177 231.68 318 231.68C319.823 231.68 321.385 231.029 322.688 229.727C324.016 228.398 324.68 226.823 324.68 225C324.68 223.177 324.016 221.615 322.688 220.312C321.385 218.984 319.823 218.32 318 218.32C316.177 218.32 314.602 218.984 313.273 220.312C311.971 221.615 311.32 223.177 311.32 225C311.32 226.823 311.971 228.398 313.273 229.727ZM312.102 219.141C313.742 217.5 315.708 216.68 318 216.68C320.292 216.68 322.245 217.5 323.859 219.141C325.5 220.755 326.32 222.708 326.32 225C326.32 227.292 325.5 229.258 323.859 230.898C322.245 232.513 320.292 233.32 318 233.32C315.708 233.32 313.742 232.513 312.102 230.898C310.487 229.258 309.68 227.292 309.68 225C309.68 222.708 310.487 220.755 312.102 219.141ZM317.18 229.18V224.18H318.82V229.18H317.18Z" fill="black"/>
<path d="M32.9659 213.017V211.455H43.875V213.017H39.3011V226H37.5398V213.017H32.9659ZM46.3661 226V215.091H48.0423V226H46.3661ZM47.2184 213.273C46.8917 213.273 46.61 213.161 46.3732 212.939C46.1412 212.716 46.0252 212.449 46.0252 212.136C46.0252 211.824 46.1412 211.556 46.3732 211.334C46.61 211.111 46.8917 211 47.2184 211C47.5451 211 47.8245 211.111 48.0565 211.334C48.2932 211.556 48.4116 211.824 48.4116 212.136C48.4116 212.449 48.2932 212.716 48.0565 212.939C47.8245 213.161 47.5451 213.273 47.2184 213.273ZM55.8565 215.091V216.511H50.2031V215.091H55.8565ZM51.8509 212.477H53.527V222.875C53.527 223.348 53.5956 223.704 53.733 223.94C53.875 224.172 54.0549 224.329 54.2727 224.409C54.4953 224.485 54.7296 224.523 54.9759 224.523C55.1605 224.523 55.312 224.513 55.4304 224.494C55.5488 224.471 55.6435 224.452 55.7145 224.438L56.0554 225.943C55.9418 225.986 55.7831 226.028 55.5795 226.071C55.3759 226.118 55.1179 226.142 54.8054 226.142C54.3319 226.142 53.8679 226.04 53.4134 225.837C52.9635 225.633 52.5895 225.323 52.2912 224.906C51.9976 224.49 51.8509 223.964 51.8509 223.33V212.477ZM62.6925 226.227C61.7076 226.227 60.8435 225.993 60.1001 225.524C59.3615 225.055 58.7839 224.4 58.3672 223.557C57.9553 222.714 57.7493 221.729 57.7493 220.602C57.7493 219.466 57.9553 218.474 58.3672 217.626C58.7839 216.779 59.3615 216.121 60.1001 215.652C60.8435 215.183 61.7076 214.949 62.6925 214.949C63.6773 214.949 64.5391 215.183 65.2777 215.652C66.0211 216.121 66.5987 216.779 67.0107 217.626C67.4273 218.474 67.6357 219.466 67.6357 220.602C67.6357 221.729 67.4273 222.714 67.0107 223.557C66.5987 224.4 66.0211 225.055 65.2777 225.524C64.5391 225.993 63.6773 226.227 62.6925 226.227ZM62.6925 224.722C63.4406 224.722 64.0561 224.53 64.5391 224.146C65.022 223.763 65.3795 223.259 65.6115 222.634C65.8435 222.009 65.9595 221.331 65.9595 220.602C65.9595 219.873 65.8435 219.194 65.6115 218.564C65.3795 217.934 65.022 217.425 64.5391 217.037C64.0561 216.649 63.4406 216.455 62.6925 216.455C61.9444 216.455 61.3288 216.649 60.8459 217.037C60.3629 217.425 60.0054 217.934 59.7734 218.564C59.5414 219.194 59.4254 219.873 59.4254 220.602C59.4254 221.331 59.5414 222.009 59.7734 222.634C60.0054 223.259 60.3629 223.763 60.8459 224.146C61.3288 224.53 61.9444 224.722 62.6925 224.722ZM71.8704 211.455V226H70.1942V211.455H71.8704ZM79.3722 226.227C78.3873 226.227 77.5232 225.993 76.7798 225.524C76.0412 225.055 75.4635 224.4 75.0469 223.557C74.6349 222.714 74.429 221.729 74.429 220.602C74.429 219.466 74.6349 218.474 75.0469 217.626C75.4635 216.779 76.0412 216.121 76.7798 215.652C77.5232 215.183 78.3873 214.949 79.3722 214.949C80.357 214.949 81.2188 215.183 81.9574 215.652C82.7008 216.121 83.2784 216.779 83.6903 217.626C84.107 218.474 84.3153 219.466 84.3153 220.602C84.3153 221.729 84.107 222.714 83.6903 223.557C83.2784 224.4 82.7008 225.055 81.9574 225.524C81.2188 225.993 80.357 226.227 79.3722 226.227ZM79.3722 224.722C80.1203 224.722 80.7358 224.53 81.2188 224.146C81.7017 223.763 82.0592 223.259 82.2912 222.634C82.5232 222.009 82.6392 221.331 82.6392 220.602C82.6392 219.873 82.5232 219.194 82.2912 218.564C82.0592 217.934 81.7017 217.425 81.2188 217.037C80.7358 216.649 80.1203 216.455 79.3722 216.455C78.6241 216.455 78.0085 216.649 77.5256 217.037C77.0426 217.425 76.6851 217.934 76.4531 218.564C76.2211 219.194 76.1051 219.873 76.1051 220.602C76.1051 221.331 76.2211 222.009 76.4531 222.634C76.6851 223.259 77.0426 223.763 77.5256 224.146C78.0085 224.53 78.6241 224.722 79.3722 224.722ZM104.431 216H102.669C102.565 215.493 102.383 215.048 102.123 214.665C101.867 214.281 101.554 213.959 101.185 213.699C100.82 213.434 100.416 213.235 99.9705 213.102C99.5255 212.97 99.0614 212.903 98.5785 212.903C97.6978 212.903 96.9 213.126 96.185 213.571C95.4748 214.016 94.909 214.672 94.4876 215.538C94.0709 216.405 93.8626 217.468 93.8626 218.727C93.8626 219.987 94.0709 221.05 94.4876 221.916C94.909 222.783 95.4748 223.438 96.185 223.884C96.9 224.329 97.6978 224.551 98.5785 224.551C99.0614 224.551 99.5255 224.485 99.9705 224.352C100.416 224.22 100.82 224.023 101.185 223.763C101.554 223.498 101.867 223.173 102.123 222.79C102.383 222.402 102.565 221.956 102.669 221.455H104.431C104.298 222.198 104.057 222.863 103.706 223.45C103.356 224.037 102.92 224.537 102.4 224.949C101.879 225.356 101.294 225.666 100.645 225.879C100.001 226.092 99.3124 226.199 98.5785 226.199C97.338 226.199 96.2347 225.896 95.2688 225.29C94.3029 224.684 93.543 223.822 92.989 222.705C92.435 221.587 92.158 220.261 92.158 218.727C92.158 217.193 92.435 215.867 92.989 214.75C93.543 213.633 94.3029 212.771 95.2688 212.165C96.2347 211.559 97.338 211.256 98.5785 211.256C99.3124 211.256 100.001 211.362 100.645 211.575C101.294 211.788 101.879 212.101 102.4 212.513C102.92 212.92 103.356 213.417 103.706 214.004C104.057 214.587 104.298 215.252 104.431 216ZM110.26 226.256C109.569 226.256 108.941 226.125 108.378 225.865C107.814 225.6 107.367 225.219 107.036 224.722C106.704 224.22 106.538 223.614 106.538 222.903C106.538 222.278 106.661 221.772 106.908 221.384C107.154 220.991 107.483 220.683 107.895 220.46C108.307 220.238 108.761 220.072 109.259 219.963C109.76 219.849 110.265 219.759 110.771 219.693C111.434 219.608 111.972 219.544 112.384 219.501C112.8 219.454 113.103 219.376 113.293 219.267C113.487 219.158 113.584 218.969 113.584 218.699V218.642C113.584 217.941 113.392 217.397 113.009 217.009C112.63 216.62 112.054 216.426 111.283 216.426C110.482 216.426 109.855 216.601 109.401 216.952C108.946 217.302 108.626 217.676 108.442 218.074L106.851 217.506C107.135 216.843 107.514 216.327 107.987 215.957C108.465 215.583 108.986 215.323 109.55 215.176C110.118 215.025 110.677 214.949 111.226 214.949C111.576 214.949 111.979 214.991 112.433 215.077C112.893 215.157 113.335 215.325 113.761 215.581C114.192 215.837 114.55 216.223 114.834 216.739C115.118 217.255 115.26 217.946 115.26 218.812V226H113.584V224.523H113.499C113.385 224.759 113.196 225.013 112.93 225.283C112.665 225.553 112.313 225.782 111.872 225.972C111.432 226.161 110.894 226.256 110.26 226.256ZM110.516 224.75C111.179 224.75 111.737 224.62 112.192 224.359C112.651 224.099 112.997 223.763 113.229 223.351C113.465 222.939 113.584 222.506 113.584 222.051V220.517C113.513 220.602 113.357 220.68 113.115 220.751C112.878 220.818 112.604 220.877 112.291 220.929C111.983 220.976 111.683 221.019 111.389 221.057C111.1 221.09 110.866 221.118 110.686 221.142C110.25 221.199 109.843 221.291 109.464 221.419C109.09 221.542 108.787 221.729 108.555 221.98C108.328 222.226 108.214 222.562 108.214 222.989C108.214 223.571 108.43 224.011 108.861 224.31C109.296 224.603 109.848 224.75 110.516 224.75ZM122.751 226.227C121.728 226.227 120.848 225.986 120.109 225.503C119.37 225.02 118.802 224.355 118.404 223.507C118.007 222.66 117.808 221.691 117.808 220.602C117.808 219.494 118.011 218.517 118.419 217.669C118.831 216.817 119.404 216.152 120.137 215.673C120.876 215.19 121.738 214.949 122.723 214.949C123.49 214.949 124.181 215.091 124.797 215.375C125.412 215.659 125.916 216.057 126.309 216.568C126.702 217.08 126.946 217.676 127.041 218.358H125.365C125.237 217.861 124.953 217.42 124.512 217.037C124.077 216.649 123.49 216.455 122.751 216.455C122.098 216.455 121.525 216.625 121.032 216.966C120.545 217.302 120.163 217.778 119.889 218.393C119.619 219.004 119.484 219.722 119.484 220.545C119.484 221.388 119.617 222.122 119.882 222.747C120.152 223.372 120.53 223.857 121.018 224.203C121.511 224.549 122.088 224.722 122.751 224.722C123.187 224.722 123.582 224.646 123.937 224.494C124.292 224.343 124.593 224.125 124.839 223.841C125.085 223.557 125.261 223.216 125.365 222.818H127.041C126.946 223.462 126.712 224.042 126.338 224.558C125.968 225.07 125.478 225.477 124.868 225.78C124.261 226.078 123.556 226.227 122.751 226.227ZM131.167 219.438V226H129.491V211.455H131.167V216.795H131.309C131.565 216.232 131.949 215.785 132.46 215.453C132.976 215.117 133.663 214.949 134.52 214.949C135.263 214.949 135.914 215.098 136.473 215.396C137.031 215.69 137.465 216.142 137.772 216.753C138.085 217.359 138.241 218.131 138.241 219.068V226H136.565V219.182C136.565 218.315 136.34 217.645 135.89 217.172C135.445 216.694 134.827 216.455 134.037 216.455C133.487 216.455 132.995 216.571 132.559 216.803C132.128 217.035 131.788 217.373 131.537 217.818C131.29 218.263 131.167 218.803 131.167 219.438ZM145.881 226.227C144.83 226.227 143.924 225.995 143.161 225.531C142.404 225.062 141.819 224.409 141.407 223.571C141 222.728 140.796 221.748 140.796 220.631C140.796 219.513 141 218.528 141.407 217.676C141.819 216.819 142.392 216.152 143.126 215.673C143.864 215.19 144.726 214.949 145.711 214.949C146.279 214.949 146.84 215.044 147.394 215.233C147.948 215.422 148.452 215.73 148.907 216.156C149.362 216.578 149.724 217.136 149.994 217.832C150.263 218.528 150.398 219.385 150.398 220.403V221.114H141.989V219.665H148.694C148.694 219.049 148.571 218.5 148.325 218.017C148.083 217.534 147.737 217.153 147.288 216.874C146.843 216.594 146.317 216.455 145.711 216.455C145.043 216.455 144.466 216.62 143.978 216.952C143.495 217.278 143.123 217.705 142.863 218.23C142.603 218.756 142.472 219.319 142.472 219.92V220.886C142.472 221.71 142.614 222.409 142.898 222.982C143.187 223.55 143.587 223.983 144.099 224.281C144.61 224.575 145.204 224.722 145.881 224.722C146.322 224.722 146.719 224.66 147.075 224.537C147.434 224.409 147.745 224.22 148.005 223.969C148.265 223.713 148.467 223.396 148.609 223.017L150.228 223.472C150.058 224.021 149.771 224.504 149.369 224.92C148.966 225.332 148.469 225.654 147.877 225.886C147.285 226.114 146.62 226.227 145.881 226.227ZM163.46 226.199C162.522 226.199 161.686 226.038 160.952 225.716C160.223 225.394 159.643 224.946 159.212 224.374C158.786 223.796 158.554 223.126 158.516 222.364H160.306C160.344 222.832 160.505 223.237 160.789 223.578C161.073 223.914 161.445 224.175 161.904 224.359C162.363 224.544 162.872 224.636 163.431 224.636C164.056 224.636 164.61 224.527 165.093 224.31C165.576 224.092 165.955 223.789 166.229 223.401C166.504 223.012 166.641 222.562 166.641 222.051C166.641 221.516 166.509 221.045 166.244 220.638C165.978 220.226 165.59 219.904 165.079 219.672C164.567 219.44 163.942 219.324 163.204 219.324H162.039V217.761H163.204C163.781 217.761 164.288 217.657 164.724 217.449C165.164 217.241 165.507 216.947 165.754 216.568C166.004 216.189 166.13 215.744 166.13 215.233C166.13 214.741 166.021 214.312 165.803 213.947C165.585 213.583 165.278 213.299 164.88 213.095C164.487 212.892 164.023 212.79 163.488 212.79C162.986 212.79 162.513 212.882 162.067 213.067C161.627 213.247 161.267 213.509 160.988 213.855C160.709 214.196 160.557 214.608 160.533 215.091H158.829C158.857 214.329 159.087 213.661 159.518 213.088C159.949 212.51 160.512 212.061 161.208 211.739C161.909 211.417 162.678 211.256 163.516 211.256C164.416 211.256 165.188 211.438 165.832 211.803C166.476 212.162 166.97 212.638 167.316 213.23C167.662 213.822 167.835 214.461 167.835 215.148C167.835 215.967 167.619 216.665 167.188 217.243C166.762 217.821 166.182 218.221 165.448 218.443V218.557C166.367 218.708 167.084 219.099 167.6 219.729C168.116 220.354 168.374 221.128 168.374 222.051C168.374 222.842 168.159 223.552 167.728 224.182C167.302 224.807 166.719 225.299 165.981 225.659C165.242 226.019 164.402 226.199 163.46 226.199Z" fill="black"/>
<path d="M34 176H334" stroke="black"/>
<path d="M318.18 158.5V156.82H319.82V158.5H318.18ZM314.273 165.727C315.602 167.029 317.177 167.68 319 167.68C320.823 167.68 322.385 167.029 323.688 165.727C325.016 164.398 325.68 162.823 325.68 161C325.68 159.177 325.016 157.615 323.688 156.312C322.385 154.984 320.823 154.32 319 154.32C317.177 154.32 315.602 154.984 314.273 156.312C312.971 157.615 312.32 159.177 312.32 161C312.32 162.823 312.971 164.398 314.273 165.727ZM313.102 155.141C314.742 153.5 316.708 152.68 319 152.68C321.292 152.68 323.245 153.5 324.859 155.141C326.5 156.755 327.32 158.708 327.32 161C327.32 163.292 326.5 165.258 324.859 166.898C323.245 168.513 321.292 169.32 319 169.32C316.708 169.32 314.742 168.513 313.102 166.898C311.487 165.258 310.68 163.292 310.68 161C310.68 158.708 311.487 156.755 313.102 155.141ZM318.18 165.18V160.18H319.82V165.18H318.18Z" fill="black"/>
<path d="M33.9659 149.017V147.455H44.875V149.017H40.3011V162H38.5398V149.017H33.9659ZM47.3661 162V151.091H49.0423V162H47.3661ZM48.2184 149.273C47.8917 149.273 47.61 149.161 47.3732 148.939C47.1412 148.716 47.0252 148.449 47.0252 148.136C47.0252 147.824 47.1412 147.556 47.3732 147.334C47.61 147.111 47.8917 147 48.2184 147C48.5451 147 48.8245 147.111 49.0565 147.334C49.2932 147.556 49.4116 147.824 49.4116 148.136C49.4116 148.449 49.2932 148.716 49.0565 148.939C48.8245 149.161 48.5451 149.273 48.2184 149.273ZM56.8565 151.091V152.511H51.2031V151.091H56.8565ZM52.8509 148.477H54.527V158.875C54.527 159.348 54.5956 159.704 54.733 159.94C54.875 160.172 55.0549 160.329 55.2727 160.409C55.4953 160.485 55.7296 160.523 55.9759 160.523C56.1605 160.523 56.312 160.513 56.4304 160.494C56.5488 160.471 56.6435 160.452 56.7145 160.438L57.0554 161.943C56.9418 161.986 56.7831 162.028 56.5795 162.071C56.3759 162.118 56.1179 162.142 55.8054 162.142C55.3319 162.142 54.8679 162.04 54.4134 161.837C53.9635 161.633 53.5895 161.323 53.2912 160.906C52.9976 160.49 52.8509 159.964 52.8509 159.33V148.477ZM63.6925 162.227C62.7076 162.227 61.8435 161.993 61.1001 161.524C60.3615 161.055 59.7839 160.4 59.3672 159.557C58.9553 158.714 58.7493 157.729 58.7493 156.602C58.7493 155.466 58.9553 154.474 59.3672 153.626C59.7839 152.779 60.3615 152.121 61.1001 151.652C61.8435 151.183 62.7076 150.949 63.6925 150.949C64.6773 150.949 65.5391 151.183 66.2777 151.652C67.0211 152.121 67.5987 152.779 68.0107 153.626C68.4273 154.474 68.6357 155.466 68.6357 156.602C68.6357 157.729 68.4273 158.714 68.0107 159.557C67.5987 160.4 67.0211 161.055 66.2777 161.524C65.5391 161.993 64.6773 162.227 63.6925 162.227ZM63.6925 160.722C64.4406 160.722 65.0561 160.53 65.5391 160.146C66.022 159.763 66.3795 159.259 66.6115 158.634C66.8435 158.009 66.9595 157.331 66.9595 156.602C66.9595 155.873 66.8435 155.194 66.6115 154.564C66.3795 153.934 66.022 153.425 65.5391 153.037C65.0561 152.649 64.4406 152.455 63.6925 152.455C62.9444 152.455 62.3288 152.649 61.8459 153.037C61.3629 153.425 61.0054 153.934 60.7734 154.564C60.5414 155.194 60.4254 155.873 60.4254 156.602C60.4254 157.331 60.5414 158.009 60.7734 158.634C61.0054 159.259 61.3629 159.763 61.8459 160.146C62.3288 160.53 62.9444 160.722 63.6925 160.722ZM72.8704 147.455V162H71.1942V147.455H72.8704ZM80.3722 162.227C79.3873 162.227 78.5232 161.993 77.7798 161.524C77.0412 161.055 76.4635 160.4 76.0469 159.557C75.6349 158.714 75.429 157.729 75.429 156.602C75.429 155.466 75.6349 154.474 76.0469 153.626C76.4635 152.779 77.0412 152.121 77.7798 151.652C78.5232 151.183 79.3873 150.949 80.3722 150.949C81.357 150.949 82.2188 151.183 82.9574 151.652C83.7008 152.121 84.2784 152.779 84.6903 153.626C85.107 154.474 85.3153 155.466 85.3153 156.602C85.3153 157.729 85.107 158.714 84.6903 159.557C84.2784 160.4 83.7008 161.055 82.9574 161.524C82.2188 161.993 81.357 162.227 80.3722 162.227ZM80.3722 160.722C81.1203 160.722 81.7358 160.53 82.2188 160.146C82.7017 159.763 83.0592 159.259 83.2912 158.634C83.5232 158.009 83.6392 157.331 83.6392 156.602C83.6392 155.873 83.5232 155.194 83.2912 154.564C83.0592 153.934 82.7017 153.425 82.2188 153.037C81.7358 152.649 81.1203 152.455 80.3722 152.455C79.6241 152.455 79.0085 152.649 78.5256 153.037C78.0426 153.425 77.6851 153.934 77.4531 154.564C77.2211 155.194 77.1051 155.873 77.1051 156.602C77.1051 157.331 77.2211 158.009 77.4531 158.634C77.6851 159.259 78.0426 159.763 78.5256 160.146C79.0085 160.53 79.6241 160.722 80.3722 160.722ZM105.431 152H103.669C103.565 151.493 103.383 151.048 103.123 150.665C102.867 150.281 102.554 149.959 102.185 149.699C101.82 149.434 101.416 149.235 100.971 149.102C100.525 148.97 100.061 148.903 99.5785 148.903C98.6978 148.903 97.9 149.126 97.185 149.571C96.4748 150.016 95.909 150.672 95.4876 151.538C95.0709 152.405 94.8626 153.468 94.8626 154.727C94.8626 155.987 95.0709 157.05 95.4876 157.916C95.909 158.783 96.4748 159.438 97.185 159.884C97.9 160.329 98.6978 160.551 99.5785 160.551C100.061 160.551 100.525 160.485 100.971 160.352C101.416 160.22 101.82 160.023 102.185 159.763C102.554 159.498 102.867 159.173 103.123 158.79C103.383 158.402 103.565 157.956 103.669 157.455H105.431C105.298 158.198 105.057 158.863 104.706 159.45C104.356 160.037 103.92 160.537 103.4 160.949C102.879 161.356 102.294 161.666 101.645 161.879C101.001 162.092 100.312 162.199 99.5785 162.199C98.338 162.199 97.2347 161.896 96.2688 161.29C95.3029 160.684 94.543 159.822 93.989 158.705C93.435 157.587 93.158 156.261 93.158 154.727C93.158 153.193 93.435 151.867 93.989 150.75C94.543 149.633 95.3029 148.771 96.2688 148.165C97.2347 147.559 98.338 147.256 99.5785 147.256C100.312 147.256 101.001 147.362 101.645 147.575C102.294 147.788 102.879 148.101 103.4 148.513C103.92 148.92 104.356 149.417 104.706 150.004C105.057 150.587 105.298 151.252 105.431 152ZM111.26 162.256C110.569 162.256 109.941 162.125 109.378 161.865C108.814 161.6 108.367 161.219 108.036 160.722C107.704 160.22 107.538 159.614 107.538 158.903C107.538 158.278 107.661 157.772 107.908 157.384C108.154 156.991 108.483 156.683 108.895 156.46C109.307 156.238 109.761 156.072 110.259 155.963C110.76 155.849 111.265 155.759 111.771 155.693C112.434 155.608 112.972 155.544 113.384 155.501C113.8 155.454 114.103 155.376 114.293 155.267C114.487 155.158 114.584 154.969 114.584 154.699V154.642C114.584 153.941 114.392 153.397 114.009 153.009C113.63 152.62 113.054 152.426 112.283 152.426C111.482 152.426 110.855 152.601 110.401 152.952C109.946 153.302 109.626 153.676 109.442 154.074L107.851 153.506C108.135 152.843 108.514 152.327 108.987 151.957C109.465 151.583 109.986 151.323 110.55 151.176C111.118 151.025 111.677 150.949 112.226 150.949C112.576 150.949 112.979 150.991 113.433 151.077C113.893 151.157 114.335 151.325 114.761 151.581C115.192 151.837 115.55 152.223 115.834 152.739C116.118 153.255 116.26 153.946 116.26 154.812V162H114.584V160.523H114.499C114.385 160.759 114.196 161.013 113.93 161.283C113.665 161.553 113.313 161.782 112.872 161.972C112.432 162.161 111.894 162.256 111.26 162.256ZM111.516 160.75C112.179 160.75 112.737 160.62 113.192 160.359C113.651 160.099 113.997 159.763 114.229 159.351C114.465 158.939 114.584 158.506 114.584 158.051V156.517C114.513 156.602 114.357 156.68 114.115 156.751C113.878 156.818 113.604 156.877 113.291 156.929C112.983 156.976 112.683 157.019 112.389 157.057C112.1 157.09 111.866 157.118 111.686 157.142C111.25 157.199 110.843 157.291 110.464 157.419C110.09 157.542 109.787 157.729 109.555 157.98C109.328 158.226 109.214 158.562 109.214 158.989C109.214 159.571 109.43 160.011 109.861 160.31C110.296 160.603 110.848 160.75 111.516 160.75ZM123.751 162.227C122.728 162.227 121.848 161.986 121.109 161.503C120.37 161.02 119.802 160.355 119.404 159.507C119.007 158.66 118.808 157.691 118.808 156.602C118.808 155.494 119.011 154.517 119.419 153.669C119.831 152.817 120.404 152.152 121.137 151.673C121.876 151.19 122.738 150.949 123.723 150.949C124.49 150.949 125.181 151.091 125.797 151.375C126.412 151.659 126.916 152.057 127.309 152.568C127.702 153.08 127.946 153.676 128.041 154.358H126.365C126.237 153.861 125.953 153.42 125.512 153.037C125.077 152.649 124.49 152.455 123.751 152.455C123.098 152.455 122.525 152.625 122.032 152.966C121.545 153.302 121.163 153.778 120.889 154.393C120.619 155.004 120.484 155.722 120.484 156.545C120.484 157.388 120.617 158.122 120.882 158.747C121.152 159.372 121.53 159.857 122.018 160.203C122.511 160.549 123.088 160.722 123.751 160.722C124.187 160.722 124.582 160.646 124.937 160.494C125.292 160.343 125.593 160.125 125.839 159.841C126.085 159.557 126.261 159.216 126.365 158.818H128.041C127.946 159.462 127.712 160.042 127.338 160.558C126.968 161.07 126.478 161.477 125.868 161.78C125.261 162.078 124.556 162.227 123.751 162.227ZM132.167 155.438V162H130.491V147.455H132.167V152.795H132.309C132.565 152.232 132.949 151.785 133.46 151.453C133.976 151.117 134.663 150.949 135.52 150.949C136.263 150.949 136.914 151.098 137.473 151.396C138.031 151.69 138.465 152.142 138.772 152.753C139.085 153.359 139.241 154.131 139.241 155.068V162H137.565V155.182C137.565 154.315 137.34 153.645 136.89 153.172C136.445 152.694 135.827 152.455 135.037 152.455C134.487 152.455 133.995 152.571 133.559 152.803C133.128 153.035 132.788 153.373 132.537 153.818C132.29 154.263 132.167 154.803 132.167 155.438ZM146.881 162.227C145.83 162.227 144.924 161.995 144.161 161.531C143.404 161.062 142.819 160.409 142.407 159.571C142 158.728 141.796 157.748 141.796 156.631C141.796 155.513 142 154.528 142.407 153.676C142.819 152.819 143.392 152.152 144.126 151.673C144.864 151.19 145.726 150.949 146.711 150.949C147.279 150.949 147.84 151.044 148.394 151.233C148.948 151.422 149.452 151.73 149.907 152.156C150.362 152.578 150.724 153.136 150.994 153.832C151.263 154.528 151.398 155.385 151.398 156.403V157.114H142.989V155.665H149.694C149.694 155.049 149.571 154.5 149.325 154.017C149.083 153.534 148.737 153.153 148.288 152.874C147.843 152.594 147.317 152.455 146.711 152.455C146.043 152.455 145.466 152.62 144.978 152.952C144.495 153.278 144.123 153.705 143.863 154.23C143.603 154.756 143.472 155.319 143.472 155.92V156.886C143.472 157.71 143.614 158.409 143.898 158.982C144.187 159.55 144.587 159.983 145.099 160.281C145.61 160.575 146.204 160.722 146.881 160.722C147.322 160.722 147.719 160.66 148.075 160.537C148.434 160.409 148.745 160.22 149.005 159.969C149.265 159.713 149.467 159.396 149.609 159.017L151.228 159.472C151.058 160.021 150.771 160.504 150.369 160.92C149.966 161.332 149.469 161.654 148.877 161.886C148.285 162.114 147.62 162.227 146.881 162.227ZM159.545 162V160.722L164.346 155.466C164.909 154.85 165.373 154.315 165.738 153.861C166.103 153.402 166.372 152.971 166.548 152.568C166.728 152.161 166.817 151.735 166.817 151.29C166.817 150.778 166.694 150.336 166.448 149.962C166.207 149.588 165.875 149.299 165.454 149.095C165.032 148.892 164.559 148.79 164.033 148.79C163.475 148.79 162.987 148.906 162.57 149.138C162.158 149.365 161.839 149.685 161.612 150.097C161.389 150.509 161.278 150.991 161.278 151.545H159.602C159.602 150.693 159.798 149.945 160.191 149.301C160.584 148.657 161.119 148.155 161.796 147.795C162.478 147.436 163.243 147.256 164.09 147.256C164.942 147.256 165.698 147.436 166.356 147.795C167.014 148.155 167.53 148.641 167.904 149.251C168.278 149.862 168.465 150.542 168.465 151.29C168.465 151.825 168.368 152.348 168.174 152.859C167.985 153.366 167.653 153.932 167.18 154.557C166.711 155.177 166.06 155.935 165.227 156.83L161.96 160.324V160.438H168.721V162H159.545Z" fill="black"/>
<path d="M33 112H333" stroke="black"/>
<path d="M317.18 94.5V92.8203H318.82V94.5H317.18ZM313.273 101.727C314.602 103.029 316.177 103.68 318 103.68C319.823 103.68 321.385 103.029 322.688 101.727C324.016 100.398 324.68 98.8229 324.68 97C324.68 95.1771 324.016 93.6146 322.688 92.3125C321.385 90.9844 319.823 90.3203 318 90.3203C316.177 90.3203 314.602 90.9844 313.273 92.3125C311.971 93.6146 311.32 95.1771 311.32 97C311.32 98.8229 311.971 100.398 313.273 101.727ZM312.102 91.1406C313.742 89.5 315.708 88.6797 318 88.6797C320.292 88.6797 322.245 89.5 323.859 91.1406C325.5 92.7552 326.32 94.7083 326.32 97C326.32 99.2917 325.5 101.258 323.859 102.898C322.245 104.513 320.292 105.32 318 105.32C315.708 105.32 313.742 104.513 312.102 102.898C310.487 101.258 309.68 99.2917 309.68 97C309.68 94.7083 310.487 92.7552 312.102 91.1406ZM317.18 101.18V96.1797H318.82V101.18H317.18Z" fill="black"/>
<path d="M32.9659 85.017V83.4545H43.875V85.017H39.3011V98H37.5398V85.017H32.9659ZM46.3661 98V87.0909H48.0423V98H46.3661ZM47.2184 85.2727C46.8917 85.2727 46.61 85.1615 46.3732 84.9389C46.1412 84.7164 46.0252 84.4489 46.0252 84.1364C46.0252 83.8239 46.1412 83.5563 46.3732 83.3338C46.61 83.1113 46.8917 83 47.2184 83C47.5451 83 47.8245 83.1113 48.0565 83.3338C48.2932 83.5563 48.4116 83.8239 48.4116 84.1364C48.4116 84.4489 48.2932 84.7164 48.0565 84.9389C47.8245 85.1615 47.5451 85.2727 47.2184 85.2727ZM55.8565 87.0909V88.5114H50.2031V87.0909H55.8565ZM51.8509 84.4773H53.527V94.875C53.527 95.3485 53.5956 95.7036 53.733 95.9403C53.875 96.1723 54.0549 96.3286 54.2727 96.4091C54.4953 96.4848 54.7296 96.5227 54.9759 96.5227C55.1605 96.5227 55.312 96.5133 55.4304 96.4943C55.5488 96.4706 55.6435 96.4517 55.7145 96.4375L56.0554 97.9432C55.9418 97.9858 55.7831 98.0284 55.5795 98.071C55.3759 98.1184 55.1179 98.142 54.8054 98.142C54.3319 98.142 53.8679 98.0402 53.4134 97.8366C52.9635 97.633 52.5895 97.3229 52.2912 96.9062C51.9976 96.4896 51.8509 95.964 51.8509 95.3295V84.4773ZM62.6925 98.2273C61.7076 98.2273 60.8435 97.9929 60.1001 97.5241C59.3615 97.0554 58.7839 96.3996 58.3672 95.5568C57.9553 94.714 57.7493 93.7292 57.7493 92.6023C57.7493 91.4659 57.9553 90.474 58.3672 89.6264C58.7839 88.7789 59.3615 88.1207 60.1001 87.652C60.8435 87.1832 61.7076 86.9489 62.6925 86.9489C63.6773 86.9489 64.5391 87.1832 65.2777 87.652C66.0211 88.1207 66.5987 88.7789 67.0107 89.6264C67.4273 90.474 67.6357 91.4659 67.6357 92.6023C67.6357 93.7292 67.4273 94.714 67.0107 95.5568C66.5987 96.3996 66.0211 97.0554 65.2777 97.5241C64.5391 97.9929 63.6773 98.2273 62.6925 98.2273ZM62.6925 96.7216C63.4406 96.7216 64.0561 96.5298 64.5391 96.1463C65.022 95.7628 65.3795 95.2585 65.6115 94.6335C65.8435 94.0085 65.9595 93.3314 65.9595 92.6023C65.9595 91.8731 65.8435 91.1937 65.6115 90.5639C65.3795 89.9342 65.022 89.4252 64.5391 89.0369C64.0561 88.6487 63.4406 88.4545 62.6925 88.4545C61.9444 88.4545 61.3288 88.6487 60.8459 89.0369C60.3629 89.4252 60.0054 89.9342 59.7734 90.5639C59.5414 91.1937 59.4254 91.8731 59.4254 92.6023C59.4254 93.3314 59.5414 94.0085 59.7734 94.6335C60.0054 95.2585 60.3629 95.7628 60.8459 96.1463C61.3288 96.5298 61.9444 96.7216 62.6925 96.7216ZM71.8704 83.4545V98H70.1942V83.4545H71.8704ZM79.3722 98.2273C78.3873 98.2273 77.5232 97.9929 76.7798 97.5241C76.0412 97.0554 75.4635 96.3996 75.0469 95.5568C74.6349 94.714 74.429 93.7292 74.429 92.6023C74.429 91.4659 74.6349 90.474 75.0469 89.6264C75.4635 88.7789 76.0412 88.1207 76.7798 87.652C77.5232 87.1832 78.3873 86.9489 79.3722 86.9489C80.357 86.9489 81.2188 87.1832 81.9574 87.652C82.7008 88.1207 83.2784 88.7789 83.6903 89.6264C84.107 90.474 84.3153 91.4659 84.3153 92.6023C84.3153 93.7292 84.107 94.714 83.6903 95.5568C83.2784 96.3996 82.7008 97.0554 81.9574 97.5241C81.2188 97.9929 80.357 98.2273 79.3722 98.2273ZM79.3722 96.7216C80.1203 96.7216 80.7358 96.5298 81.2188 96.1463C81.7017 95.7628 82.0592 95.2585 82.2912 94.6335C82.5232 94.0085 82.6392 93.3314 82.6392 92.6023C82.6392 91.8731 82.5232 91.1937 82.2912 90.5639C82.0592 89.9342 81.7017 89.4252 81.2188 89.0369C80.7358 88.6487 80.1203 88.4545 79.3722 88.4545C78.6241 88.4545 78.0085 88.6487 77.5256 89.0369C77.0426 89.4252 76.6851 89.9342 76.4531 90.5639C76.2211 91.1937 76.1051 91.8731 76.1051 92.6023C76.1051 93.3314 76.2211 94.0085 76.4531 94.6335C76.6851 95.2585 77.0426 95.7628 77.5256 96.1463C78.0085 96.5298 78.6241 96.7216 79.3722 96.7216ZM104.431 88H102.669C102.565 87.4934 102.383 87.0483 102.123 86.6648C101.867 86.2812 101.554 85.9593 101.185 85.6989C100.82 85.4337 100.416 85.2348 99.9705 85.1023C99.5255 84.9697 99.0614 84.9034 98.5785 84.9034C97.6978 84.9034 96.9 85.1259 96.185 85.571C95.4748 86.0161 94.909 86.6719 94.4876 87.5384C94.0709 88.4048 93.8626 89.4678 93.8626 90.7273C93.8626 91.9867 94.0709 93.0497 94.4876 93.9162C94.909 94.7827 95.4748 95.4384 96.185 95.8835C96.9 96.3286 97.6978 96.5511 98.5785 96.5511C99.0614 96.5511 99.5255 96.4848 99.9705 96.3523C100.416 96.2197 100.82 96.0232 101.185 95.7628C101.554 95.4976 101.867 95.1733 102.123 94.7898C102.383 94.4015 102.565 93.9564 102.669 93.4545H104.431C104.298 94.1979 104.057 94.8632 103.706 95.4503C103.356 96.0374 102.92 96.5369 102.4 96.9489C101.879 97.3561 101.294 97.6662 100.645 97.8793C100.001 98.0923 99.3124 98.1989 98.5785 98.1989C97.338 98.1989 96.2347 97.8958 95.2688 97.2898C94.3029 96.6837 93.543 95.822 92.989 94.7045C92.435 93.5871 92.158 92.2614 92.158 90.7273C92.158 89.1932 92.435 87.8674 92.989 86.75C93.543 85.6326 94.3029 84.7708 95.2688 84.1648C96.2347 83.5587 97.338 83.2557 98.5785 83.2557C99.3124 83.2557 100.001 83.3622 100.645 83.5753C101.294 83.7884 101.879 84.1009 102.4 84.5128C102.92 84.92 103.356 85.4171 103.706 86.0043C104.057 86.5866 104.298 87.2519 104.431 88ZM110.26 98.2557C109.569 98.2557 108.941 98.1255 108.378 97.8651C107.814 97.5999 107.367 97.2188 107.036 96.7216C106.704 96.2197 106.538 95.6136 106.538 94.9034C106.538 94.2784 106.661 93.7718 106.908 93.3835C107.154 92.9905 107.483 92.6828 107.895 92.4602C108.307 92.2377 108.761 92.072 109.259 91.9631C109.76 91.8494 110.265 91.7595 110.771 91.6932C111.434 91.608 111.972 91.544 112.384 91.5014C112.8 91.4541 113.103 91.3759 113.293 91.267C113.487 91.1581 113.584 90.9687 113.584 90.6989V90.642C113.584 89.9413 113.392 89.3968 113.009 89.0085C112.63 88.6203 112.054 88.4261 111.283 88.4261C110.482 88.4261 109.855 88.6013 109.401 88.9517C108.946 89.3021 108.626 89.6761 108.442 90.0739L106.851 89.5057C107.135 88.8428 107.514 88.3267 107.987 87.9574C108.465 87.5833 108.986 87.3229 109.55 87.1761C110.118 87.0246 110.677 86.9489 111.226 86.9489C111.576 86.9489 111.979 86.9915 112.433 87.0767C112.893 87.1572 113.335 87.3253 113.761 87.581C114.192 87.8366 114.55 88.2225 114.834 88.7386C115.118 89.2547 115.26 89.946 115.26 90.8125V98H113.584V96.5227H113.499C113.385 96.7595 113.196 97.0128 112.93 97.2827C112.665 97.5526 112.313 97.7822 111.872 97.9716C111.432 98.161 110.894 98.2557 110.26 98.2557ZM110.516 96.75C111.179 96.75 111.737 96.6198 112.192 96.3594C112.651 96.099 112.997 95.7628 113.229 95.3509C113.465 94.9389 113.584 94.5057 113.584 94.0511V92.517C113.513 92.6023 113.357 92.6804 113.115 92.7514C112.878 92.8177 112.604 92.8769 112.291 92.929C111.983 92.9763 111.683 93.0189 111.389 93.0568C111.1 93.09 110.866 93.1184 110.686 93.142C110.25 93.1989 109.843 93.2912 109.464 93.419C109.09 93.5421 108.787 93.7292 108.555 93.9801C108.328 94.2263 108.214 94.5625 108.214 94.9886C108.214 95.571 108.43 96.0114 108.861 96.3097C109.296 96.6032 109.848 96.75 110.516 96.75ZM122.751 98.2273C121.728 98.2273 120.848 97.9858 120.109 97.5028C119.37 97.0199 118.802 96.3546 118.404 95.5071C118.007 94.6596 117.808 93.6913 117.808 92.6023C117.808 91.4943 118.011 90.5166 118.419 89.669C118.831 88.8168 119.404 88.1515 120.137 87.6733C120.876 87.1903 121.738 86.9489 122.723 86.9489C123.49 86.9489 124.181 87.0909 124.797 87.375C125.412 87.6591 125.916 88.0568 126.309 88.5682C126.702 89.0795 126.946 89.6761 127.041 90.358H125.365C125.237 89.8608 124.953 89.4205 124.512 89.0369C124.077 88.6487 123.49 88.4545 122.751 88.4545C122.098 88.4545 121.525 88.625 121.032 88.9659C120.545 89.3021 120.163 89.7779 119.889 90.3935C119.619 91.0043 119.484 91.7216 119.484 92.5455C119.484 93.3883 119.617 94.1222 119.882 94.7472C120.152 95.3722 120.53 95.8575 121.018 96.2031C121.511 96.5488 122.088 96.7216 122.751 96.7216C123.187 96.7216 123.582 96.6458 123.937 96.4943C124.292 96.3428 124.593 96.125 124.839 95.8409C125.085 95.5568 125.261 95.2159 125.365 94.8182H127.041C126.946 95.4621 126.712 96.0421 126.338 96.5582C125.968 97.0696 125.478 97.4768 124.868 97.7798C124.261 98.0781 123.556 98.2273 122.751 98.2273ZM131.167 91.4375V98H129.491V83.4545H131.167V88.7955H131.309C131.565 88.232 131.949 87.7846 132.46 87.4531C132.976 87.117 133.663 86.9489 134.52 86.9489C135.263 86.9489 135.914 87.098 136.473 87.3963C137.031 87.6899 137.465 88.142 137.772 88.7528C138.085 89.3589 138.241 90.1307 138.241 91.0682V98H136.565V91.1818C136.565 90.3153 136.34 89.6454 135.89 89.1719C135.445 88.6937 134.827 88.4545 134.037 88.4545C133.487 88.4545 132.995 88.5705 132.559 88.8026C132.128 89.0346 131.788 89.3731 131.537 89.8182C131.29 90.2633 131.167 90.803 131.167 91.4375ZM145.881 98.2273C144.83 98.2273 143.924 97.9953 143.161 97.5312C142.404 97.0625 141.819 96.4091 141.407 95.571C141 94.7282 140.796 93.7481 140.796 92.6307C140.796 91.5133 141 90.5284 141.407 89.6761C141.819 88.8191 142.392 88.1515 143.126 87.6733C143.864 87.1903 144.726 86.9489 145.711 86.9489C146.279 86.9489 146.84 87.0436 147.394 87.233C147.948 87.4223 148.452 87.7301 148.907 88.1562C149.362 88.5777 149.724 89.1364 149.994 89.8324C150.263 90.5284 150.398 91.3854 150.398 92.4034V93.1136H141.989V91.6648H148.694C148.694 91.0492 148.571 90.5 148.325 90.017C148.083 89.5341 147.737 89.1529 147.288 88.8736C146.843 88.5942 146.317 88.4545 145.711 88.4545C145.043 88.4545 144.466 88.6203 143.978 88.9517C143.495 89.2784 143.123 89.7045 142.863 90.2301C142.603 90.7557 142.472 91.3191 142.472 91.9205V92.8864C142.472 93.7102 142.614 94.4086 142.898 94.9815C143.187 95.5497 143.587 95.983 144.099 96.2812C144.61 96.5748 145.204 96.7216 145.881 96.7216C146.322 96.7216 146.719 96.66 147.075 96.5369C147.434 96.4091 147.745 96.2197 148.005 95.9688C148.265 95.7131 148.467 95.3958 148.609 95.017L150.228 95.4716C150.058 96.0208 149.771 96.5038 149.369 96.9205C148.966 97.3324 148.469 97.6544 147.877 97.8864C147.285 98.1136 146.62 98.2273 145.881 98.2273ZM163.658 83.4545V98H161.897V85.3011H161.812L158.261 87.6591V85.8693L161.897 83.4545H163.658Z" fill="black"/>
<path d="M74.2642 38V23.4545H77.3395V35.4645H83.5753V38H74.2642ZM90.5266 38.2131C89.4045 38.2131 88.4386 37.9858 87.6289 37.5312C86.824 37.072 86.2037 36.4233 85.7681 35.5852C85.3325 34.7424 85.1147 33.7457 85.1147 32.5952C85.1147 31.473 85.3325 30.4882 85.7681 29.6406C86.2037 28.7931 86.8169 28.1326 87.6076 27.6591C88.4031 27.1856 89.3358 26.9489 90.4059 26.9489C91.1256 26.9489 91.7956 27.0649 92.4158 27.2969C93.0408 27.5241 93.5853 27.8674 94.0494 28.3267C94.5181 28.786 94.8827 29.3636 95.1431 30.0597C95.4035 30.7509 95.5337 31.5606 95.5337 32.4886V33.3196H86.3221V31.4446H92.6857C92.6857 31.009 92.591 30.6231 92.4016 30.2869C92.2122 29.9508 91.9495 29.688 91.6133 29.4986C91.2818 29.3045 90.896 29.2074 90.4556 29.2074C89.9963 29.2074 89.5891 29.3139 89.234 29.527C88.8836 29.7353 88.609 30.017 88.4102 30.3722C88.2113 30.7225 88.1095 31.1132 88.1048 31.544V33.3267C88.1048 33.8665 88.2042 34.3329 88.4031 34.7259C88.6067 35.1188 88.8931 35.4219 89.2624 35.6349C89.6317 35.848 90.0697 35.9545 90.5763 35.9545C90.9125 35.9545 91.2203 35.9072 91.4996 35.8125C91.779 35.7178 92.0181 35.5758 92.217 35.3864C92.4158 35.197 92.5674 34.965 92.6715 34.6903L95.4698 34.875C95.3278 35.5473 95.0366 36.1345 94.5962 36.6364C94.1606 37.1335 93.5972 37.5218 92.9059 37.8011C92.2193 38.0758 91.4263 38.2131 90.5266 38.2131ZM102.137 38V27.0909H105.021V29.0156H105.148C105.376 28.3764 105.754 27.8722 106.285 27.5028C106.815 27.1335 107.45 26.9489 108.188 26.9489C108.936 26.9489 109.573 27.1359 110.099 27.5099C110.624 27.8793 110.975 28.3812 111.15 29.0156H111.263C111.486 28.3906 111.888 27.8911 112.471 27.517C113.058 27.1383 113.752 26.9489 114.552 26.9489C115.57 26.9489 116.396 27.2732 117.031 27.9219C117.67 28.5658 117.989 29.4796 117.989 30.6634V38H114.971V31.2599C114.971 30.6539 114.81 30.1993 114.488 29.8963C114.166 29.5933 113.763 29.4418 113.281 29.4418C112.731 29.4418 112.303 29.617 111.995 29.9673C111.687 30.313 111.533 30.7699 111.533 31.3381V38H108.6V31.196C108.6 30.661 108.446 30.2348 108.138 29.9176C107.835 29.6004 107.435 29.4418 106.938 29.4418C106.602 29.4418 106.299 29.527 106.029 29.6974C105.764 29.8632 105.553 30.0975 105.397 30.4006C105.241 30.6989 105.163 31.0492 105.163 31.4517V38H102.137ZM120.379 38V27.0909H123.405V38H120.379ZM121.899 25.6847C121.449 25.6847 121.063 25.5355 120.741 25.2372C120.424 24.9342 120.266 24.572 120.266 24.1506C120.266 23.7339 120.424 23.3764 120.741 23.0781C121.063 22.7751 121.449 22.6236 121.899 22.6236C122.349 22.6236 122.732 22.7751 123.05 23.0781C123.372 23.3764 123.533 23.7339 123.533 24.1506C123.533 24.572 123.372 24.9342 123.05 25.2372C122.732 25.5355 122.349 25.6847 121.899 25.6847ZM130.8 38.2131C129.678 38.2131 128.712 37.9858 127.902 37.5312C127.097 37.072 126.477 36.4233 126.042 35.5852C125.606 34.7424 125.388 33.7457 125.388 32.5952C125.388 31.473 125.606 30.4882 126.042 29.6406C126.477 28.7931 127.09 28.1326 127.881 27.6591C128.676 27.1856 129.609 26.9489 130.679 26.9489C131.399 26.9489 132.069 27.0649 132.689 27.2969C133.314 27.5241 133.859 27.8674 134.323 28.3267C134.792 28.786 135.156 29.3636 135.417 30.0597C135.677 30.7509 135.807 31.5606 135.807 32.4886V33.3196H126.596V31.4446H132.959C132.959 31.009 132.864 30.6231 132.675 30.2869C132.486 29.9508 132.223 29.688 131.887 29.4986C131.555 29.3045 131.169 29.2074 130.729 29.2074C130.27 29.2074 129.863 29.3139 129.507 29.527C129.157 29.7353 128.882 30.017 128.684 30.3722C128.485 30.7225 128.383 31.1132 128.378 31.544V33.3267C128.378 33.8665 128.478 34.3329 128.676 34.7259C128.88 35.1188 129.167 35.4219 129.536 35.6349C129.905 35.848 130.343 35.9545 130.85 35.9545C131.186 35.9545 131.494 35.9072 131.773 35.8125C132.052 35.7178 132.292 35.5758 132.49 35.3864C132.689 35.197 132.841 34.965 132.945 34.6903L135.743 34.875C135.601 35.5473 135.31 36.1345 134.87 36.6364C134.434 37.1335 133.871 37.5218 133.179 37.8011C132.493 38.0758 131.7 38.2131 130.8 38.2131ZM147.339 38.2131C146.222 38.2131 145.261 37.9763 144.456 37.5028C143.656 37.0246 143.04 36.3617 142.609 35.5142C142.183 34.6667 141.97 33.6913 141.97 32.5881C141.97 31.4706 142.186 30.4905 142.616 29.6477C143.052 28.8002 143.67 28.1397 144.47 27.6662C145.27 27.188 146.222 26.9489 147.325 26.9489C148.277 26.9489 149.11 27.1217 149.825 27.4673C150.54 27.813 151.106 28.2983 151.523 28.9233C151.939 29.5483 152.169 30.2822 152.212 31.125H149.357C149.276 30.5805 149.063 30.1425 148.717 29.8111C148.376 29.4749 147.929 29.3068 147.375 29.3068C146.906 29.3068 146.497 29.4347 146.146 29.6903C145.801 29.9413 145.531 30.3082 145.337 30.7912C145.143 31.2741 145.045 31.8589 145.045 32.5455C145.045 33.2415 145.14 33.8333 145.33 34.321C145.524 34.8087 145.796 35.1804 146.146 35.4361C146.497 35.6918 146.906 35.8196 147.375 35.8196C147.721 35.8196 148.031 35.7486 148.305 35.6065C148.585 35.4645 148.814 35.2585 148.994 34.9886C149.179 34.714 149.3 34.3849 149.357 34.0014H152.212C152.164 34.8348 151.937 35.5687 151.53 36.2031C151.127 36.8329 150.571 37.3253 149.861 37.6804C149.151 38.0355 148.31 38.2131 147.339 38.2131ZM157.26 38.206C156.564 38.206 155.943 38.0852 155.399 37.8438C154.854 37.5975 154.423 37.2353 154.106 36.7571C153.794 36.2741 153.637 35.6728 153.637 34.9531C153.637 34.3471 153.749 33.8381 153.971 33.4261C154.194 33.0142 154.497 32.6828 154.88 32.4318C155.264 32.1809 155.699 31.9915 156.187 31.8636C156.68 31.7358 157.196 31.6458 157.735 31.5938C158.37 31.5275 158.881 31.4659 159.27 31.4091C159.658 31.3475 159.94 31.2576 160.115 31.1392C160.29 31.0208 160.377 30.8456 160.377 30.6136V30.571C160.377 30.1212 160.235 29.7732 159.951 29.527C159.672 29.2808 159.274 29.1577 158.758 29.1577C158.214 29.1577 157.78 29.2784 157.458 29.5199C157.136 29.7566 156.923 30.0549 156.819 30.4148L154.021 30.1875C154.163 29.5246 154.442 28.9517 154.859 28.4688C155.276 27.9811 155.813 27.607 156.471 27.3466C157.134 27.0814 157.901 26.9489 158.772 26.9489C159.378 26.9489 159.958 27.0199 160.512 27.1619C161.071 27.304 161.566 27.5241 161.997 27.8224C162.432 28.1207 162.776 28.5043 163.027 28.973C163.278 29.437 163.403 29.9934 163.403 30.642V38H160.534V36.4872H160.449C160.273 36.8281 160.039 37.1288 159.745 37.3892C159.452 37.6449 159.099 37.8461 158.687 37.9929C158.275 38.1349 157.799 38.206 157.26 38.206ZM158.126 36.1179C158.571 36.1179 158.964 36.0303 159.305 35.8551C159.646 35.6752 159.913 35.4337 160.108 35.1307C160.302 34.8277 160.399 34.4844 160.399 34.1009V32.9432C160.304 33.0047 160.174 33.0616 160.008 33.1136C159.847 33.161 159.665 33.206 159.461 33.2486C159.258 33.2865 159.054 33.322 158.85 33.3551C158.647 33.3835 158.462 33.4096 158.297 33.4332C157.941 33.4853 157.631 33.5682 157.366 33.6818C157.101 33.7955 156.895 33.9493 156.748 34.1435C156.601 34.3329 156.528 34.5696 156.528 34.8537C156.528 35.2656 156.677 35.5805 156.975 35.7983C157.279 36.0114 157.662 36.1179 158.126 36.1179ZM170.679 38.2131C169.562 38.2131 168.601 37.9763 167.796 37.5028C166.996 37.0246 166.38 36.3617 165.949 35.5142C165.523 34.6667 165.31 33.6913 165.31 32.5881C165.31 31.4706 165.525 30.4905 165.956 29.6477C166.392 28.8002 167.01 28.1397 167.81 27.6662C168.61 27.188 169.562 26.9489 170.665 26.9489C171.617 26.9489 172.45 27.1217 173.165 27.4673C173.88 27.813 174.446 28.2983 174.863 28.9233C175.279 29.5483 175.509 30.2822 175.551 31.125H172.696C172.616 30.5805 172.403 30.1425 172.057 29.8111C171.716 29.4749 171.269 29.3068 170.715 29.3068C170.246 29.3068 169.837 29.4347 169.486 29.6903C169.141 29.9413 168.871 30.3082 168.676 30.7912C168.482 31.2741 168.385 31.8589 168.385 32.5455C168.385 33.2415 168.48 33.8333 168.669 34.321C168.864 34.8087 169.136 35.1804 169.486 35.4361C169.837 35.6918 170.246 35.8196 170.715 35.8196C171.06 35.8196 171.371 35.7486 171.645 35.6065C171.925 35.4645 172.154 35.2585 172.334 34.9886C172.519 34.714 172.64 34.3849 172.696 34.0014H175.551C175.504 34.8348 175.277 35.5687 174.87 36.2031C174.467 36.8329 173.911 37.3253 173.201 37.6804C172.49 38.0355 171.65 38.2131 170.679 38.2131ZM180.514 31.6932V38H177.489V23.4545H180.429V29.0156H180.557C180.803 28.3717 181.201 27.8674 181.75 27.5028C182.299 27.1335 182.988 26.9489 183.817 26.9489C184.574 26.9489 185.235 27.1146 185.798 27.446C186.366 27.7727 186.807 28.2438 187.119 28.8594C187.437 29.4702 187.593 30.2017 187.588 31.054V38H184.562V31.5938C184.567 30.9214 184.397 30.3982 184.051 30.0241C183.71 29.6501 183.232 29.4631 182.616 29.4631C182.205 29.4631 181.84 29.5507 181.523 29.7259C181.21 29.901 180.964 30.1567 180.784 30.4929C180.609 30.8243 180.519 31.2244 180.514 31.6932ZM194.941 38.2131C193.819 38.2131 192.853 37.9858 192.043 37.5312C191.238 37.072 190.618 36.4233 190.182 35.5852C189.747 34.7424 189.529 33.7457 189.529 32.5952C189.529 31.473 189.747 30.4882 190.182 29.6406C190.618 28.7931 191.231 28.1326 192.022 27.6591C192.817 27.1856 193.75 26.9489 194.82 26.9489C195.54 26.9489 196.21 27.0649 196.83 27.2969C197.455 27.5241 197.999 27.8674 198.463 28.3267C198.932 28.786 199.297 29.3636 199.557 30.0597C199.818 30.7509 199.948 31.5606 199.948 32.4886V33.3196H190.736V31.4446H197.1C197.1 31.009 197.005 30.6231 196.816 30.2869C196.626 29.9508 196.364 29.688 196.027 29.4986C195.696 29.3045 195.31 29.2074 194.87 29.2074C194.41 29.2074 194.003 29.3139 193.648 29.527C193.298 29.7353 193.023 30.017 192.824 30.3722C192.625 30.7225 192.524 31.1132 192.519 31.544V33.3267C192.519 33.8665 192.618 34.3329 192.817 34.7259C193.021 35.1188 193.307 35.4219 193.676 35.6349C194.046 35.848 194.484 35.9545 194.99 35.9545C195.327 35.9545 195.634 35.9072 195.914 35.8125C196.193 35.7178 196.432 35.5758 196.631 35.3864C196.83 35.197 196.981 34.965 197.086 34.6903L199.884 34.875C199.742 35.5473 199.451 36.1345 199.01 36.6364C198.575 37.1335 198.011 37.5218 197.32 37.8011C196.633 38.0758 195.84 38.2131 194.941 38.2131Z" fill="black"/>
<rect x="15" y="13" width="35" height="35" rx="10" fill="#D9D9D9"/>
<path d="M25.5 25H40.5V26.6797H25.5V25ZM25.5 30.8203V29.1797H40.5V30.8203H25.5ZM25.5 35V33.3203H40.5V35H25.5Z" fill="black"/>
<rect x="298" y="13" width="35" height="35" rx="10" fill="#D9D9D9"/>
<path d="M321.82 30.8203H316.82V35.8203H315.18V30.8203H310.18V29.1797H315.18V24.1797H316.82V29.1797H321.82V30.8203Z" fill="black"/>
</svg>
