<svg width="360" height="800" viewBox="0 0 360 800" fill="none" xmlns="http://www.w3.org/2000/svg">
<rect width="360" height="800" fill="white"/>
<rect x="30" y="560" width="300" height="50" rx="10" fill="#D9D9D9"/>
<path d="M110.759 594V576.545H117.646C118.964 576.545 120.089 576.781 121.021 577.253C121.958 577.719 122.671 578.381 123.16 579.239C123.654 580.091 123.901 581.094 123.901 582.247C123.901 583.406 123.651 584.403 123.151 585.239C122.651 586.068 121.927 586.705 120.978 587.148C120.035 587.591 118.893 587.812 117.552 587.812H112.941V584.847H116.955C117.66 584.847 118.245 584.75 118.711 584.557C119.177 584.364 119.523 584.074 119.751 583.688C119.984 583.301 120.1 582.821 120.1 582.247C120.1 581.668 119.984 581.179 119.751 580.781C119.523 580.384 119.174 580.082 118.702 579.878C118.237 579.668 117.648 579.562 116.938 579.562H114.45V594H110.759ZM120.185 586.057L124.523 594H120.45L116.205 586.057H120.185ZM126.509 594V576.545H138.271V579.588H130.2V583.747H137.665V586.79H130.2V590.957H138.305V594H126.509ZM152.778 582.188C152.659 581.773 152.491 581.406 152.276 581.088C152.06 580.764 151.795 580.491 151.483 580.27C151.176 580.043 150.824 579.869 150.426 579.75C150.034 579.631 149.599 579.571 149.122 579.571C148.23 579.571 147.446 579.793 146.77 580.236C146.099 580.679 145.577 581.324 145.202 582.17C144.827 583.011 144.639 584.04 144.639 585.256C144.639 586.472 144.824 587.506 145.193 588.358C145.563 589.21 146.085 589.861 146.761 590.31C147.438 590.753 148.236 590.974 149.156 590.974C149.991 590.974 150.705 590.827 151.295 590.531C151.892 590.23 152.347 589.807 152.659 589.261C152.977 588.716 153.136 588.071 153.136 587.327L153.886 587.438H149.386V584.659H156.69V586.858C156.69 588.392 156.366 589.71 155.719 590.812C155.071 591.909 154.179 592.756 153.043 593.352C151.906 593.943 150.605 594.239 149.139 594.239C147.503 594.239 146.065 593.878 144.827 593.156C143.588 592.429 142.622 591.398 141.929 590.062C141.241 588.722 140.898 587.131 140.898 585.29C140.898 583.875 141.102 582.614 141.511 581.506C141.926 580.392 142.506 579.449 143.25 578.676C143.994 577.903 144.861 577.315 145.849 576.912C146.838 576.509 147.909 576.307 149.062 576.307C150.051 576.307 150.972 576.452 151.824 576.741C152.676 577.026 153.432 577.429 154.091 577.952C154.756 578.474 155.298 579.097 155.719 579.818C156.139 580.534 156.409 581.324 156.528 582.188H152.778ZM163.153 576.545V594H159.462V576.545H163.153ZM175.658 581.565C175.589 580.878 175.297 580.344 174.78 579.963C174.263 579.582 173.561 579.392 172.675 579.392C172.072 579.392 171.564 579.477 171.149 579.648C170.734 579.812 170.416 580.043 170.195 580.338C169.979 580.634 169.871 580.969 169.871 581.344C169.859 581.656 169.925 581.929 170.067 582.162C170.214 582.395 170.416 582.597 170.672 582.767C170.928 582.932 171.223 583.077 171.558 583.202C171.893 583.321 172.251 583.423 172.632 583.509L174.2 583.884C174.962 584.054 175.661 584.281 176.297 584.565C176.933 584.849 177.484 585.199 177.95 585.614C178.416 586.028 178.777 586.517 179.033 587.08C179.294 587.642 179.428 588.287 179.433 589.014C179.428 590.082 179.155 591.009 178.615 591.793C178.081 592.571 177.308 593.176 176.297 593.608C175.291 594.034 174.078 594.247 172.658 594.247C171.249 594.247 170.021 594.031 168.976 593.599C167.936 593.168 167.124 592.528 166.538 591.682C165.959 590.83 165.655 589.776 165.626 588.52H169.197C169.237 589.105 169.405 589.594 169.7 589.986C170.001 590.372 170.402 590.665 170.902 590.864C171.408 591.057 171.979 591.153 172.615 591.153C173.24 591.153 173.783 591.062 174.243 590.881C174.709 590.699 175.07 590.446 175.325 590.122C175.581 589.798 175.709 589.426 175.709 589.006C175.709 588.614 175.592 588.284 175.359 588.017C175.132 587.75 174.797 587.523 174.354 587.335C173.916 587.148 173.379 586.977 172.743 586.824L170.842 586.347C169.371 585.989 168.209 585.429 167.357 584.668C166.504 583.906 166.081 582.881 166.087 581.591C166.081 580.534 166.362 579.611 166.93 578.821C167.504 578.031 168.291 577.415 169.291 576.972C170.291 576.528 171.428 576.307 172.7 576.307C173.996 576.307 175.126 576.528 176.092 576.972C177.064 577.415 177.82 578.031 178.359 578.821C178.899 579.611 179.178 580.526 179.195 581.565H175.658ZM181.251 579.588V576.545H195.586V579.588H190.242V594H186.594V579.588H181.251ZM197.947 594V576.545H204.833C206.151 576.545 207.276 576.781 208.208 577.253C209.146 577.719 209.859 578.381 210.347 579.239C210.842 580.091 211.089 581.094 211.089 582.247C211.089 583.406 210.839 584.403 210.339 585.239C209.839 586.068 209.114 586.705 208.165 587.148C207.222 587.591 206.08 587.812 204.739 587.812H200.129V584.847H204.143C204.847 584.847 205.433 584.75 205.898 584.557C206.364 584.364 206.711 584.074 206.938 583.688C207.171 583.301 207.288 582.821 207.288 582.247C207.288 581.668 207.171 581.179 206.938 580.781C206.711 580.384 206.362 580.082 205.89 579.878C205.424 579.668 204.836 579.562 204.126 579.562H201.637V594H197.947ZM207.373 586.057L211.711 594H207.637L203.393 586.057H207.373ZM216.705 594H212.751L218.776 576.545H223.532L229.549 594H225.594L221.222 580.534H221.086L216.705 594ZM216.458 587.139H225.799V590.02H216.458V587.139ZM228.852 579.588V576.545H243.188V579.588H237.844V594H234.196V579.588H228.852ZM249.239 576.545V594H245.548V576.545H249.239Z" fill="black"/>
<rect x="30" y="496" width="300" height="50" rx="10" fill="#D9D9D9"/>
<path d="M138.471 530H134.516L140.542 512.545H145.298L151.315 530H147.36L142.988 516.534H142.852L138.471 530ZM138.224 523.139H147.565V526.02H138.224V523.139ZM167.996 518.656H164.263C164.195 518.173 164.055 517.744 163.845 517.369C163.635 516.989 163.365 516.665 163.036 516.398C162.706 516.131 162.325 515.926 161.893 515.784C161.467 515.642 161.004 515.571 160.504 515.571C159.601 515.571 158.814 515.795 158.143 516.244C157.473 516.687 156.953 517.335 156.584 518.188C156.214 519.034 156.03 520.062 156.03 521.273C156.03 522.517 156.214 523.562 156.584 524.409C156.959 525.256 157.482 525.895 158.152 526.327C158.822 526.759 159.598 526.974 160.479 526.974C160.973 526.974 161.43 526.909 161.851 526.778C162.277 526.648 162.655 526.457 162.984 526.207C163.314 525.952 163.587 525.642 163.803 525.278C164.024 524.915 164.178 524.5 164.263 524.034L167.996 524.051C167.899 524.852 167.658 525.625 167.271 526.369C166.891 527.108 166.376 527.77 165.729 528.355C165.087 528.935 164.32 529.395 163.428 529.736C162.541 530.071 161.538 530.239 160.419 530.239C158.862 530.239 157.47 529.886 156.243 529.182C155.021 528.477 154.055 527.457 153.345 526.122C152.641 524.787 152.288 523.17 152.288 521.273C152.288 519.369 152.646 517.75 153.362 516.415C154.078 515.08 155.05 514.062 156.277 513.364C157.504 512.659 158.885 512.307 160.419 512.307C161.43 512.307 162.368 512.449 163.232 512.733C164.101 513.017 164.871 513.432 165.541 513.977C166.212 514.517 166.757 515.179 167.178 515.963C167.604 516.747 167.876 517.645 167.996 518.656ZM186.043 518.656H182.31C182.241 518.173 182.102 517.744 181.892 517.369C181.682 516.989 181.412 516.665 181.082 516.398C180.753 516.131 180.372 515.926 179.94 515.784C179.514 515.642 179.051 515.571 178.551 515.571C177.648 515.571 176.861 515.795 176.19 516.244C175.52 516.687 175 517.335 174.631 518.188C174.261 519.034 174.077 520.062 174.077 521.273C174.077 522.517 174.261 523.562 174.631 524.409C175.006 525.256 175.528 525.895 176.199 526.327C176.869 526.759 177.645 526.974 178.526 526.974C179.02 526.974 179.477 526.909 179.898 526.778C180.324 526.648 180.702 526.457 181.031 526.207C181.361 525.952 181.634 525.642 181.849 525.278C182.071 524.915 182.224 524.5 182.31 524.034L186.043 524.051C185.946 524.852 185.705 525.625 185.318 526.369C184.938 527.108 184.423 527.77 183.776 528.355C183.134 528.935 182.366 529.395 181.474 529.736C180.588 530.071 179.585 530.239 178.466 530.239C176.909 530.239 175.517 529.886 174.29 529.182C173.068 528.477 172.102 527.457 171.392 526.122C170.688 524.787 170.335 523.17 170.335 521.273C170.335 519.369 170.693 517.75 171.409 516.415C172.125 515.08 173.097 514.062 174.324 513.364C175.551 512.659 176.932 512.307 178.466 512.307C179.477 512.307 180.415 512.449 181.278 512.733C182.148 513.017 182.918 513.432 183.588 513.977C184.259 514.517 184.804 515.179 185.224 515.963C185.651 516.747 185.923 517.645 186.043 518.656ZM188.689 530V512.545H200.45V515.588H192.379V519.747H199.845V522.79H192.379V526.957H200.484V530H188.689ZM209.572 530H203.384V512.545H209.623C211.379 512.545 212.89 512.895 214.157 513.594C215.424 514.287 216.398 515.284 217.08 516.585C217.768 517.886 218.112 519.443 218.112 521.256C218.112 523.074 217.768 524.636 217.08 525.943C216.398 527.25 215.418 528.253 214.14 528.952C212.867 529.651 211.344 530 209.572 530ZM207.075 526.838H209.418C210.509 526.838 211.427 526.645 212.171 526.259C212.921 525.866 213.484 525.261 213.859 524.443C214.239 523.619 214.43 522.557 214.43 521.256C214.43 519.966 214.239 518.912 213.859 518.094C213.484 517.276 212.924 516.673 212.18 516.287C211.435 515.901 210.518 515.707 209.427 515.707H207.075V526.838ZM224.536 512.545V530H220.845V512.545H224.536Z" fill="black"/>
<rect x="30.5" y="390.5" width="299" height="49" rx="9.5" stroke="black"/>
<line x1="73.9979" y1="427.5" x2="313.998" y2="426.474" stroke="black"/>
<path d="M80.3807 418.682V405.182H81.8381V406.741H82.017C82.1278 406.571 82.2813 406.354 82.4773 406.089C82.6776 405.821 82.9631 405.582 83.3338 405.374C83.7088 405.161 84.2159 405.054 84.8551 405.054C85.6818 405.054 86.4105 405.261 87.0412 405.674C87.6719 406.087 88.1641 406.673 88.5178 407.432C88.8714 408.19 89.0483 409.085 89.0483 410.116C89.0483 411.156 88.8714 412.058 88.5178 412.82C88.1641 413.579 87.674 414.167 87.0476 414.585C86.4212 414.998 85.6989 415.205 84.8807 415.205C84.25 415.205 83.745 415.1 83.3658 414.891C82.9865 414.678 82.6946 414.437 82.4901 414.169C82.2855 413.896 82.1278 413.67 82.017 413.491H81.8892V418.682H80.3807ZM81.8636 410.091C81.8636 410.832 81.9723 411.487 82.1896 412.053C82.407 412.616 82.7244 413.057 83.142 413.376C83.5597 413.692 84.071 413.849 84.6761 413.849C85.3068 413.849 85.8331 413.683 86.255 413.351C86.6811 413.014 87.0007 412.562 87.2138 411.996C87.4311 411.425 87.5398 410.79 87.5398 410.091C87.5398 409.401 87.4332 408.778 87.2202 408.224C87.0114 407.666 86.6939 407.225 86.2678 406.901C85.8459 406.573 85.3153 406.409 84.6761 406.409C84.0625 406.409 83.5469 406.565 83.1293 406.876C82.7116 407.183 82.3963 407.613 82.1832 408.167C81.9702 408.717 81.8636 409.358 81.8636 410.091ZM94.2386 415.23C93.6165 415.23 93.0518 415.113 92.5447 414.879C92.0376 414.64 91.6349 414.297 91.3366 413.849C91.0384 413.398 90.8892 412.852 90.8892 412.213C90.8892 411.651 91 411.195 91.2216 410.845C91.4432 410.491 91.7393 410.214 92.1101 410.014C92.4808 409.814 92.8899 409.665 93.3374 409.567C93.7891 409.464 94.2429 409.384 94.6989 409.324C95.2955 409.247 95.7791 409.19 96.1499 409.151C96.5249 409.109 96.7976 409.038 96.968 408.94C97.1428 408.842 97.2301 408.672 97.2301 408.429V408.378C97.2301 407.747 97.0575 407.257 96.7124 406.908C96.3714 406.558 95.8537 406.384 95.1591 406.384C94.4389 406.384 93.8743 406.541 93.4652 406.857C93.0561 407.172 92.7685 407.509 92.6023 407.866L91.1705 407.355C91.4261 406.759 91.767 406.294 92.1932 405.962C92.6236 405.625 93.0923 405.391 93.5994 405.259C94.1108 405.122 94.6136 405.054 95.108 405.054C95.4233 405.054 95.7855 405.092 96.1946 405.169C96.608 405.241 97.0064 405.393 97.3899 405.623C97.7777 405.853 98.0994 406.2 98.3551 406.665C98.6108 407.129 98.7386 407.751 98.7386 408.531V415H97.2301V413.67H97.1534C97.0511 413.884 96.8807 414.112 96.642 414.354C96.4034 414.597 96.0859 414.804 95.6896 414.974C95.2933 415.145 94.8097 415.23 94.2386 415.23ZM94.4688 413.875C95.0653 413.875 95.5682 413.758 95.9773 413.523C96.3906 413.289 96.7017 412.987 96.9105 412.616C97.1236 412.245 97.2301 411.855 97.2301 411.446V410.065C97.1662 410.142 97.0256 410.212 96.8082 410.276C96.5952 410.336 96.348 410.389 96.0668 410.436C95.7898 410.479 95.5192 410.517 95.255 410.551C94.995 410.581 94.7841 410.607 94.6222 410.628C94.2301 410.679 93.8636 410.762 93.5227 410.877C93.1861 410.988 92.9134 411.156 92.7045 411.382C92.5 411.604 92.3977 411.906 92.3977 412.29C92.3977 412.814 92.5916 413.21 92.9794 413.479C93.3714 413.743 93.8679 413.875 94.4688 413.875ZM108.447 407.381L107.091 407.764C107.006 407.538 106.881 407.319 106.714 407.106C106.552 406.888 106.331 406.71 106.05 406.569C105.768 406.428 105.408 406.358 104.969 406.358C104.368 406.358 103.868 406.496 103.467 406.773C103.071 407.046 102.873 407.393 102.873 407.815C102.873 408.19 103.009 408.487 103.282 408.704C103.555 408.921 103.981 409.102 104.56 409.247L106.018 409.605C106.895 409.818 107.55 410.144 107.98 410.583C108.41 411.018 108.626 411.578 108.626 412.264C108.626 412.827 108.464 413.33 108.14 413.773C107.82 414.216 107.373 414.565 106.797 414.821C106.222 415.077 105.553 415.205 104.79 415.205C103.789 415.205 102.96 414.987 102.304 414.553C101.648 414.118 101.232 413.483 101.057 412.648L102.489 412.29C102.626 412.818 102.883 413.214 103.263 413.479C103.646 413.743 104.147 413.875 104.765 413.875C105.468 413.875 106.026 413.726 106.439 413.428C106.857 413.125 107.066 412.763 107.066 412.341C107.066 412 106.947 411.714 106.708 411.484C106.469 411.25 106.103 411.075 105.608 410.96L103.972 410.577C103.073 410.364 102.412 410.033 101.991 409.586C101.573 409.134 101.364 408.57 101.364 407.892C101.364 407.338 101.52 406.848 101.831 406.422C102.146 405.996 102.574 405.661 103.116 405.418C103.661 405.175 104.279 405.054 104.969 405.054C105.941 405.054 106.704 405.267 107.258 405.693C107.816 406.119 108.212 406.682 108.447 407.381ZM117.851 407.381L116.496 407.764C116.411 407.538 116.285 407.319 116.119 407.106C115.957 406.888 115.735 406.71 115.454 406.569C115.173 406.428 114.812 406.358 114.374 406.358C113.773 406.358 113.272 406.496 112.871 406.773C112.475 407.046 112.277 407.393 112.277 407.815C112.277 408.19 112.413 408.487 112.686 408.704C112.959 408.921 113.385 409.102 113.964 409.247L115.422 409.605C116.3 409.818 116.954 410.144 117.384 410.583C117.815 411.018 118.03 411.578 118.03 412.264C118.03 412.827 117.868 413.33 117.544 413.773C117.224 414.216 116.777 414.565 116.202 414.821C115.626 415.077 114.957 415.205 114.195 415.205C113.193 415.205 112.364 414.987 111.708 414.553C111.052 414.118 110.636 413.483 110.462 412.648L111.893 412.29C112.03 412.818 112.288 413.214 112.667 413.479C113.05 413.743 113.551 413.875 114.169 413.875C114.872 413.875 115.43 413.726 115.844 413.428C116.261 413.125 116.47 412.763 116.47 412.341C116.47 412 116.351 411.714 116.112 411.484C115.874 411.25 115.507 411.075 115.013 410.96L113.376 410.577C112.477 410.364 111.817 410.033 111.395 409.586C110.977 409.134 110.768 408.57 110.768 407.892C110.768 407.338 110.924 406.848 111.235 406.422C111.55 405.996 111.979 405.661 112.52 405.418C113.065 405.175 113.683 405.054 114.374 405.054C115.345 405.054 116.108 405.267 116.662 405.693C117.22 406.119 117.616 406.682 117.851 407.381ZM122.525 415L119.534 405.182H121.119L123.241 412.699H123.343L125.44 405.182H127.051L129.122 412.673H129.224L131.346 405.182H132.931L129.94 415H128.457L126.309 407.457H126.156L124.008 415H122.525ZM138.58 415.205C137.694 415.205 136.916 414.994 136.247 414.572C135.582 414.15 135.062 413.56 134.688 412.801C134.317 412.043 134.131 411.156 134.131 410.142C134.131 409.119 134.317 408.227 134.688 407.464C135.062 406.701 135.582 406.109 136.247 405.687C136.916 405.265 137.694 405.054 138.58 405.054C139.467 405.054 140.242 405.265 140.907 405.687C141.576 406.109 142.096 406.701 142.467 407.464C142.842 408.227 143.029 409.119 143.029 410.142C143.029 411.156 142.842 412.043 142.467 412.801C142.096 413.56 141.576 414.15 140.907 414.572C140.242 414.994 139.467 415.205 138.58 415.205ZM138.58 413.849C139.254 413.849 139.808 413.677 140.242 413.332C140.677 412.987 140.999 412.533 141.207 411.97C141.416 411.408 141.521 410.798 141.521 410.142C141.521 409.486 141.416 408.874 141.207 408.308C140.999 407.741 140.677 407.283 140.242 406.933C139.808 406.584 139.254 406.409 138.58 406.409C137.907 406.409 137.353 406.584 136.918 406.933C136.484 407.283 136.162 407.741 135.953 408.308C135.744 408.874 135.64 409.486 135.64 410.142C135.64 410.798 135.744 411.408 135.953 411.97C136.162 412.533 136.484 412.987 136.918 413.332C137.353 413.677 137.907 413.849 138.58 413.849ZM145.332 415V405.182H146.789V406.665H146.892C147.07 406.179 147.394 405.785 147.863 405.482C148.332 405.18 148.86 405.028 149.448 405.028C149.559 405.028 149.698 405.031 149.864 405.035C150.03 405.039 150.156 405.045 150.241 405.054V406.588C150.19 406.575 150.073 406.556 149.889 406.531C149.71 406.501 149.521 406.486 149.32 406.486C148.843 406.486 148.417 406.586 148.042 406.786C147.671 406.982 147.377 407.255 147.16 407.604C146.947 407.95 146.84 408.344 146.84 408.787V415H145.332ZM155.438 415.205C154.619 415.205 153.897 414.998 153.271 414.585C152.644 414.167 152.154 413.579 151.801 412.82C151.447 412.058 151.27 411.156 151.27 410.116C151.27 409.085 151.447 408.19 151.801 407.432C152.154 406.673 152.646 406.087 153.277 405.674C153.908 405.261 154.637 405.054 155.463 405.054C156.102 405.054 156.607 405.161 156.978 405.374C157.353 405.582 157.639 405.821 157.835 406.089C158.035 406.354 158.191 406.571 158.301 406.741H158.429V401.909H159.938V415H158.48V413.491H158.301C158.191 413.67 158.033 413.896 157.828 414.169C157.624 414.437 157.332 414.678 156.953 414.891C156.573 415.1 156.068 415.205 155.438 415.205ZM155.642 413.849C156.247 413.849 156.759 413.692 157.176 413.376C157.594 413.057 157.911 412.616 158.129 412.053C158.346 411.487 158.455 410.832 158.455 410.091C158.455 409.358 158.348 408.717 158.135 408.167C157.922 407.613 157.607 407.183 157.189 406.876C156.771 406.565 156.256 406.409 155.642 406.409C155.003 406.409 154.47 406.573 154.044 406.901C153.622 407.225 153.305 407.666 153.092 408.224C152.883 408.778 152.779 409.401 152.779 410.091C152.779 410.79 152.885 411.425 153.098 411.996C153.316 412.562 153.635 413.014 154.057 413.351C154.483 413.683 155.012 413.849 155.642 413.849Z" fill="#D9D9D9"/>
<path d="M53.5781 409.68V408C53.5781 407.297 53.3177 406.698 52.7969 406.203C52.3021 405.682 51.7031 405.422 51 405.422C50.2969 405.422 49.6849 405.682 49.1641 406.203C48.6693 406.698 48.4219 407.297 48.4219 408V409.68H53.5781ZM49.8281 416.672C50.1667 417.01 50.5573 417.18 51 417.18C51.4427 417.18 51.8333 417.01 52.1719 416.672C52.5104 416.333 52.6797 415.943 52.6797 415.5C52.6797 415.057 52.5104 414.667 52.1719 414.328C51.8333 413.99 51.4427 413.82 51 413.82C50.5573 413.82 50.1667 413.99 49.8281 414.328C49.4896 414.667 49.3203 415.057 49.3203 415.5C49.3203 415.943 49.4896 416.333 49.8281 416.672ZM56 409.68C56.4427 409.68 56.8333 409.849 57.1719 410.188C57.5104 410.5 57.6797 410.878 57.6797 411.32V419.68C57.6797 420.122 57.5104 420.513 57.1719 420.852C56.8333 421.164 56.4427 421.32 56 421.32H46C45.5573 421.32 45.1667 421.164 44.8281 420.852C44.4896 420.513 44.3203 420.122 44.3203 419.68V411.32C44.3203 410.878 44.4896 410.5 44.8281 410.188C45.1667 409.849 45.5573 409.68 46 409.68H46.8203V408C46.8203 406.854 47.224 405.878 48.0312 405.07C48.8646 404.237 49.8542 403.82 51 403.82C52.1458 403.82 53.1224 404.237 53.9297 405.07C54.763 405.878 55.1797 406.854 55.1797 408V409.68H56Z" fill="black"/>
<line x1="73.9979" y1="362.526" x2="313.998" y2="361.5" stroke="black"/>
<path d="M86.5682 346.986V341.182H88.0767V351H86.5682V349.338H86.4659C86.2358 349.837 85.8778 350.261 85.392 350.61C84.9063 350.955 84.2926 351.128 83.5511 351.128C82.9375 351.128 82.392 350.994 81.9148 350.725C81.4375 350.452 81.0625 350.043 80.7898 349.498C80.517 348.948 80.3807 348.256 80.3807 347.42V341.182H81.8892V347.318C81.8892 348.034 82.0895 348.605 82.4901 349.031C82.8949 349.457 83.4105 349.67 84.0369 349.67C84.4119 349.67 84.7933 349.575 85.1811 349.383C85.5732 349.191 85.9013 348.897 86.1655 348.501C86.4339 348.104 86.5682 347.599 86.5682 346.986ZM97.7942 343.381L96.4391 343.764C96.3539 343.538 96.2282 343.319 96.062 343.106C95.9 342.888 95.6784 342.71 95.3972 342.569C95.1159 342.428 94.7559 342.358 94.3169 342.358C93.7161 342.358 93.2154 342.496 92.8148 342.773C92.4185 343.046 92.2203 343.393 92.2203 343.815C92.2203 344.19 92.3567 344.487 92.6294 344.704C92.9022 344.921 93.3283 345.102 93.9078 345.247L95.3652 345.605C96.2431 345.818 96.8972 346.144 97.3276 346.583C97.758 347.018 97.9732 347.578 97.9732 348.264C97.9732 348.827 97.8113 349.33 97.4874 349.773C97.1678 350.216 96.7203 350.565 96.1451 350.821C95.5698 351.077 94.9007 351.205 94.138 351.205C93.1365 351.205 92.3077 350.987 91.6515 350.553C90.9952 350.118 90.5797 349.483 90.405 348.648L91.8368 348.29C91.9732 348.818 92.231 349.214 92.6103 349.479C92.9938 349.743 93.4945 349.875 94.1124 349.875C94.8155 349.875 95.3738 349.726 95.7871 349.428C96.2047 349.125 96.4135 348.763 96.4135 348.341C96.4135 348 96.2942 347.714 96.0556 347.484C95.8169 347.25 95.4505 347.075 94.9561 346.96L93.3198 346.577C92.4206 346.364 91.7601 346.033 91.3382 345.586C90.9206 345.134 90.7118 344.57 90.7118 343.892C90.7118 343.338 90.8674 342.848 91.1784 342.422C91.4938 341.996 91.9221 341.661 92.4632 341.418C93.0087 341.175 93.6266 341.054 94.3169 341.054C95.2885 341.054 96.0513 341.267 96.6053 341.693C97.1635 342.119 97.5598 342.682 97.7942 343.381ZM104.36 351.205C103.414 351.205 102.598 350.996 101.912 350.578C101.23 350.156 100.704 349.568 100.333 348.814C99.967 348.055 99.7837 347.173 99.7837 346.168C99.7837 345.162 99.967 344.276 100.333 343.509C100.704 342.737 101.22 342.136 101.88 341.706C102.545 341.271 103.321 341.054 104.207 341.054C104.718 341.054 105.223 341.139 105.722 341.31C106.221 341.48 106.674 341.757 107.083 342.141C107.493 342.52 107.819 343.023 108.061 343.649C108.304 344.276 108.426 345.047 108.426 345.963V346.602H100.858V345.298H106.892C106.892 344.744 106.781 344.25 106.559 343.815C106.342 343.381 106.031 343.038 105.626 342.786C105.225 342.535 104.752 342.409 104.207 342.409C103.606 342.409 103.086 342.558 102.647 342.857C102.213 343.151 101.878 343.534 101.644 344.007C101.409 344.48 101.292 344.987 101.292 345.528V346.398C101.292 347.139 101.42 347.768 101.676 348.283C101.936 348.795 102.296 349.185 102.756 349.453C103.216 349.717 103.751 349.849 104.36 349.849C104.757 349.849 105.115 349.794 105.434 349.683C105.758 349.568 106.037 349.398 106.272 349.172C106.506 348.942 106.687 348.656 106.815 348.315L108.272 348.724C108.119 349.219 107.861 349.653 107.499 350.028C107.137 350.399 106.689 350.689 106.157 350.898C105.624 351.102 105.025 351.205 104.36 351.205ZM110.721 351V341.182H112.178V342.665H112.28C112.459 342.179 112.783 341.785 113.252 341.482C113.721 341.18 114.249 341.028 114.837 341.028C114.948 341.028 115.086 341.031 115.252 341.035C115.419 341.039 115.544 341.045 115.63 341.054V342.588C115.578 342.575 115.461 342.556 115.278 342.531C115.099 342.501 114.909 342.486 114.709 342.486C114.232 342.486 113.806 342.586 113.431 342.786C113.06 342.982 112.766 343.255 112.549 343.604C112.336 343.95 112.229 344.344 112.229 344.787V351H110.721ZM118.926 345.094V351H117.418V341.182H118.875V342.716H119.003C119.233 342.217 119.583 341.817 120.051 341.514C120.52 341.207 121.125 341.054 121.867 341.054C122.531 341.054 123.113 341.19 123.612 341.463C124.11 341.732 124.498 342.141 124.775 342.69C125.052 343.236 125.191 343.926 125.191 344.761V351H123.682V344.864C123.682 344.092 123.482 343.491 123.081 343.061C122.681 342.626 122.131 342.409 121.432 342.409C120.95 342.409 120.52 342.513 120.141 342.722C119.766 342.931 119.47 343.236 119.252 343.636C119.035 344.037 118.926 344.523 118.926 345.094ZM130.836 351.23C130.214 351.23 129.65 351.113 129.142 350.879C128.635 350.64 128.233 350.297 127.934 349.849C127.636 349.398 127.487 348.852 127.487 348.213C127.487 347.651 127.598 347.195 127.819 346.845C128.041 346.491 128.337 346.214 128.708 346.014C129.078 345.814 129.488 345.665 129.935 345.567C130.387 345.464 130.841 345.384 131.297 345.324C131.893 345.247 132.377 345.19 132.748 345.151C133.123 345.109 133.395 345.038 133.566 344.94C133.74 344.842 133.828 344.672 133.828 344.429V344.378C133.828 343.747 133.655 343.257 133.31 342.908C132.969 342.558 132.451 342.384 131.757 342.384C131.037 342.384 130.472 342.541 130.063 342.857C129.654 343.172 129.366 343.509 129.2 343.866L127.768 343.355C128.024 342.759 128.365 342.294 128.791 341.962C129.221 341.625 129.69 341.391 130.197 341.259C130.708 341.122 131.211 341.054 131.706 341.054C132.021 341.054 132.383 341.092 132.792 341.169C133.206 341.241 133.604 341.393 133.988 341.623C134.375 341.853 134.697 342.2 134.953 342.665C135.208 343.129 135.336 343.751 135.336 344.531V351H133.828V349.67H133.751C133.649 349.884 133.478 350.112 133.24 350.354C133.001 350.597 132.684 350.804 132.287 350.974C131.891 351.145 131.407 351.23 130.836 351.23ZM131.066 349.875C131.663 349.875 132.166 349.758 132.575 349.523C132.988 349.289 133.299 348.987 133.508 348.616C133.721 348.245 133.828 347.855 133.828 347.446V346.065C133.764 346.142 133.623 346.212 133.406 346.276C133.193 346.336 132.946 346.389 132.664 346.436C132.387 346.479 132.117 346.517 131.853 346.551C131.593 346.581 131.382 346.607 131.22 346.628C130.828 346.679 130.461 346.762 130.12 346.877C129.784 346.988 129.511 347.156 129.302 347.382C129.098 347.604 128.995 347.906 128.995 348.29C128.995 348.814 129.189 349.21 129.577 349.479C129.969 349.743 130.466 349.875 131.066 349.875ZM138.09 351V341.182H139.547V342.716H139.675C139.879 342.192 140.21 341.785 140.666 341.495C141.122 341.201 141.669 341.054 142.308 341.054C142.956 341.054 143.495 341.201 143.926 341.495C144.36 341.785 144.699 342.192 144.942 342.716H145.044C145.296 342.209 145.673 341.806 146.176 341.508C146.678 341.205 147.281 341.054 147.985 341.054C148.862 341.054 149.58 341.329 150.139 341.879C150.697 342.424 150.976 343.274 150.976 344.429V351H149.468V344.429C149.468 343.705 149.269 343.187 148.873 342.876C148.477 342.565 148.01 342.409 147.473 342.409C146.783 342.409 146.248 342.618 145.869 343.036C145.49 343.449 145.3 343.973 145.3 344.608V351H143.766V344.276C143.766 343.717 143.585 343.268 143.222 342.927C142.86 342.582 142.394 342.409 141.823 342.409C141.431 342.409 141.064 342.513 140.723 342.722C140.387 342.931 140.114 343.221 139.905 343.592C139.7 343.958 139.598 344.382 139.598 344.864V351H138.09ZM157.851 351.205C156.905 351.205 156.089 350.996 155.403 350.578C154.721 350.156 154.194 349.568 153.824 348.814C153.457 348.055 153.274 347.173 153.274 346.168C153.274 345.162 153.457 344.276 153.824 343.509C154.194 342.737 154.71 342.136 155.371 341.706C156.035 341.271 156.811 341.054 157.697 341.054C158.209 341.054 158.714 341.139 159.212 341.31C159.711 341.48 160.165 341.757 160.574 342.141C160.983 342.52 161.309 343.023 161.552 343.649C161.795 344.276 161.916 345.047 161.916 345.963V346.602H154.348V345.298H160.382C160.382 344.744 160.271 344.25 160.05 343.815C159.832 343.381 159.521 343.038 159.116 342.786C158.716 342.535 158.243 342.409 157.697 342.409C157.096 342.409 156.577 342.558 156.138 342.857C155.703 343.151 155.368 343.534 155.134 344.007C154.9 344.48 154.782 344.987 154.782 345.528V346.398C154.782 347.139 154.91 347.768 155.166 348.283C155.426 348.795 155.786 349.185 156.246 349.453C156.706 349.717 157.241 349.849 157.851 349.849C158.247 349.849 158.605 349.794 158.925 349.683C159.248 349.568 159.528 349.398 159.762 349.172C159.996 348.942 160.177 348.656 160.305 348.315L161.763 348.724C161.609 349.219 161.351 349.653 160.989 350.028C160.627 350.399 160.18 350.689 159.647 350.898C159.114 351.102 158.515 351.205 157.851 351.205Z" fill="#D9D9D9"/>
<rect x="30.5" y="326.5" width="299" height="49" rx="9.5" stroke="black"/>
<path d="M47.8717 350.617C49.4081 349.992 50.8795 349.68 52.2857 349.68C53.692 349.68 55.1503 349.992 56.6607 350.617C58.1972 351.216 58.9654 352.01 58.9654 353V354.68H45.606V353C45.606 352.01 46.3612 351.216 47.8717 350.617ZM54.6295 347.023C53.9784 347.674 53.1972 348 52.2857 348C51.3743 348 50.593 347.674 49.942 347.023C49.2909 346.372 48.9654 345.591 48.9654 344.68C48.9654 343.768 49.2909 342.987 49.942 342.336C50.593 341.659 51.3743 341.32 52.2857 341.32C53.1972 341.32 53.9784 341.659 54.6295 342.336C55.2805 342.987 55.606 343.768 55.606 344.68C55.606 345.591 55.2805 346.372 54.6295 347.023Z" fill="black"/>
<path d="M103.088 246.875H98.1108C98.0199 246.231 97.8343 245.659 97.554 245.159C97.2737 244.652 96.9138 244.22 96.4744 243.864C96.035 243.508 95.5275 243.235 94.9517 243.045C94.3835 242.856 93.7661 242.761 93.0994 242.761C91.8949 242.761 90.8456 243.061 89.9517 243.659C89.0578 244.25 88.3646 245.114 87.8722 246.25C87.3797 247.379 87.1335 248.75 87.1335 250.364C87.1335 252.023 87.3797 253.417 87.8722 254.545C88.3722 255.674 89.0691 256.527 89.9631 257.102C90.857 257.678 91.8911 257.966 93.0653 257.966C93.7244 257.966 94.3343 257.879 94.8949 257.705C95.4631 257.53 95.9669 257.277 96.4062 256.943C96.8456 256.602 97.2093 256.189 97.4972 255.705C97.7926 255.22 97.9972 254.667 98.1108 254.045L103.088 254.068C102.959 255.136 102.637 256.167 102.122 257.159C101.615 258.144 100.929 259.027 100.065 259.807C99.2093 260.58 98.1866 261.193 96.9972 261.648C95.8153 262.095 94.4782 262.318 92.9858 262.318C90.91 262.318 89.054 261.848 87.4176 260.909C85.7888 259.97 84.5009 258.61 83.554 256.83C82.6146 255.049 82.1449 252.894 82.1449 250.364C82.1449 247.826 82.6222 245.667 83.5767 243.886C84.5313 242.106 85.8267 240.75 87.4631 239.818C89.0994 238.879 90.9403 238.409 92.9858 238.409C94.3343 238.409 95.5843 238.598 96.7358 238.977C97.8949 239.356 98.9214 239.909 99.8153 240.636C100.709 241.356 101.437 242.239 101.997 243.284C102.565 244.33 102.929 245.527 103.088 246.875ZM110.19 262H104.918L112.952 238.727H119.293L127.315 262H122.043L116.213 244.045H116.031L110.19 262ZM109.861 252.852H122.315V256.693H109.861V252.852ZM149.557 246.875H144.58C144.489 246.231 144.303 245.659 144.023 245.159C143.742 244.652 143.383 244.22 142.943 243.864C142.504 243.508 141.996 243.235 141.42 243.045C140.852 242.856 140.235 242.761 139.568 242.761C138.364 242.761 137.314 243.061 136.42 243.659C135.527 244.25 134.833 245.114 134.341 246.25C133.848 247.379 133.602 248.75 133.602 250.364C133.602 252.023 133.848 253.417 134.341 254.545C134.841 255.674 135.538 256.527 136.432 257.102C137.326 257.678 138.36 257.966 139.534 257.966C140.193 257.966 140.803 257.879 141.364 257.705C141.932 257.53 142.436 257.277 142.875 256.943C143.314 256.602 143.678 256.189 143.966 255.705C144.261 255.22 144.466 254.667 144.58 254.045L149.557 254.068C149.428 255.136 149.106 256.167 148.591 257.159C148.083 258.144 147.398 259.027 146.534 259.807C145.678 260.58 144.655 261.193 143.466 261.648C142.284 262.095 140.947 262.318 139.455 262.318C137.379 262.318 135.523 261.848 133.886 260.909C132.258 259.97 130.97 258.61 130.023 256.83C129.083 255.049 128.614 252.894 128.614 250.364C128.614 247.826 129.091 245.667 130.045 243.886C131 242.106 132.295 240.75 133.932 239.818C135.568 238.879 137.409 238.409 139.455 238.409C140.803 238.409 142.053 238.598 143.205 238.977C144.364 239.356 145.39 239.909 146.284 240.636C147.178 241.356 147.905 242.239 148.466 243.284C149.034 244.33 149.398 245.527 149.557 246.875ZM153.085 262V238.727H158.006V248.33H167.994V238.727H172.903V262H167.994V252.386H158.006V262H153.085ZM176.96 262V238.727H192.642V242.784H181.881V248.33H191.835V252.386H181.881V257.943H192.688V262H176.96ZM200.565 262H195.293L203.327 238.727H209.668L217.69 262H212.418L206.588 244.045H206.406L200.565 262ZM200.236 252.852H212.69V256.693H200.236V252.852ZM234.83 246.25C234.67 245.697 234.447 245.208 234.159 244.784C233.871 244.352 233.519 243.989 233.102 243.693C232.693 243.39 232.223 243.159 231.693 243C231.17 242.841 230.591 242.761 229.955 242.761C228.765 242.761 227.72 243.057 226.818 243.648C225.924 244.239 225.227 245.098 224.727 246.227C224.227 247.348 223.977 248.72 223.977 250.341C223.977 251.962 224.223 253.341 224.716 254.477C225.208 255.614 225.905 256.481 226.807 257.08C227.708 257.67 228.773 257.966 230 257.966C231.114 257.966 232.064 257.769 232.852 257.375C233.648 256.973 234.254 256.409 234.67 255.682C235.095 254.955 235.307 254.095 235.307 253.102L236.307 253.25H230.307V249.545H240.045V252.477C240.045 254.523 239.614 256.28 238.75 257.75C237.886 259.212 236.697 260.341 235.182 261.136C233.667 261.924 231.932 262.318 229.977 262.318C227.795 262.318 225.879 261.837 224.227 260.875C222.576 259.905 221.288 258.53 220.364 256.75C219.447 254.962 218.989 252.841 218.989 250.386C218.989 248.5 219.261 246.818 219.807 245.341C220.36 243.856 221.133 242.598 222.125 241.568C223.117 240.538 224.273 239.754 225.591 239.216C226.909 238.678 228.337 238.409 229.875 238.409C231.193 238.409 232.42 238.602 233.557 238.989C234.693 239.367 235.701 239.905 236.58 240.602C237.466 241.299 238.189 242.129 238.75 243.091C239.311 244.045 239.67 245.098 239.83 246.25H234.83ZM243.741 262V238.727H248.662V257.943H258.639V262H243.741ZM261.898 262V238.727H277.58V242.784H266.818V248.33H276.773V252.386H266.818V257.943H277.625V262H261.898Z" fill="black"/>
<rect x="105" y="70" width="150" height="150" rx="5" fill="#D9D9D9"/>
</svg>
