<svg width="360" height="800" viewBox="0 0 360 800" fill="none" xmlns="http://www.w3.org/2000/svg">
<g clip-path="url(#clip0_3_2)">
<rect width="360" height="800" fill="white"/>
<path d="M0 0H360V800H0V0Z" fill="white"/>
<rect x="36.5" y="702.5" width="285" height="81" rx="9.5" stroke="black"/>
<rect x="50" y="715" width="55" height="55" rx="10" fill="#D9D9D9"/>
<path d="M136 770.159C135.144 770.159 134.415 769.926 133.812 769.46C133.21 768.991 132.75 768.311 132.432 767.42C132.114 766.527 131.955 765.447 131.955 764.182C131.955 762.924 132.114 761.85 132.432 760.96C132.754 760.066 133.216 759.384 133.818 758.915C134.424 758.441 135.152 758.205 136 758.205C136.848 758.205 137.574 758.441 138.176 758.915C138.782 759.384 139.244 760.066 139.562 760.96C139.884 761.85 140.045 762.924 140.045 764.182C140.045 765.447 139.886 766.527 139.568 767.42C139.25 768.311 138.79 768.991 138.188 769.46C137.585 769.926 136.856 770.159 136 770.159ZM136 768.909C136.848 768.909 137.508 768.5 137.977 767.682C138.447 766.864 138.682 765.697 138.682 764.182C138.682 763.174 138.574 762.316 138.358 761.608C138.146 760.9 137.839 760.36 137.438 759.989C137.04 759.617 136.561 759.432 136 759.432C135.159 759.432 134.502 759.847 134.028 760.676C133.555 761.502 133.318 762.67 133.318 764.182C133.318 765.189 133.424 766.045 133.636 766.75C133.848 767.455 134.153 767.991 134.551 768.358C134.953 768.725 135.436 768.909 136 768.909ZM146 770.159C145.144 770.159 144.415 769.926 143.812 769.46C143.21 768.991 142.75 768.311 142.432 767.42C142.114 766.527 141.955 765.447 141.955 764.182C141.955 762.924 142.114 761.85 142.432 760.96C142.754 760.066 143.216 759.384 143.818 758.915C144.424 758.441 145.152 758.205 146 758.205C146.848 758.205 147.574 758.441 148.176 758.915C148.782 759.384 149.244 760.066 149.562 760.96C149.884 761.85 150.045 762.924 150.045 764.182C150.045 765.447 149.886 766.527 149.568 767.42C149.25 768.311 148.79 768.991 148.188 769.46C147.585 769.926 146.856 770.159 146 770.159ZM146 768.909C146.848 768.909 147.508 768.5 147.977 767.682C148.447 766.864 148.682 765.697 148.682 764.182C148.682 763.174 148.574 762.316 148.358 761.608C148.146 760.9 147.839 760.36 147.438 759.989C147.04 759.617 146.561 759.432 146 759.432C145.159 759.432 144.502 759.847 144.028 760.676C143.555 761.502 143.318 762.67 143.318 764.182C143.318 765.189 143.424 766.045 143.636 766.75C143.848 767.455 144.153 767.991 144.551 768.358C144.953 768.725 145.436 768.909 146 768.909ZM156 770.159C155.144 770.159 154.415 769.926 153.812 769.46C153.21 768.991 152.75 768.311 152.432 767.42C152.114 766.527 151.955 765.447 151.955 764.182C151.955 762.924 152.114 761.85 152.432 760.96C152.754 760.066 153.216 759.384 153.818 758.915C154.424 758.441 155.152 758.205 156 758.205C156.848 758.205 157.574 758.441 158.176 758.915C158.782 759.384 159.244 760.066 159.562 760.96C159.884 761.85 160.045 762.924 160.045 764.182C160.045 765.447 159.886 766.527 159.568 767.42C159.25 768.311 158.79 768.991 158.188 769.46C157.585 769.926 156.856 770.159 156 770.159ZM156 768.909C156.848 768.909 157.508 768.5 157.977 767.682C158.447 766.864 158.682 765.697 158.682 764.182C158.682 763.174 158.574 762.316 158.358 761.608C158.146 760.9 157.839 760.36 157.438 759.989C157.04 759.617 156.561 759.432 156 759.432C155.159 759.432 154.502 759.847 154.028 760.676C153.555 761.502 153.318 762.67 153.318 764.182C153.318 765.189 153.424 766.045 153.636 766.75C153.848 767.455 154.153 767.991 154.551 768.358C154.953 768.725 155.436 768.909 156 768.909ZM166 770.159C165.144 770.159 164.415 769.926 163.812 769.46C163.21 768.991 162.75 768.311 162.432 767.42C162.114 766.527 161.955 765.447 161.955 764.182C161.955 762.924 162.114 761.85 162.432 760.96C162.754 760.066 163.216 759.384 163.818 758.915C164.424 758.441 165.152 758.205 166 758.205C166.848 758.205 167.574 758.441 168.176 758.915C168.782 759.384 169.244 760.066 169.562 760.96C169.884 761.85 170.045 762.924 170.045 764.182C170.045 765.447 169.886 766.527 169.568 767.42C169.25 768.311 168.79 768.991 168.188 769.46C167.585 769.926 166.856 770.159 166 770.159ZM166 768.909C166.848 768.909 167.508 768.5 167.977 767.682C168.447 766.864 168.682 765.697 168.682 764.182C168.682 763.174 168.574 762.316 168.358 761.608C168.146 760.9 167.839 760.36 167.438 759.989C167.04 759.617 166.561 759.432 166 759.432C165.159 759.432 164.502 759.847 164.028 760.676C163.555 761.502 163.318 762.67 163.318 764.182C163.318 765.189 163.424 766.045 163.636 766.75C163.848 767.455 164.153 767.991 164.551 768.358C164.953 768.725 165.436 768.909 166 768.909Z" fill="black"/>
<path d="M178.5 760.125C179 760.125 179.486 760.219 179.958 760.406C180.431 760.594 180.854 760.861 181.229 761.208L189.458 769.083H189.833C190.187 769.083 190.484 768.964 190.724 768.724C190.964 768.484 191.083 768.187 191.083 767.833C191.083 767.678 191.069 767.512 191.039 767.337C191.01 767.162 190.906 766.987 190.729 766.812L186.979 763.062L185.396 758.333L183.479 758.812C183.076 758.91 182.715 758.837 182.396 758.594C182.076 758.351 181.917 758.021 181.917 757.604V755.583L180.792 755.021L177.146 759.917C177.118 759.944 177.094 759.976 177.073 760.01C177.052 760.045 177.028 760.083 177 760.125H178.5ZM178.5 761.375H176.875C176.917 761.528 176.979 761.668 177.062 761.795C177.146 761.923 177.243 762.04 177.354 762.146L184.396 768.542C184.59 768.722 184.806 768.858 185.042 768.948C185.278 769.038 185.528 769.083 185.792 769.083H187.646L180.375 762.125C180.125 761.889 179.837 761.705 179.511 761.573C179.186 761.441 178.848 761.375 178.5 761.375ZM185.792 770.333C185.375 770.333 184.979 770.257 184.604 770.104C184.229 769.951 183.882 769.736 183.562 769.458L176.792 763.312C176.153 762.729 175.795 762.014 175.719 761.167C175.642 760.319 175.861 759.549 176.375 758.854L179.583 754.562C179.819 754.243 180.135 754.031 180.531 753.927C180.927 753.823 181.306 753.868 181.667 754.062L182.25 754.354C182.542 754.507 182.767 754.715 182.927 754.979C183.087 755.243 183.167 755.535 183.167 755.854V757.604L184.708 757.208C185.125 757.097 185.528 757.149 185.917 757.365C186.306 757.58 186.569 757.889 186.708 758.292L188.062 762.375L191.604 765.917C191.882 766.194 192.073 766.493 192.177 766.812C192.281 767.132 192.333 767.472 192.333 767.833C192.333 768.528 192.09 769.118 191.604 769.604C191.118 770.09 190.528 770.333 189.833 770.333H185.792Z" fill="black"/>
<path d="M242.594 770.159C241.738 770.159 241.009 769.926 240.406 769.46C239.804 768.991 239.344 768.311 239.026 767.42C238.707 766.527 238.548 765.447 238.548 764.182C238.548 762.924 238.707 761.85 239.026 760.96C239.348 760.066 239.81 759.384 240.412 758.915C241.018 758.441 241.745 758.205 242.594 758.205C243.442 758.205 244.168 758.441 244.77 758.915C245.376 759.384 245.838 760.066 246.156 760.96C246.478 761.85 246.639 762.924 246.639 764.182C246.639 765.447 246.48 766.527 246.162 767.42C245.844 768.311 245.384 768.991 244.781 769.46C244.179 769.926 243.45 770.159 242.594 770.159ZM242.594 768.909C243.442 768.909 244.101 768.5 244.571 767.682C245.041 766.864 245.276 765.697 245.276 764.182C245.276 763.174 245.168 762.316 244.952 761.608C244.74 760.9 244.433 760.36 244.031 759.989C243.634 759.617 243.154 759.432 242.594 759.432C241.753 759.432 241.096 759.847 240.622 760.676C240.149 761.502 239.912 762.67 239.912 764.182C239.912 765.189 240.018 766.045 240.23 766.75C240.442 767.455 240.747 767.991 241.145 768.358C241.546 768.725 242.029 768.909 242.594 768.909ZM252.594 770.159C251.738 770.159 251.009 769.926 250.406 769.46C249.804 768.991 249.344 768.311 249.026 767.42C248.707 766.527 248.548 765.447 248.548 764.182C248.548 762.924 248.707 761.85 249.026 760.96C249.348 760.066 249.81 759.384 250.412 758.915C251.018 758.441 251.745 758.205 252.594 758.205C253.442 758.205 254.168 758.441 254.77 758.915C255.376 759.384 255.838 760.066 256.156 760.96C256.478 761.85 256.639 762.924 256.639 764.182C256.639 765.447 256.48 766.527 256.162 767.42C255.844 768.311 255.384 768.991 254.781 769.46C254.179 769.926 253.45 770.159 252.594 770.159ZM252.594 768.909C253.442 768.909 254.101 768.5 254.571 767.682C255.041 766.864 255.276 765.697 255.276 764.182C255.276 763.174 255.168 762.316 254.952 761.608C254.74 760.9 254.433 760.36 254.031 759.989C253.634 759.617 253.154 759.432 252.594 759.432C251.753 759.432 251.096 759.847 250.622 760.676C250.149 761.502 249.912 762.67 249.912 764.182C249.912 765.189 250.018 766.045 250.23 766.75C250.442 767.455 250.747 767.991 251.145 768.358C251.546 768.725 252.029 768.909 252.594 768.909ZM259.798 768.511C259.518 768.511 259.277 768.411 259.077 768.21C258.876 768.009 258.776 767.769 258.776 767.489C258.776 767.208 258.876 766.968 259.077 766.767C259.277 766.566 259.518 766.466 259.798 766.466C260.079 766.466 260.319 766.566 260.52 766.767C260.721 766.968 260.821 767.208 260.821 767.489C260.821 767.674 260.774 767.845 260.679 768C260.588 768.155 260.465 768.28 260.31 768.375C260.158 768.466 259.988 768.511 259.798 768.511ZM259.798 762.625C259.518 762.625 259.277 762.525 259.077 762.324C258.876 762.123 258.776 761.883 258.776 761.602C258.776 761.322 258.876 761.081 259.077 760.881C259.277 760.68 259.518 760.58 259.798 760.58C260.079 760.58 260.319 760.68 260.52 760.881C260.721 761.081 260.821 761.322 260.821 761.602C260.821 761.788 260.774 761.958 260.679 762.114C260.588 762.269 260.465 762.394 260.31 762.489C260.158 762.58 259.988 762.625 259.798 762.625ZM267 770.159C266.144 770.159 265.415 769.926 264.812 769.46C264.21 768.991 263.75 768.311 263.432 767.42C263.114 766.527 262.955 765.447 262.955 764.182C262.955 762.924 263.114 761.85 263.432 760.96C263.754 760.066 264.216 759.384 264.818 758.915C265.424 758.441 266.152 758.205 267 758.205C267.848 758.205 268.574 758.441 269.176 758.915C269.782 759.384 270.244 760.066 270.562 760.96C270.884 761.85 271.045 762.924 271.045 764.182C271.045 765.447 270.886 766.527 270.568 767.42C270.25 768.311 269.79 768.991 269.188 769.46C268.585 769.926 267.856 770.159 267 770.159ZM267 768.909C267.848 768.909 268.508 768.5 268.977 767.682C269.447 766.864 269.682 765.697 269.682 764.182C269.682 763.174 269.574 762.316 269.358 761.608C269.146 760.9 268.839 760.36 268.438 759.989C268.04 759.617 267.561 759.432 267 759.432C266.159 759.432 265.502 759.847 265.028 760.676C264.555 761.502 264.318 762.67 264.318 764.182C264.318 765.189 264.424 766.045 264.636 766.75C264.848 767.455 265.153 767.991 265.551 768.358C265.953 768.725 266.436 768.909 267 768.909ZM277 770.159C276.144 770.159 275.415 769.926 274.812 769.46C274.21 768.991 273.75 768.311 273.432 767.42C273.114 766.527 272.955 765.447 272.955 764.182C272.955 762.924 273.114 761.85 273.432 760.96C273.754 760.066 274.216 759.384 274.818 758.915C275.424 758.441 276.152 758.205 277 758.205C277.848 758.205 278.574 758.441 279.176 758.915C279.782 759.384 280.244 760.066 280.562 760.96C280.884 761.85 281.045 762.924 281.045 764.182C281.045 765.447 280.886 766.527 280.568 767.42C280.25 768.311 279.79 768.991 279.188 769.46C278.585 769.926 277.856 770.159 277 770.159ZM277 768.909C277.848 768.909 278.508 768.5 278.977 767.682C279.447 766.864 279.682 765.697 279.682 764.182C279.682 763.174 279.574 762.316 279.358 761.608C279.146 760.9 278.839 760.36 278.438 759.989C278.04 759.617 277.561 759.432 277 759.432C276.159 759.432 275.502 759.847 275.028 760.676C274.555 761.502 274.318 762.67 274.318 764.182C274.318 765.189 274.424 766.045 274.636 766.75C274.848 767.455 275.153 767.991 275.551 768.358C275.953 768.725 276.436 768.909 277 768.909Z" fill="black"/>
<path d="M292.5 752.82H297.5V754.5H292.5V752.82ZM300.859 758.172L302.031 756.961C301.849 756.753 301.654 756.557 301.445 756.375C301.263 756.167 301.068 755.971 300.859 755.789L299.688 757C299.036 756.479 298.307 756.076 297.5 755.789C296.719 755.477 295.885 755.32 295 755.32C293.958 755.32 292.982 755.516 292.07 755.906C291.185 756.297 290.391 756.844 289.688 757.547C289.01 758.224 288.477 759.018 288.086 759.93C287.695 760.841 287.5 761.805 287.5 762.82C287.5 763.862 287.695 764.839 288.086 765.75C288.477 766.661 289.01 767.456 289.688 768.133C290.391 768.81 291.185 769.344 292.07 769.734C292.982 770.125 293.958 770.32 295 770.32C296.042 770.32 297.005 770.125 297.891 769.734C298.802 769.344 299.596 768.81 300.273 768.133C300.977 767.456 301.523 766.661 301.914 765.75C302.305 764.839 302.5 763.862 302.5 762.82C302.5 761.935 302.357 761.102 302.07 760.32C301.784 759.513 301.38 758.797 300.859 758.172ZM295.82 763.68H294.18V758.68H295.82V763.68Z" fill="black"/>
<path d="M123.917 714.99V712.455H135.863V714.99H131.41V727H128.37V714.99H123.917ZM137.774 727V716.091H140.799V727H137.774ZM139.294 714.685C138.844 714.685 138.458 714.536 138.136 714.237C137.819 713.934 137.66 713.572 137.66 713.151C137.66 712.734 137.819 712.376 138.136 712.078C138.458 711.775 138.844 711.624 139.294 711.624C139.743 711.624 140.127 711.775 140.444 712.078C140.766 712.376 140.927 712.734 140.927 713.151C140.927 713.572 140.766 713.934 140.444 714.237C140.127 714.536 139.743 714.685 139.294 714.685ZM149.026 716.091V718.364H142.456V716.091H149.026ZM143.947 713.477H146.973V723.648C146.973 723.927 147.016 724.145 147.101 724.301C147.186 724.453 147.304 724.559 147.456 724.621C147.612 724.682 147.792 724.713 147.996 724.713C148.138 724.713 148.28 724.701 148.422 724.678C148.564 724.649 148.673 724.628 148.749 724.614L149.224 726.865C149.073 726.912 148.86 726.967 148.585 727.028C148.311 727.095 147.977 727.135 147.584 727.149C146.855 727.178 146.215 727.08 145.666 726.858C145.122 726.635 144.698 726.29 144.395 725.821C144.092 725.352 143.943 724.76 143.947 724.045V713.477ZM155.808 727.213C154.705 727.213 153.751 726.979 152.946 726.51C152.146 726.036 151.528 725.378 151.092 724.536C150.657 723.688 150.439 722.705 150.439 721.588C150.439 720.461 150.657 719.476 151.092 718.634C151.528 717.786 152.146 717.128 152.946 716.659C153.751 716.186 154.705 715.949 155.808 715.949C156.911 715.949 157.863 716.186 158.663 716.659C159.468 717.128 160.089 717.786 160.524 718.634C160.96 719.476 161.178 720.461 161.178 721.588C161.178 722.705 160.96 723.688 160.524 724.536C160.089 725.378 159.468 726.036 158.663 726.51C157.863 726.979 156.911 727.213 155.808 727.213ZM155.822 724.869C156.324 724.869 156.743 724.727 157.08 724.443C157.416 724.154 157.669 723.761 157.839 723.264C158.015 722.767 158.102 722.201 158.102 721.567C158.102 720.932 158.015 720.366 157.839 719.869C157.669 719.372 157.416 718.979 157.08 718.69C156.743 718.402 156.324 718.257 155.822 718.257C155.316 718.257 154.89 718.402 154.544 718.69C154.203 718.979 153.945 719.372 153.77 719.869C153.599 720.366 153.514 720.932 153.514 721.567C153.514 722.201 153.599 722.767 153.77 723.264C153.945 723.761 154.203 724.154 154.544 724.443C154.89 724.727 155.316 724.869 155.822 724.869ZM166.17 712.455V727H163.145V712.455H166.17ZM173.523 727.213C172.42 727.213 171.466 726.979 170.661 726.51C169.861 726.036 169.243 725.378 168.807 724.536C168.372 723.688 168.154 722.705 168.154 721.588C168.154 720.461 168.372 719.476 168.807 718.634C169.243 717.786 169.861 717.128 170.661 716.659C171.466 716.186 172.42 715.949 173.523 715.949C174.626 715.949 175.578 716.186 176.378 716.659C177.183 717.128 177.803 717.786 178.239 718.634C178.675 719.476 178.892 720.461 178.892 721.588C178.892 722.705 178.675 723.688 178.239 724.536C177.803 725.378 177.183 726.036 176.378 726.51C175.578 726.979 174.626 727.213 173.523 727.213ZM173.537 724.869C174.039 724.869 174.458 724.727 174.794 724.443C175.131 724.154 175.384 723.761 175.554 723.264C175.73 722.767 175.817 722.201 175.817 721.567C175.817 720.932 175.73 720.366 175.554 719.869C175.384 719.372 175.131 718.979 174.794 718.69C174.458 718.402 174.039 718.257 173.537 718.257C173.031 718.257 172.605 718.402 172.259 718.69C171.918 718.979 171.66 719.372 171.485 719.869C171.314 720.366 171.229 720.932 171.229 721.567C171.229 722.201 171.314 722.767 171.485 723.264C171.66 723.761 171.918 724.154 172.259 724.443C172.605 724.727 173.031 724.869 173.537 724.869ZM190.418 727.213C189.3 727.213 188.339 726.976 187.534 726.503C186.734 726.025 186.118 725.362 185.688 724.514C185.261 723.667 185.048 722.691 185.048 721.588C185.048 720.471 185.264 719.491 185.695 718.648C186.13 717.8 186.748 717.14 187.548 716.666C188.348 716.188 189.3 715.949 190.403 715.949C191.355 715.949 192.188 716.122 192.903 716.467C193.618 716.813 194.184 717.298 194.601 717.923C195.018 718.548 195.247 719.282 195.29 720.125H192.435C192.354 719.58 192.141 719.143 191.795 718.811C191.455 718.475 191.007 718.307 190.453 718.307C189.984 718.307 189.575 718.435 189.224 718.69C188.879 718.941 188.609 719.308 188.415 719.791C188.221 720.274 188.124 720.859 188.124 721.545C188.124 722.241 188.218 722.833 188.408 723.321C188.602 723.809 188.874 724.18 189.224 724.436C189.575 724.692 189.984 724.82 190.453 724.82C190.799 724.82 191.109 724.749 191.384 724.607C191.663 724.464 191.893 724.259 192.072 723.989C192.257 723.714 192.378 723.385 192.435 723.001H195.29C195.242 723.835 195.015 724.569 194.608 725.203C194.205 725.833 193.649 726.325 192.939 726.68C192.229 727.036 191.388 727.213 190.418 727.213ZM200.338 727.206C199.642 727.206 199.021 727.085 198.477 726.844C197.932 726.598 197.502 726.235 197.184 725.757C196.872 725.274 196.716 724.673 196.716 723.953C196.716 723.347 196.827 722.838 197.049 722.426C197.272 722.014 197.575 721.683 197.958 721.432C198.342 721.181 198.778 720.991 199.265 720.864C199.758 720.736 200.274 720.646 200.814 720.594C201.448 720.527 201.959 720.466 202.348 720.409C202.736 720.348 203.018 720.258 203.193 720.139C203.368 720.021 203.456 719.846 203.456 719.614V719.571C203.456 719.121 203.314 718.773 203.029 718.527C202.75 718.281 202.352 718.158 201.836 718.158C201.292 718.158 200.859 718.278 200.537 718.52C200.215 718.757 200.002 719.055 199.897 719.415L197.099 719.188C197.241 718.525 197.52 717.952 197.937 717.469C198.354 716.981 198.891 716.607 199.549 716.347C200.212 716.081 200.979 715.949 201.85 715.949C202.457 715.949 203.037 716.02 203.591 716.162C204.149 716.304 204.644 716.524 205.075 716.822C205.511 717.121 205.854 717.504 206.105 717.973C206.356 718.437 206.481 718.993 206.481 719.642V727H203.612V725.487H203.527C203.351 725.828 203.117 726.129 202.824 726.389C202.53 726.645 202.177 726.846 201.765 726.993C201.353 727.135 200.877 727.206 200.338 727.206ZM201.204 725.118C201.649 725.118 202.042 725.03 202.383 724.855C202.724 724.675 202.992 724.434 203.186 724.131C203.38 723.828 203.477 723.484 203.477 723.101V721.943C203.382 722.005 203.252 722.062 203.086 722.114C202.925 722.161 202.743 722.206 202.539 722.249C202.336 722.286 202.132 722.322 201.929 722.355C201.725 722.384 201.54 722.41 201.375 722.433C201.02 722.485 200.709 722.568 200.444 722.682C200.179 722.795 199.973 722.949 199.826 723.143C199.68 723.333 199.606 723.57 199.606 723.854C199.606 724.266 199.755 724.58 200.054 724.798C200.357 725.011 200.74 725.118 201.204 725.118ZM213.757 727.213C212.64 727.213 211.679 726.976 210.874 726.503C210.074 726.025 209.458 725.362 209.027 724.514C208.601 723.667 208.388 722.691 208.388 721.588C208.388 720.471 208.604 719.491 209.034 718.648C209.47 717.8 210.088 717.14 210.888 716.666C211.688 716.188 212.64 715.949 213.743 715.949C214.695 715.949 215.528 716.122 216.243 716.467C216.958 716.813 217.524 717.298 217.941 717.923C218.357 718.548 218.587 719.282 218.63 720.125H215.775C215.694 719.58 215.481 719.143 215.135 718.811C214.794 718.475 214.347 718.307 213.793 718.307C213.324 718.307 212.915 718.435 212.564 718.69C212.219 718.941 211.949 719.308 211.755 719.791C211.56 720.274 211.463 720.859 211.463 721.545C211.463 722.241 211.558 722.833 211.748 723.321C211.942 723.809 212.214 724.18 212.564 724.436C212.915 724.692 213.324 724.82 213.793 724.82C214.139 724.82 214.449 724.749 214.723 724.607C215.003 724.464 215.232 724.259 215.412 723.989C215.597 723.714 215.718 723.385 215.775 723.001H218.63C218.582 723.835 218.355 724.569 217.948 725.203C217.545 725.833 216.989 726.325 216.279 726.68C215.569 727.036 214.728 727.213 213.757 727.213ZM223.592 720.693V727H220.567V712.455H223.507V718.016H223.635C223.881 717.372 224.279 716.867 224.828 716.503C225.377 716.134 226.066 715.949 226.895 715.949C227.652 715.949 228.313 716.115 228.876 716.446C229.445 716.773 229.885 717.244 230.197 717.859C230.515 718.47 230.671 719.202 230.666 720.054V727H227.641V720.594C227.645 719.921 227.475 719.398 227.129 719.024C226.788 718.65 226.31 718.463 225.695 718.463C225.283 718.463 224.918 718.551 224.601 718.726C224.288 718.901 224.042 719.157 223.862 719.493C223.687 719.824 223.597 720.224 223.592 720.693ZM238.019 727.213C236.897 727.213 235.931 726.986 235.121 726.531C234.316 726.072 233.696 725.423 233.26 724.585C232.825 723.742 232.607 722.746 232.607 721.595C232.607 720.473 232.825 719.488 233.26 718.641C233.696 717.793 234.309 717.133 235.1 716.659C235.895 716.186 236.828 715.949 237.898 715.949C238.618 715.949 239.288 716.065 239.908 716.297C240.533 716.524 241.078 716.867 241.542 717.327C242.01 717.786 242.375 718.364 242.635 719.06C242.896 719.751 243.026 720.561 243.026 721.489V722.32H233.814V720.445H240.178C240.178 720.009 240.083 719.623 239.894 719.287C239.704 718.951 239.442 718.688 239.105 718.499C238.774 718.304 238.388 718.207 237.948 718.207C237.489 718.207 237.081 718.314 236.726 718.527C236.376 718.735 236.101 719.017 235.902 719.372C235.703 719.723 235.602 720.113 235.597 720.544V722.327C235.597 722.866 235.696 723.333 235.895 723.726C236.099 724.119 236.385 724.422 236.755 724.635C237.124 724.848 237.562 724.955 238.069 724.955C238.405 724.955 238.712 724.907 238.992 724.812C239.271 724.718 239.51 724.576 239.709 724.386C239.908 724.197 240.06 723.965 240.164 723.69L242.962 723.875C242.82 724.547 242.529 725.134 242.088 725.636C241.653 726.134 241.089 726.522 240.398 726.801C239.712 727.076 238.918 727.213 238.019 727.213Z" fill="black"/>
<path d="M229.25 395C228.917 395 228.625 394.875 228.375 394.625C228.125 394.375 228 394.083 228 393.75V381.25C228 380.917 228.125 380.625 228.375 380.375C228.625 380.125 228.917 380 229.25 380H235.313V381.25H229.25V393.75H235.313V395H229.25ZM239.375 391.146L238.479 390.25L240.604 388.125H233.313V386.875H240.563L238.438 384.75L239.333 383.854L243 387.521L239.375 391.146Z" fill="black"/>
<path d="M37.7614 395V380.455H39.5227V393.438H46.2841V395H37.7614ZM53.2159 395.227C52.2311 395.227 51.367 394.993 50.6236 394.524C49.8849 394.055 49.3073 393.4 48.8906 392.557C48.4787 391.714 48.2727 390.729 48.2727 389.602C48.2727 388.466 48.4787 387.474 48.8906 386.626C49.3073 385.779 49.8849 385.121 50.6236 384.652C51.367 384.183 52.2311 383.949 53.2159 383.949C54.2008 383.949 55.0625 384.183 55.8011 384.652C56.5445 385.121 57.1222 385.779 57.5341 386.626C57.9508 387.474 58.1591 388.466 58.1591 389.602C58.1591 390.729 57.9508 391.714 57.5341 392.557C57.1222 393.4 56.5445 394.055 55.8011 394.524C55.0625 394.993 54.2008 395.227 53.2159 395.227ZM53.2159 393.722C53.964 393.722 54.5795 393.53 55.0625 393.146C55.5455 392.763 55.9029 392.259 56.1349 391.634C56.367 391.009 56.483 390.331 56.483 389.602C56.483 388.873 56.367 388.194 56.1349 387.564C55.9029 386.934 55.5455 386.425 55.0625 386.037C54.5795 385.649 53.964 385.455 53.2159 385.455C52.4678 385.455 51.8523 385.649 51.3693 386.037C50.8864 386.425 50.5289 386.934 50.2969 387.564C50.0649 388.194 49.9489 388.873 49.9489 389.602C49.9489 390.331 50.0649 391.009 50.2969 391.634C50.5289 392.259 50.8864 392.763 51.3693 393.146C51.8523 393.53 52.4678 393.722 53.2159 393.722ZM65.1211 399.318C64.3114 399.318 63.6154 399.214 63.033 399.006C62.4506 398.802 61.9653 398.532 61.5771 398.196C61.1935 397.865 60.8881 397.509 60.6609 397.131L61.9961 396.193C62.1476 396.392 62.3394 396.619 62.5714 396.875C62.8034 397.135 63.1206 397.36 63.5231 397.55C63.9303 397.744 64.4629 397.841 65.1211 397.841C66.0018 397.841 66.7286 397.628 67.3015 397.202C67.8744 396.776 68.1609 396.108 68.1609 395.199V392.983H68.0188C67.8957 393.182 67.7205 393.428 67.4933 393.722C67.2707 394.01 66.9487 394.268 66.5273 394.496C66.1107 394.718 65.5472 394.83 64.837 394.83C63.9563 394.83 63.1656 394.621 62.4648 394.205C61.7688 393.788 61.2172 393.182 60.81 392.386C60.4076 391.591 60.2063 390.625 60.2063 389.489C60.2063 388.371 60.4028 387.398 60.7958 386.57C61.1888 385.736 61.7357 385.092 62.4364 384.638C63.1372 384.179 63.9469 383.949 64.8654 383.949C65.5756 383.949 66.1391 384.067 66.5558 384.304C66.9772 384.536 67.2991 384.801 67.5217 385.099C67.7489 385.393 67.9241 385.634 68.0472 385.824H68.2177V384.091H69.837V395.312C69.837 396.25 69.6239 397.012 69.1978 397.599C68.7764 398.191 68.2082 398.625 67.4933 398.899C66.783 399.179 65.9923 399.318 65.1211 399.318ZM65.0643 393.324C65.7366 393.324 66.3048 393.17 66.7688 392.862C67.2328 392.554 67.5856 392.112 67.8271 391.534C68.0685 390.956 68.1893 390.265 68.1893 389.46C68.1893 388.674 68.0709 387.981 67.8342 387.379C67.5974 386.778 67.247 386.307 66.783 385.966C66.319 385.625 65.7461 385.455 65.0643 385.455C64.354 385.455 63.7622 385.634 63.2887 385.994C62.82 386.354 62.4672 386.837 62.2305 387.443C61.9985 388.049 61.8825 388.722 61.8825 389.46C61.8825 390.218 62.0008 390.888 62.2376 391.47C62.479 392.048 62.8342 392.502 63.3029 392.834C63.7764 393.161 64.3635 393.324 65.0643 393.324ZM77.337 395.227C76.3522 395.227 75.488 394.993 74.7447 394.524C74.006 394.055 73.4284 393.4 73.0117 392.557C72.5998 391.714 72.3938 390.729 72.3938 389.602C72.3938 388.466 72.5998 387.474 73.0117 386.626C73.4284 385.779 74.006 385.121 74.7447 384.652C75.488 384.183 76.3522 383.949 77.337 383.949C78.3219 383.949 79.1836 384.183 79.9222 384.652C80.6656 385.121 81.2433 385.779 81.6552 386.626C82.0719 387.474 82.2802 388.466 82.2802 389.602C82.2802 390.729 82.0719 391.714 81.6552 392.557C81.2433 393.4 80.6656 394.055 79.9222 394.524C79.1836 394.993 78.3219 395.227 77.337 395.227ZM77.337 393.722C78.0851 393.722 78.7006 393.53 79.1836 393.146C79.6665 392.763 80.024 392.259 80.256 391.634C80.488 391.009 80.604 390.331 80.604 389.602C80.604 388.873 80.488 388.194 80.256 387.564C80.024 386.934 79.6665 386.425 79.1836 386.037C78.7006 385.649 78.0851 385.455 77.337 385.455C76.5889 385.455 75.9734 385.649 75.4904 386.037C75.0075 386.425 74.65 386.934 74.418 387.564C74.186 388.194 74.07 388.873 74.07 389.602C74.07 390.331 74.186 391.009 74.418 391.634C74.65 392.259 75.0075 392.763 75.4904 393.146C75.9734 393.53 76.5889 393.722 77.337 393.722ZM91.7138 390.54V384.091H93.3899V395H91.7138V393.153H91.6001C91.3445 393.707 90.9467 394.179 90.407 394.567C89.8672 394.95 89.1854 395.142 88.3615 395.142C87.6797 395.142 87.0736 394.993 86.5433 394.695C86.013 394.392 85.5964 393.937 85.2933 393.331C84.9903 392.72 84.8388 391.951 84.8388 391.023V384.091H86.5149V390.909C86.5149 391.705 86.7375 392.339 87.1825 392.812C87.6323 393.286 88.2053 393.523 88.9013 393.523C89.3179 393.523 89.7417 393.416 90.1726 393.203C90.6082 392.99 90.9728 392.663 91.2663 392.223C91.5646 391.783 91.7138 391.222 91.7138 390.54ZM101.204 384.091V385.511H95.5508V384.091H101.204ZM97.1985 381.477H98.8746V391.875C98.8746 392.348 98.9433 392.704 99.0806 392.94C99.2227 393.172 99.4026 393.329 99.6204 393.409C99.8429 393.485 100.077 393.523 100.324 393.523C100.508 393.523 100.66 393.513 100.778 393.494C100.896 393.471 100.991 393.452 101.062 393.438L101.403 394.943C101.289 394.986 101.131 395.028 100.927 395.071C100.724 395.118 100.466 395.142 100.153 395.142C99.6796 395.142 99.2156 395.04 98.761 394.837C98.3112 394.633 97.9371 394.323 97.6388 393.906C97.3453 393.49 97.1985 392.964 97.1985 392.33V381.477Z" fill="black"/>
<line x1="36" y1="354.5" x2="256" y2="354.5" stroke="black"/>
<path d="M227 333.45V321.15C226.767 321.117 226.542 320.95 226.325 320.65C226.108 320.35 226 320.025 226 319.675V316.5C226 316.117 226.15 315.771 226.45 315.463C226.75 315.154 227.1 315 227.5 315H244.5C244.883 315 245.229 315.154 245.538 315.463C245.846 315.771 246 316.117 246 316.5V319.675C246 320.025 245.892 320.35 245.675 320.65C245.458 320.95 245.233 321.117 245 321.15V333.45C245 333.833 244.846 334.188 244.538 334.513C244.229 334.838 243.883 335 243.5 335H228.5C228.1 335 227.75 334.838 227.45 334.513C227.15 334.188 227 333.833 227 333.45ZM228.5 321.175V333.5H243.5V321.175H228.5ZM244.5 319.675V316.5H227.5V319.675H244.5ZM233 326.425H239V324.925H233V326.425Z" fill="black"/>
<path d="M37.7614 332V317.455H39.5227V330.438H46.2841V332H37.7614ZM53.358 332.227C52.3068 332.227 51.4001 331.995 50.6378 331.531C49.8802 331.062 49.2955 330.409 48.8835 329.571C48.4763 328.728 48.2727 327.748 48.2727 326.631C48.2727 325.513 48.4763 324.528 48.8835 323.676C49.2955 322.819 49.8684 322.152 50.6023 321.673C51.3409 321.19 52.2027 320.949 53.1875 320.949C53.7557 320.949 54.3168 321.044 54.8707 321.233C55.4247 321.422 55.929 321.73 56.3835 322.156C56.8381 322.578 57.2003 323.136 57.4702 323.832C57.7401 324.528 57.875 325.385 57.875 326.403V327.114H49.4659V325.665H56.1705C56.1705 325.049 56.0473 324.5 55.8011 324.017C55.5597 323.534 55.214 323.153 54.7642 322.874C54.3191 322.594 53.7936 322.455 53.1875 322.455C52.5199 322.455 51.9422 322.62 51.4545 322.952C50.9716 323.278 50.5999 323.705 50.3395 324.23C50.0791 324.756 49.9489 325.319 49.9489 325.92V326.886C49.9489 327.71 50.0909 328.409 50.375 328.982C50.6638 329.55 51.0639 329.983 51.5753 330.281C52.0866 330.575 52.6809 330.722 53.358 330.722C53.7983 330.722 54.196 330.66 54.5511 330.537C54.911 330.409 55.2211 330.22 55.4815 329.969C55.742 329.713 55.9432 329.396 56.0852 329.017L57.7045 329.472C57.5341 330.021 57.2476 330.504 56.8452 330.92C56.4427 331.332 55.9455 331.654 55.3537 331.886C54.7618 332.114 54.0966 332.227 53.358 332.227ZM66.0497 332V321.091H67.669V322.795H67.8111C68.0384 322.213 68.4053 321.761 68.9119 321.439C69.4186 321.112 70.027 320.949 70.7372 320.949C71.4569 320.949 72.0559 321.112 72.5341 321.439C73.017 321.761 73.3935 322.213 73.6634 322.795H73.777C74.0563 322.232 74.4754 321.785 75.0341 321.453C75.5928 321.117 76.2628 320.949 77.044 320.949C78.0194 320.949 78.8172 321.254 79.4375 321.865C80.0578 322.471 80.3679 323.416 80.3679 324.699V332H78.6918V324.699C78.6918 323.894 78.4716 323.319 78.0312 322.973C77.5909 322.627 77.0724 322.455 76.4759 322.455C75.7088 322.455 75.1146 322.687 74.6932 323.151C74.2718 323.61 74.0611 324.192 74.0611 324.898V332H72.3565V324.528C72.3565 323.908 72.1553 323.409 71.7528 323.03C71.3504 322.646 70.8319 322.455 70.1974 322.455C69.7618 322.455 69.3546 322.571 68.9759 322.803C68.6018 323.035 68.2988 323.357 68.0668 323.768C67.8395 324.176 67.7259 324.647 67.7259 325.182V332H66.0497ZM83.4325 332V321.091H85.1087V332H83.4325ZM84.2848 319.273C83.9581 319.273 83.6764 319.161 83.4396 318.939C83.2076 318.716 83.0916 318.449 83.0916 318.136C83.0916 317.824 83.2076 317.556 83.4396 317.334C83.6764 317.111 83.9581 317 84.2848 317C84.6115 317 84.8909 317.111 85.1229 317.334C85.3596 317.556 85.478 317.824 85.478 318.136C85.478 318.449 85.3596 318.716 85.1229 318.939C84.8909 319.161 84.6115 319.273 84.2848 319.273ZM92.7525 332.227C91.7013 332.227 90.7946 331.995 90.0323 331.531C89.2747 331.062 88.69 330.409 88.2781 329.571C87.8709 328.728 87.6673 327.748 87.6673 326.631C87.6673 325.513 87.8709 324.528 88.2781 323.676C88.69 322.819 89.2629 322.152 89.9968 321.673C90.7354 321.19 91.5972 320.949 92.582 320.949C93.1502 320.949 93.7113 321.044 94.2653 321.233C94.8192 321.422 95.3235 321.73 95.7781 322.156C96.2326 322.578 96.5948 323.136 96.8647 323.832C97.1346 324.528 97.2695 325.385 97.2695 326.403V327.114H88.8604V325.665H95.565C95.565 325.049 95.4419 324.5 95.1957 324.017C94.9542 323.534 94.6085 323.153 94.1587 322.874C93.7137 322.594 93.1881 322.455 92.582 322.455C91.9144 322.455 91.3368 322.62 90.8491 322.952C90.3661 323.278 89.9944 323.705 89.734 324.23C89.4736 324.756 89.3434 325.319 89.3434 325.92V326.886C89.3434 327.71 89.4854 328.409 89.7695 328.982C90.0584 329.55 90.4585 329.983 90.9698 330.281C91.4812 330.575 92.0754 330.722 92.7525 330.722C93.1928 330.722 93.5906 330.66 93.9457 330.537C94.3055 330.409 94.6156 330.22 94.8761 329.969C95.1365 329.713 95.3377 329.396 95.4798 329.017L97.0991 329.472C96.9286 330.021 96.6422 330.504 96.2397 330.92C95.8372 331.332 95.3401 331.654 94.7482 331.886C94.1564 332.114 93.4911 332.227 92.7525 332.227ZM109.876 332.227C108.853 332.227 107.973 331.986 107.234 331.503C106.495 331.02 105.927 330.355 105.529 329.507C105.132 328.66 104.933 327.691 104.933 326.602C104.933 325.494 105.136 324.517 105.544 323.669C105.956 322.817 106.529 322.152 107.262 321.673C108.001 321.19 108.863 320.949 109.848 320.949C110.615 320.949 111.306 321.091 111.922 321.375C112.537 321.659 113.041 322.057 113.434 322.568C113.827 323.08 114.071 323.676 114.166 324.358H112.49C112.362 323.861 112.078 323.42 111.637 323.037C111.202 322.649 110.615 322.455 109.876 322.455C109.223 322.455 108.65 322.625 108.157 322.966C107.67 323.302 107.288 323.778 107.014 324.393C106.744 325.004 106.609 325.722 106.609 326.545C106.609 327.388 106.742 328.122 107.007 328.747C107.277 329.372 107.655 329.857 108.143 330.203C108.636 330.549 109.213 330.722 109.876 330.722C110.312 330.722 110.707 330.646 111.062 330.494C111.417 330.343 111.718 330.125 111.964 329.841C112.21 329.557 112.386 329.216 112.49 328.818H114.166C114.071 329.462 113.837 330.042 113.463 330.558C113.093 331.07 112.603 331.477 111.993 331.78C111.386 332.078 110.681 332.227 109.876 332.227ZM119.826 332.256C119.135 332.256 118.508 332.125 117.944 331.865C117.381 331.6 116.933 331.219 116.602 330.722C116.27 330.22 116.105 329.614 116.105 328.903C116.105 328.278 116.228 327.772 116.474 327.384C116.72 326.991 117.049 326.683 117.461 326.46C117.873 326.238 118.328 326.072 118.825 325.963C119.327 325.849 119.831 325.759 120.338 325.693C121.001 325.608 121.538 325.544 121.95 325.501C122.367 325.454 122.67 325.376 122.859 325.267C123.053 325.158 123.15 324.969 123.15 324.699V324.642C123.15 323.941 122.958 323.397 122.575 323.009C122.196 322.62 121.621 322.426 120.849 322.426C120.049 322.426 119.422 322.601 118.967 322.952C118.512 323.302 118.193 323.676 118.008 324.074L116.417 323.506C116.701 322.843 117.08 322.327 117.554 321.957C118.032 321.583 118.553 321.323 119.116 321.176C119.684 321.025 120.243 320.949 120.792 320.949C121.143 320.949 121.545 320.991 122 321.077C122.459 321.157 122.902 321.325 123.328 321.581C123.759 321.837 124.116 322.223 124.4 322.739C124.684 323.255 124.826 323.946 124.826 324.812V332H123.15V330.523H123.065C122.951 330.759 122.762 331.013 122.497 331.283C122.232 331.553 121.879 331.782 121.439 331.972C120.998 332.161 120.461 332.256 119.826 332.256ZM120.082 330.75C120.745 330.75 121.304 330.62 121.758 330.359C122.217 330.099 122.563 329.763 122.795 329.351C123.032 328.939 123.15 328.506 123.15 328.051V326.517C123.079 326.602 122.923 326.68 122.681 326.751C122.445 326.818 122.17 326.877 121.858 326.929C121.55 326.976 121.249 327.019 120.956 327.057C120.667 327.09 120.432 327.118 120.252 327.142C119.817 327.199 119.41 327.291 119.031 327.419C118.657 327.542 118.354 327.729 118.122 327.98C117.895 328.226 117.781 328.562 117.781 328.989C117.781 329.571 117.996 330.011 118.427 330.31C118.863 330.603 119.414 330.75 120.082 330.75ZM132.317 332.227C131.295 332.227 130.414 331.986 129.675 331.503C128.937 331.02 128.369 330.355 127.971 329.507C127.573 328.66 127.374 327.691 127.374 326.602C127.374 325.494 127.578 324.517 127.985 323.669C128.397 322.817 128.97 322.152 129.704 321.673C130.442 321.19 131.304 320.949 132.289 320.949C133.056 320.949 133.747 321.091 134.363 321.375C134.978 321.659 135.483 322.057 135.876 322.568C136.269 323.08 136.513 323.676 136.607 324.358H134.931C134.803 323.861 134.519 323.42 134.079 323.037C133.643 322.649 133.056 322.455 132.317 322.455C131.664 322.455 131.091 322.625 130.599 322.966C130.111 323.302 129.73 323.778 129.455 324.393C129.185 325.004 129.05 325.722 129.05 326.545C129.05 327.388 129.183 328.122 129.448 328.747C129.718 329.372 130.097 329.857 130.585 330.203C131.077 330.549 131.655 330.722 132.317 330.722C132.753 330.722 133.148 330.646 133.504 330.494C133.859 330.343 134.159 330.125 134.406 329.841C134.652 329.557 134.827 329.216 134.931 328.818H136.607C136.513 329.462 136.278 330.042 135.904 330.558C135.535 331.07 135.045 331.477 134.434 331.78C133.828 332.078 133.122 332.227 132.317 332.227ZM140.734 325.438V332H139.058V317.455H140.734V322.795H140.876C141.131 322.232 141.515 321.785 142.026 321.453C142.542 321.117 143.229 320.949 144.086 320.949C144.829 320.949 145.48 321.098 146.039 321.396C146.598 321.69 147.031 322.142 147.339 322.753C147.651 323.359 147.808 324.131 147.808 325.068V332H146.131V325.182C146.131 324.315 145.906 323.645 145.457 323.172C145.012 322.694 144.394 322.455 143.603 322.455C143.054 322.455 142.561 322.571 142.126 322.803C141.695 323.035 141.354 323.373 141.103 323.818C140.857 324.263 140.734 324.803 140.734 325.438ZM155.448 332.227C154.397 332.227 153.49 331.995 152.728 331.531C151.97 331.062 151.385 330.409 150.973 329.571C150.566 328.728 150.363 327.748 150.363 326.631C150.363 325.513 150.566 324.528 150.973 323.676C151.385 322.819 151.958 322.152 152.692 321.673C153.431 321.19 154.292 320.949 155.277 320.949C155.846 320.949 156.407 321.044 156.961 321.233C157.515 321.422 158.019 321.73 158.473 322.156C158.928 322.578 159.29 323.136 159.56 323.832C159.83 324.528 159.965 325.385 159.965 326.403V327.114H151.556V325.665H158.26C158.26 325.049 158.137 324.5 157.891 324.017C157.65 323.534 157.304 323.153 156.854 322.874C156.409 322.594 155.883 322.455 155.277 322.455C154.61 322.455 154.032 322.62 153.544 322.952C153.061 323.278 152.69 323.705 152.429 324.23C152.169 324.756 152.039 325.319 152.039 325.92V326.886C152.039 327.71 152.181 328.409 152.465 328.982C152.754 329.55 153.154 329.983 153.665 330.281C154.176 330.575 154.771 330.722 155.448 330.722C155.888 330.722 156.286 330.66 156.641 330.537C157.001 330.409 157.311 330.22 157.571 329.969C157.832 329.713 158.033 329.396 158.175 329.017L159.794 329.472C159.624 330.021 159.337 330.504 158.935 330.92C158.533 331.332 158.035 331.654 157.444 331.886C156.852 332.114 156.186 332.227 155.448 332.227Z" fill="black"/>
<line x1="38" y1="295.5" x2="258" y2="295.5" stroke="black"/>
<path d="M49.4659 262H47.7045C47.6004 261.493 47.4181 261.048 47.1577 260.665C46.902 260.281 46.5895 259.959 46.2202 259.699C45.8556 259.434 45.4508 259.235 45.0057 259.102C44.5606 258.97 44.0966 258.903 43.6136 258.903C42.733 258.903 41.9351 259.126 41.2202 259.571C40.5099 260.016 39.9441 260.672 39.5227 261.538C39.1061 262.405 38.8977 263.468 38.8977 264.727C38.8977 265.987 39.1061 267.05 39.5227 267.916C39.9441 268.783 40.5099 269.438 41.2202 269.884C41.9351 270.329 42.733 270.551 43.6136 270.551C44.0966 270.551 44.5606 270.485 45.0057 270.352C45.4508 270.22 45.8556 270.023 46.2202 269.763C46.5895 269.498 46.902 269.173 47.1577 268.79C47.4181 268.402 47.6004 267.956 47.7045 267.455H49.4659C49.3333 268.198 49.0919 268.863 48.7415 269.45C48.3911 270.037 47.9555 270.537 47.4347 270.949C46.9138 271.356 46.3291 271.666 45.6804 271.879C45.0365 272.092 44.3475 272.199 43.6136 272.199C42.3731 272.199 41.2699 271.896 40.304 271.29C39.3381 270.684 38.5781 269.822 38.0241 268.705C37.4702 267.587 37.1932 266.261 37.1932 264.727C37.1932 263.193 37.4702 261.867 38.0241 260.75C38.5781 259.633 39.3381 258.771 40.304 258.165C41.2699 257.559 42.3731 257.256 43.6136 257.256C44.3475 257.256 45.0365 257.362 45.6804 257.575C46.3291 257.788 46.9138 258.101 47.4347 258.513C47.9555 258.92 48.3911 259.417 48.7415 260.004C49.0919 260.587 49.3333 261.252 49.4659 262ZM56.5167 272.227C55.5318 272.227 54.6677 271.993 53.9244 271.524C53.1857 271.055 52.6081 270.4 52.1914 269.557C51.7795 268.714 51.5735 267.729 51.5735 266.602C51.5735 265.466 51.7795 264.474 52.1914 263.626C52.6081 262.779 53.1857 262.121 53.9244 261.652C54.6677 261.183 55.5318 260.949 56.5167 260.949C57.5015 260.949 58.3633 261.183 59.1019 261.652C59.8453 262.121 60.4229 262.779 60.8349 263.626C61.2515 264.474 61.4599 265.466 61.4599 266.602C61.4599 267.729 61.2515 268.714 60.8349 269.557C60.4229 270.4 59.8453 271.055 59.1019 271.524C58.3633 271.993 57.5015 272.227 56.5167 272.227ZM56.5167 270.722C57.2648 270.722 57.8803 270.53 58.3633 270.146C58.8462 269.763 59.2037 269.259 59.4357 268.634C59.6677 268.009 59.7837 267.331 59.7837 266.602C59.7837 265.873 59.6677 265.194 59.4357 264.564C59.2037 263.934 58.8462 263.425 58.3633 263.037C57.8803 262.649 57.2648 262.455 56.5167 262.455C55.7686 262.455 55.1531 262.649 54.6701 263.037C54.1871 263.425 53.8297 263.934 53.5977 264.564C53.3656 265.194 53.2496 265.873 53.2496 266.602C53.2496 267.331 53.3656 268.009 53.5977 268.634C53.8297 269.259 54.1871 269.763 54.6701 270.146C55.1531 270.53 55.7686 270.722 56.5167 270.722ZM64.0185 272V261.091H65.6378V262.795H65.7798C66.0071 262.213 66.3741 261.761 66.8807 261.439C67.3873 261.112 67.9957 260.949 68.706 260.949C69.4257 260.949 70.0246 261.112 70.5028 261.439C70.9858 261.761 71.3622 262.213 71.6321 262.795H71.7457C72.0251 262.232 72.4441 261.785 73.0028 261.453C73.5616 261.117 74.2315 260.949 75.0128 260.949C75.9882 260.949 76.786 261.254 77.4062 261.865C78.0265 262.471 78.3366 263.416 78.3366 264.699V272H76.6605V264.699C76.6605 263.894 76.4403 263.319 76 262.973C75.5597 262.627 75.0412 262.455 74.4446 262.455C73.6776 262.455 73.0833 262.687 72.6619 263.151C72.2405 263.61 72.0298 264.192 72.0298 264.898V272H70.3253V264.528C70.3253 263.908 70.1241 263.409 69.7216 263.03C69.3191 262.646 68.8007 262.455 68.1662 262.455C67.7306 262.455 67.3234 262.571 66.9446 262.803C66.5705 263.035 66.2675 263.357 66.0355 263.768C65.8082 264.176 65.6946 264.647 65.6946 265.182V272H64.0185ZM81.4013 276.091V261.091H83.0206V262.824H83.2195C83.3426 262.634 83.513 262.393 83.7308 262.099C83.9534 261.801 84.2706 261.536 84.6825 261.304C85.0992 261.067 85.6626 260.949 86.3729 260.949C87.2914 260.949 88.1011 261.179 88.8018 261.638C89.5026 262.097 90.0495 262.748 90.4425 263.591C90.8355 264.434 91.032 265.428 91.032 266.574C91.032 267.729 90.8355 268.731 90.4425 269.578C90.0495 270.421 89.505 271.074 88.8089 271.538C88.1129 271.998 87.3104 272.227 86.4013 272.227C85.7005 272.227 85.1394 272.111 84.718 271.879C84.2966 271.643 83.9723 271.375 83.745 271.077C83.5178 270.774 83.3426 270.523 83.2195 270.324H83.0774V276.091H81.4013ZM83.049 266.545C83.049 267.369 83.1697 268.096 83.4112 268.726C83.6527 269.351 84.0054 269.841 84.4695 270.196C84.9335 270.546 85.5017 270.722 86.174 270.722C86.8748 270.722 87.4595 270.537 87.9283 270.168C88.4018 269.794 88.7569 269.292 88.9936 268.662C89.2351 268.027 89.3558 267.322 89.3558 266.545C89.3558 265.778 89.2375 265.087 89.0007 264.472C88.7687 263.851 88.416 263.361 87.9425 263.001C87.4737 262.637 86.8842 262.455 86.174 262.455C85.4922 262.455 84.9193 262.627 84.4553 262.973C83.9912 263.314 83.6409 263.792 83.4041 264.408C83.1674 265.018 83.049 265.731 83.049 266.545ZM95.2649 257.455V272H93.5888V257.455H95.2649ZM102.909 272.227C101.858 272.227 100.951 271.995 100.189 271.531C99.431 271.062 98.8462 270.409 98.4343 269.571C98.0271 268.728 97.8235 267.748 97.8235 266.631C97.8235 265.513 98.0271 264.528 98.4343 263.676C98.8462 262.819 99.4192 262.152 100.153 261.673C100.892 261.19 101.753 260.949 102.738 260.949C103.306 260.949 103.868 261.044 104.422 261.233C104.975 261.422 105.48 261.73 105.934 262.156C106.389 262.578 106.751 263.136 107.021 263.832C107.291 264.528 107.426 265.385 107.426 266.403V267.114H99.0167V265.665H105.721C105.721 265.049 105.598 264.5 105.352 264.017C105.11 263.534 104.765 263.153 104.315 262.874C103.87 262.594 103.344 262.455 102.738 262.455C102.071 262.455 101.493 262.62 101.005 262.952C100.522 263.278 100.151 263.705 99.8903 264.23C99.6299 264.756 99.4996 265.319 99.4996 265.92V266.886C99.4996 267.71 99.6417 268.409 99.9258 268.982C100.215 269.55 100.615 269.983 101.126 270.281C101.637 270.575 102.232 270.722 102.909 270.722C103.349 270.722 103.747 270.66 104.102 270.537C104.462 270.409 104.772 270.22 105.032 269.969C105.293 269.713 105.494 269.396 105.636 269.017L107.255 269.472C107.085 270.021 106.798 270.504 106.396 270.92C105.993 271.332 105.496 271.654 104.904 271.886C104.313 272.114 103.647 272.227 102.909 272.227ZM114.72 261.091V262.511H109.066V261.091H114.72ZM110.714 258.477H112.39V268.875C112.39 269.348 112.459 269.704 112.596 269.94C112.738 270.172 112.918 270.329 113.136 270.409C113.359 270.485 113.593 270.523 113.839 270.523C114.024 270.523 114.175 270.513 114.294 270.494C114.412 270.471 114.507 270.452 114.578 270.438L114.919 271.943C114.805 271.986 114.646 272.028 114.443 272.071C114.239 272.118 113.981 272.142 113.669 272.142C113.195 272.142 112.731 272.04 112.277 271.837C111.827 271.633 111.453 271.323 111.154 270.906C110.861 270.49 110.714 269.964 110.714 269.33V258.477ZM120.451 272.256C119.76 272.256 119.133 272.125 118.569 271.865C118.006 271.6 117.558 271.219 117.227 270.722C116.895 270.22 116.73 269.614 116.73 268.903C116.73 268.278 116.853 267.772 117.099 267.384C117.345 266.991 117.674 266.683 118.086 266.46C118.498 266.238 118.953 266.072 119.45 265.963C119.952 265.849 120.456 265.759 120.963 265.693C121.626 265.608 122.163 265.544 122.575 265.501C122.992 265.454 123.295 265.376 123.484 265.267C123.678 265.158 123.775 264.969 123.775 264.699V264.642C123.775 263.941 123.583 263.397 123.2 263.009C122.821 262.62 122.246 262.426 121.474 262.426C120.674 262.426 120.047 262.601 119.592 262.952C119.137 263.302 118.818 263.676 118.633 264.074L117.042 263.506C117.326 262.843 117.705 262.327 118.179 261.957C118.657 261.583 119.178 261.323 119.741 261.176C120.309 261.025 120.868 260.949 121.417 260.949C121.768 260.949 122.17 260.991 122.625 261.077C123.084 261.157 123.527 261.325 123.953 261.581C124.384 261.837 124.741 262.223 125.025 262.739C125.309 263.255 125.451 263.946 125.451 264.812V272H123.775V270.523H123.69C123.576 270.759 123.387 271.013 123.122 271.283C122.857 271.553 122.504 271.782 122.064 271.972C121.623 272.161 121.086 272.256 120.451 272.256ZM120.707 270.75C121.37 270.75 121.929 270.62 122.383 270.359C122.842 270.099 123.188 269.763 123.42 269.351C123.657 268.939 123.775 268.506 123.775 268.051V266.517C123.704 266.602 123.548 266.68 123.306 266.751C123.07 266.818 122.795 266.877 122.483 266.929C122.175 266.976 121.874 267.019 121.581 267.057C121.292 267.09 121.057 267.118 120.877 267.142C120.442 267.199 120.035 267.291 119.656 267.419C119.282 267.542 118.979 267.729 118.747 267.98C118.52 268.226 118.406 268.562 118.406 268.989C118.406 269.571 118.621 270.011 119.052 270.31C119.488 270.603 120.039 270.75 120.707 270.75ZM133.255 261.091V262.511H127.602V261.091H133.255ZM129.249 258.477H130.925V268.875C130.925 269.348 130.994 269.704 131.131 269.94C131.273 270.172 131.453 270.329 131.671 270.409C131.894 270.485 132.128 270.523 132.374 270.523C132.559 270.523 132.71 270.513 132.829 270.494C132.947 270.471 133.042 270.452 133.113 270.438L133.454 271.943C133.34 271.986 133.182 272.028 132.978 272.071C132.774 272.118 132.516 272.142 132.204 272.142C131.73 272.142 131.266 272.04 130.812 271.837C130.362 271.633 129.988 271.323 129.69 270.906C129.396 270.49 129.249 269.964 129.249 269.33V258.477ZM140.233 272.227C139.182 272.227 138.275 271.995 137.513 271.531C136.755 271.062 136.17 270.409 135.759 269.571C135.351 268.728 135.148 267.748 135.148 266.631C135.148 265.513 135.351 264.528 135.759 263.676C136.17 262.819 136.743 262.152 137.477 261.673C138.216 261.19 139.078 260.949 140.062 260.949C140.631 260.949 141.192 261.044 141.746 261.233C142.3 261.422 142.804 261.73 143.259 262.156C143.713 262.578 144.075 263.136 144.345 263.832C144.615 264.528 144.75 265.385 144.75 266.403V267.114H136.341V265.665H143.045C143.045 265.049 142.922 264.5 142.676 264.017C142.435 263.534 142.089 263.153 141.639 262.874C141.194 262.594 140.669 262.455 140.062 262.455C139.395 262.455 138.817 262.62 138.33 262.952C137.847 263.278 137.475 263.705 137.214 264.23C136.954 264.756 136.824 265.319 136.824 265.92V266.886C136.824 267.71 136.966 268.409 137.25 268.982C137.539 269.55 137.939 269.983 138.45 270.281C138.962 270.575 139.556 270.722 140.233 270.722C140.673 270.722 141.071 270.66 141.426 270.537C141.786 270.409 142.096 270.22 142.357 269.969C142.617 269.713 142.818 269.396 142.96 269.017L144.58 269.472C144.409 270.021 144.123 270.504 143.72 270.92C143.318 271.332 142.821 271.654 142.229 271.886C141.637 272.114 140.972 272.227 140.233 272.227Z" fill="black"/>
<path d="M244.306 264.57L245.556 265.82L239.736 271.68L235.947 267.93L237.197 266.68L239.736 269.18L244.306 264.57ZM228.056 268.32V266.68H234.697V268.32H228.056ZM238.056 260V261.68H228.056V260H238.056ZM238.056 263.32V265H228.056V263.32H238.056Z" fill="black"/>
<line x1="38" y1="235.5" x2="258" y2="235.5" stroke="black"/>
<path d="M37.7614 211V196.455H42.6761C43.8172 196.455 44.75 196.661 45.4744 197.072C46.2036 197.48 46.7434 198.031 47.0938 198.727C47.4441 199.423 47.6193 200.2 47.6193 201.057C47.6193 201.914 47.4441 202.693 47.0938 203.393C46.7481 204.094 46.2131 204.653 45.4886 205.07C44.7642 205.482 43.8362 205.688 42.7045 205.688H39.1818V204.125H42.6477C43.429 204.125 44.0563 203.99 44.5298 203.72C45.0033 203.45 45.3466 203.086 45.5597 202.626C45.7775 202.162 45.8864 201.639 45.8864 201.057C45.8864 200.474 45.7775 199.954 45.5597 199.494C45.3466 199.035 45.0009 198.675 44.5227 198.415C44.0445 198.15 43.41 198.017 42.6193 198.017H39.5227V211H37.7614ZM50.2294 211V200.091H51.8487V201.739H51.9624C52.1612 201.199 52.5211 200.761 53.0419 200.425C53.5627 200.089 54.1499 199.92 54.8033 199.92C54.9264 199.92 55.0803 199.923 55.2649 199.928C55.4496 199.932 55.5893 199.939 55.6839 199.949V201.653C55.6271 201.639 55.4969 201.618 55.2933 201.589C55.0945 201.556 54.8838 201.54 54.6612 201.54C54.1309 201.54 53.6574 201.651 53.2408 201.874C52.8288 202.091 52.5021 202.394 52.2607 202.783C52.0239 203.166 51.9055 203.604 51.9055 204.097V211H50.2294ZM61.9126 211.227C60.8615 211.227 59.9548 210.995 59.1925 210.531C58.4349 210.062 57.8501 209.409 57.4382 208.571C57.031 207.728 56.8274 206.748 56.8274 205.631C56.8274 204.513 57.031 203.528 57.4382 202.676C57.8501 201.819 58.4231 201.152 59.157 200.673C59.8956 200.19 60.7573 199.949 61.7422 199.949C62.3104 199.949 62.8714 200.044 63.4254 200.233C63.9794 200.422 64.4837 200.73 64.9382 201.156C65.3928 201.578 65.755 202.136 66.0249 202.832C66.2947 203.528 66.4297 204.385 66.4297 205.403V206.114H58.0206V204.665H64.7251C64.7251 204.049 64.602 203.5 64.3558 203.017C64.1143 202.534 63.7687 202.153 63.3189 201.874C62.8738 201.594 62.3482 201.455 61.7422 201.455C61.0746 201.455 60.4969 201.62 60.0092 201.952C59.5263 202.278 59.1546 202.705 58.8942 203.23C58.6338 203.756 58.5036 204.319 58.5036 204.92V205.886C58.5036 206.71 58.6456 207.409 58.9297 207.982C59.2185 208.55 59.6186 208.983 60.13 209.281C60.6413 209.575 61.2356 209.722 61.9126 209.722C62.353 209.722 62.7507 209.66 63.1058 209.537C63.4657 209.409 63.7758 209.22 64.0362 208.969C64.2966 208.713 64.4979 208.396 64.6399 208.017L66.2592 208.472C66.0888 209.021 65.8023 209.504 65.3999 209.92C64.9974 210.332 64.5002 210.654 63.9084 210.886C63.3165 211.114 62.6513 211.227 61.9126 211.227ZM73.8374 200.091V201.511H67.9567V200.091H73.8374ZM69.718 211V198.585C69.718 197.96 69.8648 197.439 70.1584 197.023C70.4519 196.606 70.8331 196.294 71.3018 196.085C71.7706 195.877 72.2654 195.773 72.7862 195.773C73.1982 195.773 73.5343 195.806 73.7947 195.872C74.0552 195.938 74.2493 196 74.3771 196.057L73.8942 197.506C73.8089 197.477 73.6906 197.442 73.5391 197.399C73.3923 197.357 73.1982 197.335 72.9567 197.335C72.4027 197.335 72.0026 197.475 71.7564 197.754C71.5149 198.034 71.3942 198.443 71.3942 198.983V211H69.718ZM80.3111 211.227C79.2599 211.227 78.3532 210.995 77.5909 210.531C76.8333 210.062 76.2486 209.409 75.8366 208.571C75.4295 207.728 75.2259 206.748 75.2259 205.631C75.2259 204.513 75.4295 203.528 75.8366 202.676C76.2486 201.819 76.8215 201.152 77.5554 200.673C78.294 200.19 79.1558 199.949 80.1406 199.949C80.7088 199.949 81.2699 200.044 81.8239 200.233C82.3778 200.422 82.8821 200.73 83.3366 201.156C83.7912 201.578 84.1534 202.136 84.4233 202.832C84.6932 203.528 84.8281 204.385 84.8281 205.403V206.114H76.419V204.665H83.1236C83.1236 204.049 83.0005 203.5 82.7543 203.017C82.5128 202.534 82.1671 202.153 81.7173 201.874C81.2723 201.594 80.7467 201.455 80.1406 201.455C79.473 201.455 78.8954 201.62 78.4077 201.952C77.9247 202.278 77.553 202.705 77.2926 203.23C77.0322 203.756 76.902 204.319 76.902 204.92V205.886C76.902 206.71 77.044 207.409 77.3281 207.982C77.617 208.55 78.017 208.983 78.5284 209.281C79.0398 209.575 79.634 209.722 80.3111 209.722C80.7514 209.722 81.1491 209.66 81.5043 209.537C81.8641 209.409 82.1742 209.22 82.4347 208.969C82.6951 208.713 82.8963 208.396 83.0384 208.017L84.6577 208.472C84.4872 209.021 84.2008 209.504 83.7983 209.92C83.3958 210.332 82.8987 210.654 82.3068 210.886C81.715 211.114 81.0497 211.227 80.3111 211.227ZM87.3778 211V200.091H88.9972V201.739H89.1108C89.3097 201.199 89.6695 200.761 90.1903 200.425C90.7112 200.089 91.2983 199.92 91.9517 199.92C92.0748 199.92 92.2287 199.923 92.4134 199.928C92.598 199.932 92.7377 199.939 92.8324 199.949V201.653C92.7756 201.639 92.6454 201.618 92.4418 201.589C92.2429 201.556 92.0322 201.54 91.8097 201.54C91.2794 201.54 90.8059 201.651 90.3892 201.874C89.9773 202.091 89.6506 202.394 89.4091 202.783C89.1723 203.166 89.054 203.604 89.054 204.097V211H87.3778ZM94.8192 211V200.091H96.4954V211H94.8192ZM95.6715 198.273C95.3448 198.273 95.0631 198.161 94.8263 197.939C94.5943 197.716 94.4783 197.449 94.4783 197.136C94.4783 196.824 94.5943 196.556 94.8263 196.334C95.0631 196.111 95.3448 196 95.6715 196C95.9982 196 96.2776 196.111 96.5096 196.334C96.7463 196.556 96.8647 196.824 96.8647 197.136C96.8647 197.449 96.7463 197.716 96.5096 197.939C96.2776 198.161 95.9982 198.273 95.6715 198.273ZM104.31 200.091V201.511H98.6562V200.091H104.31ZM100.304 197.477H101.98V207.875C101.98 208.348 102.049 208.704 102.186 208.94C102.328 209.172 102.508 209.329 102.726 209.409C102.948 209.485 103.183 209.523 103.429 209.523C103.614 209.523 103.765 209.513 103.884 209.494C104.002 209.471 104.097 209.452 104.168 209.438L104.509 210.943C104.395 210.986 104.236 211.028 104.033 211.071C103.829 211.118 103.571 211.142 103.259 211.142C102.785 211.142 102.321 211.04 101.866 210.837C101.417 210.633 101.043 210.323 100.744 209.906C100.451 209.49 100.304 208.964 100.304 208.33V197.477ZM106.831 211V200.091H108.507V211H106.831ZM107.683 198.273C107.357 198.273 107.075 198.161 106.838 197.939C106.606 197.716 106.49 197.449 106.49 197.136C106.49 196.824 106.606 196.556 106.838 196.334C107.075 196.111 107.357 196 107.683 196C108.01 196 108.289 196.111 108.521 196.334C108.758 196.556 108.876 196.824 108.876 197.136C108.876 197.449 108.758 197.716 108.521 197.939C108.289 198.161 108.01 198.273 107.683 198.273Z" fill="black"/>
<path d="M236.377 208.375L231.22 211.5L232.588 205.641L228.056 201.695L234.033 201.188L236.377 195.68L238.72 201.188L244.697 201.695L240.166 205.641L241.533 211.5L236.377 208.375Z" fill="black"/>
<line x1="37.9992" y1="171" x2="257.999" y2="171" stroke="black"/>
<path d="M49.4659 140H47.7045C47.6004 139.493 47.4181 139.048 47.1577 138.665C46.902 138.281 46.5895 137.959 46.2202 137.699C45.8556 137.434 45.4508 137.235 45.0057 137.102C44.5606 136.97 44.0966 136.903 43.6136 136.903C42.733 136.903 41.9351 137.126 41.2202 137.571C40.5099 138.016 39.9441 138.672 39.5227 139.538C39.1061 140.405 38.8977 141.468 38.8977 142.727C38.8977 143.987 39.1061 145.05 39.5227 145.916C39.9441 146.783 40.5099 147.438 41.2202 147.884C41.9351 148.329 42.733 148.551 43.6136 148.551C44.0966 148.551 44.5606 148.485 45.0057 148.352C45.4508 148.22 45.8556 148.023 46.2202 147.763C46.5895 147.498 46.902 147.173 47.1577 146.79C47.4181 146.402 47.6004 145.956 47.7045 145.455H49.4659C49.3333 146.198 49.0919 146.863 48.7415 147.45C48.3911 148.037 47.9555 148.537 47.4347 148.949C46.9138 149.356 46.3291 149.666 45.6804 149.879C45.0365 150.092 44.3475 150.199 43.6136 150.199C42.3731 150.199 41.2699 149.896 40.304 149.29C39.3381 148.684 38.5781 147.822 38.0241 146.705C37.4702 145.587 37.1932 144.261 37.1932 142.727C37.1932 141.193 37.4702 139.867 38.0241 138.75C38.5781 137.633 39.3381 136.771 40.304 136.165C41.2699 135.559 42.3731 135.256 43.6136 135.256C44.3475 135.256 45.0365 135.362 45.6804 135.575C46.3291 135.788 46.9138 136.101 47.4347 136.513C47.9555 136.92 48.3911 137.417 48.7415 138.004C49.0919 138.587 49.3333 139.252 49.4659 140ZM56.6587 150.227C55.6076 150.227 54.7009 149.995 53.9386 149.531C53.181 149.062 52.5962 148.409 52.1843 147.571C51.7771 146.728 51.5735 145.748 51.5735 144.631C51.5735 143.513 51.7771 142.528 52.1843 141.676C52.5962 140.819 53.1692 140.152 53.9031 139.673C54.6417 139.19 55.5034 138.949 56.4883 138.949C57.0565 138.949 57.6175 139.044 58.1715 139.233C58.7255 139.422 59.2298 139.73 59.6843 140.156C60.1388 140.578 60.5011 141.136 60.771 141.832C61.0408 142.528 61.1758 143.385 61.1758 144.403V145.114H52.7667V143.665H59.4712C59.4712 143.049 59.3481 142.5 59.1019 142.017C58.8604 141.534 58.5148 141.153 58.065 140.874C57.6199 140.594 57.0943 140.455 56.4883 140.455C55.8207 140.455 55.243 140.62 54.7553 140.952C54.2724 141.278 53.9007 141.705 53.6403 142.23C53.3799 142.756 53.2496 143.319 53.2496 143.92V144.886C53.2496 145.71 53.3917 146.409 53.6758 146.982C53.9646 147.55 54.3647 147.983 54.8761 148.281C55.3874 148.575 55.9817 148.722 56.6587 148.722C57.0991 148.722 57.4968 148.66 57.8519 148.537C58.2118 148.409 58.5219 148.22 58.7823 147.969C59.0427 147.713 59.244 147.396 59.386 147.017L61.0053 147.472C60.8349 148.021 60.5484 148.504 60.146 148.92C59.7435 149.332 59.2463 149.654 58.6545 149.886C58.0626 150.114 57.3974 150.227 56.6587 150.227ZM63.7255 150V139.091H65.3448V140.739H65.4585C65.6573 140.199 66.0172 139.761 66.538 139.425C67.0588 139.089 67.646 138.92 68.2994 138.92C68.4225 138.92 68.5763 138.923 68.761 138.928C68.9457 138.932 69.0853 138.939 69.18 138.949V140.653C69.1232 140.639 68.993 140.618 68.7894 140.589C68.5906 140.556 68.3799 140.54 68.1573 140.54C67.627 140.54 67.1535 140.651 66.7369 140.874C66.3249 141.091 65.9982 141.394 65.7567 141.783C65.52 142.166 65.4016 142.604 65.4016 143.097V150H63.7255ZM75.2667 150.227C74.244 150.227 73.3633 149.986 72.6246 149.503C71.886 149.02 71.3178 148.355 70.9201 147.507C70.5224 146.66 70.3235 145.691 70.3235 144.602C70.3235 143.494 70.5271 142.517 70.9343 141.669C71.3462 140.817 71.9192 140.152 72.6531 139.673C73.3917 139.19 74.2534 138.949 75.2383 138.949C76.0053 138.949 76.6966 139.091 77.3121 139.375C77.9277 139.659 78.4319 140.057 78.8249 140.568C79.2179 141.08 79.4618 141.676 79.5565 142.358H77.8803C77.7525 141.861 77.4684 141.42 77.0281 141.037C76.5924 140.649 76.0053 140.455 75.2667 140.455C74.6133 140.455 74.0404 140.625 73.5479 140.966C73.0603 141.302 72.6791 141.778 72.4045 142.393C72.1346 143.004 71.9996 143.722 71.9996 144.545C71.9996 145.388 72.1322 146.122 72.3974 146.747C72.6673 147.372 73.046 147.857 73.5337 148.203C74.0262 148.549 74.6038 148.722 75.2667 148.722C75.7023 148.722 76.0977 148.646 76.4528 148.494C76.8079 148.343 77.1085 148.125 77.3548 147.841C77.601 147.557 77.7762 147.216 77.8803 146.818H79.5565C79.4618 147.462 79.2274 148.042 78.8533 148.558C78.484 149.07 77.994 149.477 77.3832 149.78C76.7771 150.078 76.0716 150.227 75.2667 150.227ZM85.217 150.256C84.5257 150.256 83.8983 150.125 83.3349 149.865C82.7714 149.6 82.324 149.219 81.9925 148.722C81.6611 148.22 81.4954 147.614 81.4954 146.903C81.4954 146.278 81.6185 145.772 81.8647 145.384C82.1109 144.991 82.44 144.683 82.8519 144.46C83.2638 144.238 83.7184 144.072 84.2156 143.963C84.7174 143.849 85.2217 143.759 85.7283 143.693C86.3912 143.608 86.9286 143.544 87.3406 143.501C87.7572 143.454 88.0603 143.376 88.2496 143.267C88.4438 143.158 88.5408 142.969 88.5408 142.699V142.642C88.5408 141.941 88.3491 141.397 87.9656 141.009C87.5868 140.62 87.0115 140.426 86.2397 140.426C85.4395 140.426 84.8121 140.601 84.3576 140.952C83.9031 141.302 83.5835 141.676 83.3988 142.074L81.8079 141.506C82.092 140.843 82.4708 140.327 82.9442 139.957C83.4225 139.583 83.9433 139.323 84.5067 139.176C85.0749 139.025 85.6336 138.949 86.1829 138.949C86.5333 138.949 86.9357 138.991 87.3903 139.077C87.8496 139.157 88.2923 139.325 88.7184 139.581C89.1493 139.837 89.5067 140.223 89.7908 140.739C90.0749 141.255 90.217 141.946 90.217 142.812V150H88.5408V148.523H88.4556C88.342 148.759 88.1526 149.013 87.8874 149.283C87.6223 149.553 87.2695 149.782 86.8292 149.972C86.3888 150.161 85.8514 150.256 85.217 150.256ZM85.4727 148.75C86.1355 148.75 86.6942 148.62 87.1488 148.359C87.6081 148.099 87.9537 147.763 88.1857 147.351C88.4225 146.939 88.5408 146.506 88.5408 146.051V144.517C88.4698 144.602 88.3136 144.68 88.0721 144.751C87.8353 144.818 87.5607 144.877 87.2482 144.929C86.9405 144.976 86.6398 145.019 86.3462 145.057C86.0574 145.09 85.823 145.118 85.6431 145.142C85.2075 145.199 84.8003 145.291 84.4215 145.419C84.0475 145.542 83.7444 145.729 83.5124 145.98C83.2852 146.226 83.1715 146.562 83.1715 146.989C83.1715 147.571 83.387 148.011 83.8178 148.31C84.2534 148.603 84.805 148.75 85.4727 148.75Z" fill="black"/>
<path d="M231.65 143.586C232.379 144.315 233.265 144.68 234.306 144.68C235.348 144.68 236.233 144.315 236.963 143.586C237.692 142.857 238.056 141.971 238.056 140.93C238.056 139.888 237.692 139.003 236.963 138.273C236.233 137.544 235.348 137.18 234.306 137.18C233.265 137.18 232.379 137.544 231.65 138.273C230.921 139.003 230.556 139.888 230.556 140.93C230.556 141.971 230.921 142.857 231.65 143.586ZM239.306 144.68L243.447 148.82L242.197 150.07L238.056 145.93V145.266L237.822 145.031C236.832 145.891 235.66 146.32 234.306 146.32C232.796 146.32 231.507 145.799 230.439 144.758C229.397 143.716 228.877 142.44 228.877 140.93C228.877 139.419 229.397 138.143 230.439 137.102C231.507 136.034 232.796 135.5 234.306 135.5C235.817 135.5 237.093 136.034 238.134 137.102C239.176 138.143 239.697 139.419 239.697 140.93C239.697 141.477 239.567 142.102 239.306 142.805C239.046 143.482 238.746 144.029 238.408 144.445L238.642 144.68H239.306Z" fill="black"/>
<path d="M200.307 32.4545H202.068V42.0852C202.068 43.0795 201.834 43.9673 201.365 44.7486C200.901 45.5251 200.245 46.1383 199.398 46.5881C198.55 47.0331 197.556 47.2557 196.415 47.2557C195.274 47.2557 194.279 47.0331 193.432 46.5881C192.584 46.1383 191.926 45.5251 191.457 44.7486C190.993 43.9673 190.761 43.0795 190.761 42.0852V32.4545H192.523V41.9432C192.523 42.6534 192.679 43.2855 192.991 43.8395C193.304 44.3887 193.749 44.822 194.327 45.1392C194.909 45.4517 195.605 45.608 196.415 45.608C197.224 45.608 197.92 45.4517 198.503 45.1392C199.085 44.822 199.53 44.3887 199.838 43.8395C200.151 43.2855 200.307 42.6534 200.307 41.9432V32.4545ZM213.086 38.5341L211.58 38.9602C211.485 38.7093 211.346 38.4654 211.161 38.2287C210.981 37.9872 210.735 37.7884 210.422 37.6321C210.11 37.4759 209.71 37.3977 209.222 37.3977C208.554 37.3977 207.998 37.5516 207.553 37.8594C207.113 38.1624 206.892 38.5483 206.892 39.017C206.892 39.4337 207.044 39.7628 207.347 40.0043C207.65 40.2457 208.123 40.447 208.767 40.608L210.387 41.0057C211.362 41.2424 212.089 41.6046 212.567 42.0923C213.045 42.5753 213.284 43.1979 213.284 43.9602C213.284 44.5852 213.105 45.1439 212.745 45.6364C212.39 46.1288 211.892 46.517 211.253 46.8011C210.614 47.0852 209.871 47.2273 209.023 47.2273C207.91 47.2273 206.989 46.9858 206.26 46.5028C205.531 46.0199 205.069 45.3144 204.875 44.3864L206.466 43.9886C206.618 44.5758 206.904 45.0161 207.326 45.3097C207.752 45.6032 208.308 45.75 208.995 45.75C209.776 45.75 210.396 45.5843 210.855 45.2528C211.319 44.9167 211.551 44.5142 211.551 44.0455C211.551 43.6667 211.419 43.3494 211.154 43.0938C210.889 42.8333 210.481 42.6392 209.932 42.5114L208.114 42.0852C207.115 41.8485 206.381 41.4815 205.912 40.9844C205.448 40.4825 205.216 39.8551 205.216 39.1023C205.216 38.4867 205.389 37.9422 205.735 37.4688C206.085 36.9953 206.561 36.6236 207.162 36.3537C207.768 36.0838 208.455 35.9489 209.222 35.9489C210.301 35.9489 211.149 36.1856 211.765 36.6591C212.385 37.1326 212.825 37.7576 213.086 38.5341ZM220.381 47.2273C219.33 47.2273 218.424 46.9953 217.661 46.5312C216.904 46.0625 216.319 45.4091 215.907 44.571C215.5 43.7282 215.296 42.7481 215.296 41.6307C215.296 40.5133 215.5 39.5284 215.907 38.6761C216.319 37.8191 216.892 37.1515 217.626 36.6733C218.364 36.1903 219.226 35.9489 220.211 35.9489C220.779 35.9489 221.34 36.0436 221.894 36.233C222.448 36.4223 222.952 36.7301 223.407 37.1562C223.862 37.5777 224.224 38.1364 224.494 38.8324C224.763 39.5284 224.898 40.3854 224.898 41.4034V42.1136H216.489V40.6648H223.194C223.194 40.0492 223.071 39.5 222.825 39.017C222.583 38.5341 222.237 38.1529 221.788 37.8736C221.343 37.5942 220.817 37.4545 220.211 37.4545C219.543 37.4545 218.966 37.6203 218.478 37.9517C217.995 38.2784 217.623 38.7045 217.363 39.2301C217.103 39.7557 216.972 40.3191 216.972 40.9205V41.8864C216.972 42.7102 217.114 43.4086 217.398 43.9815C217.687 44.5497 218.087 44.983 218.599 45.2812C219.11 45.5748 219.704 45.7216 220.381 45.7216C220.822 45.7216 221.219 45.66 221.575 45.5369C221.934 45.4091 222.245 45.2197 222.505 44.9688C222.765 44.7131 222.967 44.3958 223.109 44.017L224.728 44.4716C224.558 45.0208 224.271 45.5038 223.869 45.9205C223.466 46.3324 222.969 46.6544 222.377 46.8864C221.785 47.1136 221.12 47.2273 220.381 47.2273ZM227.448 47V36.0909H229.067V37.7386H229.181C229.38 37.1989 229.74 36.7609 230.261 36.4247C230.781 36.0885 231.369 35.9205 232.022 35.9205C232.145 35.9205 232.299 35.9228 232.484 35.9276C232.668 35.9323 232.808 35.9394 232.903 35.9489V37.6534C232.846 37.6392 232.716 37.6179 232.512 37.5895C232.313 37.5563 232.103 37.5398 231.88 37.5398C231.35 37.5398 230.876 37.651 230.46 37.8736C230.048 38.0914 229.721 38.3944 229.479 38.7827C229.243 39.1662 229.124 39.6042 229.124 40.0966V47H227.448ZM236.566 40.4375V47H234.89V36.0909H236.509V37.7955H236.651C236.907 37.2415 237.295 36.7964 237.816 36.4602C238.337 36.1193 239.009 35.9489 239.833 35.9489C240.571 35.9489 241.218 36.1004 241.772 36.4034C242.326 36.7017 242.757 37.1562 243.064 37.767C243.372 38.3731 243.526 39.1402 243.526 40.0682V47H241.85V40.1818C241.85 39.3248 241.627 38.6572 241.182 38.179C240.737 37.696 240.126 37.4545 239.35 37.4545C238.815 37.4545 238.337 37.5705 237.915 37.8026C237.498 38.0346 237.169 38.3731 236.928 38.8182C236.686 39.2633 236.566 39.803 236.566 40.4375ZM249.799 47.2557C249.108 47.2557 248.48 47.1255 247.917 46.8651C247.353 46.5999 246.906 46.2188 246.575 45.7216C246.243 45.2197 246.077 44.6136 246.077 43.9034C246.077 43.2784 246.201 42.7718 246.447 42.3835C246.693 41.9905 247.022 41.6828 247.434 41.4602C247.846 41.2377 248.3 41.072 248.798 40.9631C249.299 40.8494 249.804 40.7595 250.31 40.6932C250.973 40.608 251.511 40.544 251.923 40.5014C252.339 40.4541 252.642 40.3759 252.832 40.267C253.026 40.1581 253.123 39.9687 253.123 39.6989V39.642C253.123 38.9413 252.931 38.3968 252.548 38.0085C252.169 37.6203 251.594 37.4261 250.822 37.4261C250.022 37.4261 249.394 37.6013 248.94 37.9517C248.485 38.3021 248.165 38.6761 247.981 39.0739L246.39 38.5057C246.674 37.8428 247.053 37.3267 247.526 36.9574C248.004 36.5833 248.525 36.3229 249.089 36.1761C249.657 36.0246 250.216 35.9489 250.765 35.9489C251.115 35.9489 251.518 35.9915 251.972 36.0767C252.432 36.1572 252.874 36.3253 253.3 36.581C253.731 36.8366 254.089 37.2225 254.373 37.7386C254.657 38.2547 254.799 38.946 254.799 39.8125V47H253.123V45.5227H253.038C252.924 45.7595 252.735 46.0128 252.469 46.2827C252.204 46.5526 251.852 46.7822 251.411 46.9716C250.971 47.161 250.433 47.2557 249.799 47.2557ZM250.055 45.75C250.718 45.75 251.276 45.6198 251.731 45.3594C252.19 45.099 252.536 44.7628 252.768 44.3509C253.004 43.9389 253.123 43.5057 253.123 43.0511V41.517C253.052 41.6023 252.896 41.6804 252.654 41.7514C252.417 41.8177 252.143 41.8769 251.83 41.929C251.522 41.9763 251.222 42.0189 250.928 42.0568C250.639 42.09 250.405 42.1184 250.225 42.142C249.79 42.1989 249.382 42.2912 249.004 42.419C248.629 42.5421 248.326 42.7292 248.094 42.9801C247.867 43.2263 247.754 43.5625 247.754 43.9886C247.754 44.571 247.969 45.0114 248.4 45.3097C248.835 45.6032 249.387 45.75 250.055 45.75ZM257.858 47V36.0909H259.478V37.7955H259.62C259.847 37.2131 260.214 36.7609 260.721 36.4389C261.227 36.1122 261.836 35.9489 262.546 35.9489C263.266 35.9489 263.864 36.1122 264.343 36.4389C264.826 36.7609 265.202 37.2131 265.472 37.7955H265.586C265.865 37.232 266.284 36.7846 266.843 36.4531C267.401 36.117 268.071 35.9489 268.853 35.9489C269.828 35.9489 270.626 36.2543 271.246 36.8651C271.866 37.4711 272.176 38.4157 272.176 39.6989V47H270.5V39.6989C270.5 38.8939 270.28 38.3187 269.84 37.973C269.4 37.6274 268.881 37.4545 268.284 37.4545C267.517 37.4545 266.923 37.6866 266.502 38.1506C266.08 38.6098 265.87 39.1922 265.87 39.8977V47H264.165V39.5284C264.165 38.9081 263.964 38.4086 263.561 38.0298C263.159 37.6463 262.641 37.4545 262.006 37.4545C261.57 37.4545 261.163 37.5705 260.784 37.8026C260.41 38.0346 260.107 38.3565 259.875 38.7685C259.648 39.1757 259.534 39.6468 259.534 40.1818V47H257.858ZM279.815 47.2273C278.764 47.2273 277.857 46.9953 277.095 46.5312C276.337 46.0625 275.752 45.4091 275.341 44.571C274.933 43.7282 274.73 42.7481 274.73 41.6307C274.73 40.5133 274.933 39.5284 275.341 38.6761C275.752 37.8191 276.325 37.1515 277.059 36.6733C277.798 36.1903 278.66 35.9489 279.645 35.9489C280.213 35.9489 280.774 36.0436 281.328 36.233C281.882 36.4223 282.386 36.7301 282.841 37.1562C283.295 37.5777 283.657 38.1364 283.927 38.8324C284.197 39.5284 284.332 40.3854 284.332 41.4034V42.1136H275.923V40.6648H282.627C282.627 40.0492 282.504 39.5 282.258 39.017C282.017 38.5341 281.671 38.1529 281.221 37.8736C280.776 37.5942 280.251 37.4545 279.645 37.4545C278.977 37.4545 278.399 37.6203 277.912 37.9517C277.429 38.2784 277.057 38.7045 276.797 39.2301C276.536 39.7557 276.406 40.3191 276.406 40.9205V41.8864C276.406 42.7102 276.548 43.4086 276.832 43.9815C277.121 44.5497 277.521 44.983 278.032 45.2812C278.544 45.5748 279.138 45.7216 279.815 45.7216C280.255 45.7216 280.653 45.66 281.008 45.5369C281.368 45.4091 281.678 45.2197 281.939 44.9688C282.199 44.7131 282.4 44.3958 282.542 44.017L284.162 44.4716C283.991 45.0208 283.705 45.5038 283.302 45.9205C282.9 46.3324 282.403 46.6544 281.811 46.8864C281.219 47.1136 280.554 47.2273 279.815 47.2273Z" fill="black"/>
<path d="M46.8203 35.3516L42.1719 40L46.8203 44.6484L45.6484 45.8203L41 41.1719L36.3516 45.8203L35.1797 44.6484L39.8281 40L35.1797 35.3516L36.3516 34.1797L41 38.8281L45.6484 34.1797L46.8203 35.3516Z" fill="black"/>
<rect x="297" y="20" width="40" height="40" rx="5" fill="#D9D9D9"/>
<circle cx="294.5" cy="719.5" r="7.5" fill="#D9D9D9"/>
</g>
<defs>
<clipPath id="clip0_3_2">
<rect width="360" height="800" fill="white"/>
</clipPath>
</defs>
</svg>
