<svg width="360" height="800" viewBox="0 0 360 800" fill="none" xmlns="http://www.w3.org/2000/svg">
<rect width="360" height="800" fill="white"/>
<rect x="30" y="718" width="300" height="50" rx="10" fill="#D9D9D9"/>
<path d="M110.759 752V734.545H117.646C118.964 734.545 120.089 734.781 121.021 735.253C121.958 735.719 122.671 736.381 123.16 737.239C123.654 738.091 123.901 739.094 123.901 740.247C123.901 741.406 123.651 742.403 123.151 743.239C122.651 744.068 121.927 744.705 120.978 745.148C120.035 745.591 118.893 745.812 117.552 745.812H112.941V742.847H116.955C117.66 742.847 118.245 742.75 118.711 742.557C119.177 742.364 119.523 742.074 119.751 741.688C119.984 741.301 120.1 740.821 120.1 740.247C120.1 739.668 119.984 739.179 119.751 738.781C119.523 738.384 119.174 738.082 118.702 737.878C118.237 737.668 117.648 737.562 116.938 737.562H114.45V752H110.759ZM120.185 744.057L124.523 752H120.45L116.205 744.057H120.185ZM126.509 752V734.545H138.271V737.588H130.2V741.747H137.665V744.79H130.2V748.957H138.305V752H126.509ZM152.778 740.188C152.659 739.773 152.491 739.406 152.276 739.088C152.06 738.764 151.795 738.491 151.483 738.27C151.176 738.043 150.824 737.869 150.426 737.75C150.034 737.631 149.599 737.571 149.122 737.571C148.23 737.571 147.446 737.793 146.77 738.236C146.099 738.679 145.577 739.324 145.202 740.17C144.827 741.011 144.639 742.04 144.639 743.256C144.639 744.472 144.824 745.506 145.193 746.358C145.563 747.21 146.085 747.861 146.761 748.31C147.438 748.753 148.236 748.974 149.156 748.974C149.991 748.974 150.705 748.827 151.295 748.531C151.892 748.23 152.347 747.807 152.659 747.261C152.977 746.716 153.136 746.071 153.136 745.327L153.886 745.438H149.386V742.659H156.69V744.858C156.69 746.392 156.366 747.71 155.719 748.812C155.071 749.909 154.179 750.756 153.043 751.352C151.906 751.943 150.605 752.239 149.139 752.239C147.503 752.239 146.065 751.878 144.827 751.156C143.588 750.429 142.622 749.398 141.929 748.062C141.241 746.722 140.898 745.131 140.898 743.29C140.898 741.875 141.102 740.614 141.511 739.506C141.926 738.392 142.506 737.449 143.25 736.676C143.994 735.903 144.861 735.315 145.849 734.912C146.838 734.509 147.909 734.307 149.062 734.307C150.051 734.307 150.972 734.452 151.824 734.741C152.676 735.026 153.432 735.429 154.091 735.952C154.756 736.474 155.298 737.097 155.719 737.818C156.139 738.534 156.409 739.324 156.528 740.188H152.778ZM163.153 734.545V752H159.462V734.545H163.153ZM175.658 739.565C175.589 738.878 175.297 738.344 174.78 737.963C174.263 737.582 173.561 737.392 172.675 737.392C172.072 737.392 171.564 737.477 171.149 737.648C170.734 737.812 170.416 738.043 170.195 738.338C169.979 738.634 169.871 738.969 169.871 739.344C169.859 739.656 169.925 739.929 170.067 740.162C170.214 740.395 170.416 740.597 170.672 740.767C170.928 740.932 171.223 741.077 171.558 741.202C171.893 741.321 172.251 741.423 172.632 741.509L174.2 741.884C174.962 742.054 175.661 742.281 176.297 742.565C176.933 742.849 177.484 743.199 177.95 743.614C178.416 744.028 178.777 744.517 179.033 745.08C179.294 745.642 179.428 746.287 179.433 747.014C179.428 748.082 179.155 749.009 178.615 749.793C178.081 750.571 177.308 751.176 176.297 751.608C175.291 752.034 174.078 752.247 172.658 752.247C171.249 752.247 170.021 752.031 168.976 751.599C167.936 751.168 167.124 750.528 166.538 749.682C165.959 748.83 165.655 747.776 165.626 746.52H169.197C169.237 747.105 169.405 747.594 169.7 747.986C170.001 748.372 170.402 748.665 170.902 748.864C171.408 749.057 171.979 749.153 172.615 749.153C173.24 749.153 173.783 749.062 174.243 748.881C174.709 748.699 175.07 748.446 175.325 748.122C175.581 747.798 175.709 747.426 175.709 747.006C175.709 746.614 175.592 746.284 175.359 746.017C175.132 745.75 174.797 745.523 174.354 745.335C173.916 745.148 173.379 744.977 172.743 744.824L170.842 744.347C169.371 743.989 168.209 743.429 167.357 742.668C166.504 741.906 166.081 740.881 166.087 739.591C166.081 738.534 166.362 737.611 166.93 736.821C167.504 736.031 168.291 735.415 169.291 734.972C170.291 734.528 171.428 734.307 172.7 734.307C173.996 734.307 175.126 734.528 176.092 734.972C177.064 735.415 177.82 736.031 178.359 736.821C178.899 737.611 179.178 738.526 179.195 739.565H175.658ZM181.251 737.588V734.545H195.586V737.588H190.242V752H186.594V737.588H181.251ZM197.947 752V734.545H204.833C206.151 734.545 207.276 734.781 208.208 735.253C209.146 735.719 209.859 736.381 210.347 737.239C210.842 738.091 211.089 739.094 211.089 740.247C211.089 741.406 210.839 742.403 210.339 743.239C209.839 744.068 209.114 744.705 208.165 745.148C207.222 745.591 206.08 745.812 204.739 745.812H200.129V742.847H204.143C204.847 742.847 205.433 742.75 205.898 742.557C206.364 742.364 206.711 742.074 206.938 741.688C207.171 741.301 207.288 740.821 207.288 740.247C207.288 739.668 207.171 739.179 206.938 738.781C206.711 738.384 206.362 738.082 205.89 737.878C205.424 737.668 204.836 737.562 204.126 737.562H201.637V752H197.947ZM207.373 744.057L211.711 752H207.637L203.393 744.057H207.373ZM216.705 752H212.751L218.776 734.545H223.532L229.549 752H225.594L221.222 738.534H221.086L216.705 752ZM216.458 745.139H225.799V748.02H216.458V745.139ZM228.852 737.588V734.545H243.188V737.588H237.844V752H234.196V737.588H228.852ZM249.239 734.545V752H245.548V734.545H249.239Z" fill="black"/>
<rect x="29.5" y="546.5" width="299" height="49" rx="9.5" stroke="black"/>
<line x1="72.9979" y1="583.5" x2="312.998" y2="582.474" stroke="black"/>
<path d="M82.3693 571.205C81.4489 571.205 80.6563 570.987 79.9915 570.553C79.3267 570.118 78.8153 569.519 78.4574 568.756C78.0994 567.994 77.9205 567.122 77.9205 566.142C77.9205 565.145 78.1037 564.265 78.4702 563.502C78.8409 562.735 79.3565 562.136 80.017 561.706C80.6818 561.271 81.4574 561.054 82.3438 561.054C83.0341 561.054 83.6562 561.182 84.2102 561.438C84.7642 561.693 85.218 562.051 85.5717 562.511C85.9254 562.972 86.1449 563.509 86.2301 564.122H84.7216C84.6065 563.675 84.3509 563.278 83.9545 562.933C83.5625 562.584 83.0341 562.409 82.3693 562.409C81.7813 562.409 81.2656 562.562 80.8224 562.869C80.3835 563.172 80.0405 563.6 79.7933 564.154C79.5504 564.704 79.429 565.349 79.429 566.091C79.429 566.849 79.5483 567.51 79.7869 568.072C80.0298 568.635 80.3707 569.072 80.8097 569.383C81.2528 569.694 81.7727 569.849 82.3693 569.849C82.7614 569.849 83.1172 569.781 83.4368 569.645C83.7564 569.509 84.027 569.312 84.2486 569.057C84.4702 568.801 84.6278 568.494 84.7216 568.136H86.2301C86.1449 568.716 85.9339 569.238 85.5973 569.702C85.2649 570.163 84.8239 570.529 84.2741 570.802C83.7287 571.07 83.0938 571.205 82.3693 571.205ZM92.424 571.205C91.5376 571.205 90.7599 570.994 90.0909 570.572C89.4261 570.15 88.9062 569.56 88.5312 568.801C88.1605 568.043 87.9751 567.156 87.9751 566.142C87.9751 565.119 88.1605 564.227 88.5312 563.464C88.9062 562.701 89.4261 562.109 90.0909 561.687C90.7599 561.265 91.5376 561.054 92.424 561.054C93.3104 561.054 94.0859 561.265 94.7507 561.687C95.4197 562.109 95.9396 562.701 96.3104 563.464C96.6854 564.227 96.8729 565.119 96.8729 566.142C96.8729 567.156 96.6854 568.043 96.3104 568.801C95.9396 569.56 95.4197 570.15 94.7507 570.572C94.0859 570.994 93.3104 571.205 92.424 571.205ZM92.424 569.849C93.0973 569.849 93.6513 569.677 94.0859 569.332C94.5206 568.987 94.8423 568.533 95.0511 567.97C95.2599 567.408 95.3643 566.798 95.3643 566.142C95.3643 565.486 95.2599 564.874 95.0511 564.308C94.8423 563.741 94.5206 563.283 94.0859 562.933C93.6513 562.584 93.0973 562.409 92.424 562.409C91.7507 562.409 91.1967 562.584 90.7621 562.933C90.3274 563.283 90.0057 563.741 89.7969 564.308C89.5881 564.874 89.4837 565.486 89.4837 566.142C89.4837 566.798 89.5881 567.408 89.7969 567.97C90.0057 568.533 90.3274 568.987 90.7621 569.332C91.1967 569.677 91.7507 569.849 92.424 569.849ZM100.684 565.094V571H99.1756V561.182H100.633V562.716H100.761C100.991 562.217 101.34 561.817 101.809 561.514C102.278 561.207 102.883 561.054 103.624 561.054C104.289 561.054 104.871 561.19 105.369 561.463C105.868 561.732 106.256 562.141 106.533 562.69C106.81 563.236 106.948 563.926 106.948 564.761V571H105.44V564.864C105.44 564.092 105.24 563.491 104.839 563.061C104.438 562.626 103.889 562.409 103.19 562.409C102.708 562.409 102.278 562.513 101.899 562.722C101.524 562.931 101.227 563.236 101.01 563.636C100.793 564.037 100.684 564.523 100.684 565.094ZM114.077 561.182V562.46H108.784V561.182H114.077ZM110.37 571V559.827C110.37 559.264 110.502 558.795 110.766 558.42C111.03 558.045 111.373 557.764 111.795 557.577C112.217 557.389 112.662 557.295 113.131 557.295C113.502 557.295 113.804 557.325 114.039 557.385C114.273 557.445 114.448 557.5 114.563 557.551L114.128 558.855C114.051 558.83 113.945 558.798 113.809 558.759C113.676 558.721 113.502 558.702 113.284 558.702C112.786 558.702 112.426 558.827 112.204 559.079C111.987 559.33 111.878 559.699 111.878 560.185V571H110.37ZM119.903 571.205C118.957 571.205 118.141 570.996 117.455 570.578C116.773 570.156 116.247 569.568 115.876 568.814C115.51 568.055 115.327 567.173 115.327 566.168C115.327 565.162 115.51 564.276 115.876 563.509C116.247 562.737 116.763 562.136 117.423 561.706C118.088 561.271 118.864 561.054 119.75 561.054C120.261 561.054 120.766 561.139 121.265 561.31C121.763 561.48 122.217 561.757 122.626 562.141C123.036 562.52 123.362 563.023 123.604 563.649C123.847 564.276 123.969 565.047 123.969 565.963V566.602H116.401V565.298H122.435C122.435 564.744 122.324 564.25 122.102 563.815C121.885 563.381 121.574 563.038 121.169 562.786C120.768 562.535 120.295 562.409 119.75 562.409C119.149 562.409 118.629 562.558 118.19 562.857C117.756 563.151 117.421 563.534 117.187 564.007C116.952 564.48 116.835 564.987 116.835 565.528V566.398C116.835 567.139 116.963 567.768 117.219 568.283C117.479 568.795 117.839 569.185 118.299 569.453C118.759 569.717 119.294 569.849 119.903 569.849C120.3 569.849 120.658 569.794 120.977 569.683C121.301 569.568 121.58 569.398 121.815 569.172C122.049 568.942 122.23 568.656 122.358 568.315L123.815 568.724C123.662 569.219 123.404 569.653 123.042 570.028C122.68 570.399 122.232 570.689 121.7 570.898C121.167 571.102 120.568 571.205 119.903 571.205ZM126.263 571V561.182H127.721V562.665H127.823C128.002 562.179 128.326 561.785 128.795 561.482C129.263 561.18 129.792 561.028 130.38 561.028C130.491 561.028 130.629 561.031 130.795 561.035C130.962 561.039 131.087 561.045 131.173 561.054V562.588C131.121 562.575 131.004 562.556 130.821 562.531C130.642 562.501 130.452 562.486 130.252 562.486C129.775 562.486 129.349 562.586 128.974 562.786C128.603 562.982 128.309 563.255 128.092 563.604C127.879 563.95 127.772 564.344 127.772 564.787V571H126.263ZM132.961 571V561.182H134.418V562.716H134.546C134.751 562.192 135.081 561.785 135.537 561.495C135.993 561.201 136.54 561.054 137.18 561.054C137.827 561.054 138.366 561.201 138.797 561.495C139.231 561.785 139.57 562.192 139.813 562.716H139.915C140.167 562.209 140.544 561.806 141.047 561.508C141.55 561.205 142.153 561.054 142.856 561.054C143.733 561.054 144.452 561.329 145.01 561.879C145.568 562.424 145.847 563.274 145.847 564.429V571H144.339V564.429C144.339 563.705 144.14 563.187 143.744 562.876C143.348 562.565 142.881 562.409 142.344 562.409C141.654 562.409 141.119 562.618 140.74 563.036C140.361 563.449 140.171 563.973 140.171 564.608V571H138.637V564.276C138.637 563.717 138.456 563.268 138.094 562.927C137.731 562.582 137.265 562.409 136.694 562.409C136.302 562.409 135.935 562.513 135.594 562.722C135.258 562.931 134.985 563.221 134.776 563.592C134.572 563.958 134.469 564.382 134.469 564.864V571H132.961ZM151.494 571.23C150.872 571.23 150.308 571.113 149.801 570.879C149.294 570.64 148.891 570.297 148.593 569.849C148.294 569.398 148.145 568.852 148.145 568.213C148.145 567.651 148.256 567.195 148.477 566.845C148.699 566.491 148.995 566.214 149.366 566.014C149.737 565.814 150.146 565.665 150.593 565.567C151.045 565.464 151.499 565.384 151.955 565.324C152.551 565.247 153.035 565.19 153.406 565.151C153.781 565.109 154.053 565.038 154.224 564.94C154.399 564.842 154.486 564.672 154.486 564.429V564.378C154.486 563.747 154.313 563.257 153.968 562.908C153.627 562.558 153.11 562.384 152.415 562.384C151.695 562.384 151.13 562.541 150.721 562.857C150.312 563.172 150.024 563.509 149.858 563.866L148.426 563.355C148.682 562.759 149.023 562.294 149.449 561.962C149.879 561.625 150.348 561.391 150.855 561.259C151.367 561.122 151.869 561.054 152.364 561.054C152.679 561.054 153.041 561.092 153.45 561.169C153.864 561.241 154.262 561.393 154.646 561.623C155.034 561.853 155.355 562.2 155.611 562.665C155.867 563.129 155.994 563.751 155.994 564.531V571H154.486V569.67H154.409C154.307 569.884 154.137 570.112 153.898 570.354C153.659 570.597 153.342 570.804 152.945 570.974C152.549 571.145 152.066 571.23 151.494 571.23ZM151.725 569.875C152.321 569.875 152.824 569.758 153.233 569.523C153.646 569.289 153.958 568.987 154.166 568.616C154.379 568.245 154.486 567.855 154.486 567.446V566.065C154.422 566.142 154.281 566.212 154.064 566.276C153.851 566.336 153.604 566.389 153.323 566.436C153.046 566.479 152.775 566.517 152.511 566.551C152.251 566.581 152.04 566.607 151.878 566.628C151.486 566.679 151.119 566.762 150.779 566.877C150.442 566.988 150.169 567.156 149.96 567.382C149.756 567.604 149.654 567.906 149.654 568.29C149.654 568.814 149.847 569.21 150.235 569.479C150.627 569.743 151.124 569.875 151.725 569.875ZM163.81 574.682V561.182H165.268V562.741H165.447C165.558 562.571 165.711 562.354 165.907 562.089C166.107 561.821 166.393 561.582 166.763 561.374C167.138 561.161 167.646 561.054 168.285 561.054C169.112 561.054 169.84 561.261 170.471 561.674C171.102 562.087 171.594 562.673 171.947 563.432C172.301 564.19 172.478 565.085 172.478 566.116C172.478 567.156 172.301 568.058 171.947 568.82C171.594 569.579 171.104 570.167 170.477 570.585C169.851 570.998 169.129 571.205 168.31 571.205C167.68 571.205 167.175 571.1 166.795 570.891C166.416 570.678 166.124 570.437 165.92 570.169C165.715 569.896 165.558 569.67 165.447 569.491H165.319V574.682H163.81ZM165.293 566.091C165.293 566.832 165.402 567.487 165.619 568.053C165.837 568.616 166.154 569.057 166.572 569.376C166.989 569.692 167.501 569.849 168.106 569.849C168.737 569.849 169.263 569.683 169.685 569.351C170.111 569.014 170.43 568.562 170.643 567.996C170.861 567.425 170.969 566.79 170.969 566.091C170.969 565.401 170.863 564.778 170.65 564.224C170.441 563.666 170.124 563.225 169.697 562.901C169.276 562.573 168.745 562.409 168.106 562.409C167.492 562.409 166.977 562.565 166.559 562.876C166.141 563.183 165.826 563.613 165.613 564.167C165.4 564.717 165.293 565.358 165.293 566.091ZM177.668 571.23C177.046 571.23 176.482 571.113 175.974 570.879C175.467 570.64 175.065 570.297 174.766 569.849C174.468 569.398 174.319 568.852 174.319 568.213C174.319 567.651 174.43 567.195 174.651 566.845C174.873 566.491 175.169 566.214 175.54 566.014C175.911 565.814 176.32 565.665 176.767 565.567C177.219 565.464 177.673 565.384 178.129 565.324C178.725 565.247 179.209 565.19 179.58 565.151C179.955 565.109 180.227 565.038 180.398 564.94C180.572 564.842 180.66 564.672 180.66 564.429V564.378C180.66 563.747 180.487 563.257 180.142 562.908C179.801 562.558 179.283 562.384 178.589 562.384C177.869 562.384 177.304 562.541 176.895 562.857C176.486 563.172 176.198 563.509 176.032 563.866L174.6 563.355C174.856 562.759 175.197 562.294 175.623 561.962C176.053 561.625 176.522 561.391 177.029 561.259C177.54 561.122 178.043 561.054 178.538 561.054C178.853 561.054 179.215 561.092 179.624 561.169C180.038 561.241 180.436 561.393 180.82 561.623C181.207 561.853 181.529 562.2 181.785 562.665C182.04 563.129 182.168 563.751 182.168 564.531V571H180.66V569.67H180.583C180.481 569.884 180.31 570.112 180.072 570.354C179.833 570.597 179.516 570.804 179.119 570.974C178.723 571.145 178.239 571.23 177.668 571.23ZM177.898 569.875C178.495 569.875 178.998 569.758 179.407 569.523C179.82 569.289 180.131 568.987 180.34 568.616C180.553 568.245 180.66 567.855 180.66 567.446V566.065C180.596 566.142 180.455 566.212 180.238 566.276C180.025 566.336 179.778 566.389 179.496 566.436C179.219 566.479 178.949 566.517 178.685 566.551C178.425 566.581 178.214 566.607 178.052 566.628C177.66 566.679 177.293 566.762 176.952 566.877C176.616 566.988 176.343 567.156 176.134 567.382C175.93 567.604 175.827 567.906 175.827 568.29C175.827 568.814 176.021 569.21 176.409 569.479C176.801 569.743 177.298 569.875 177.898 569.875ZM191.876 563.381L190.521 563.764C190.436 563.538 190.31 563.319 190.144 563.106C189.982 562.888 189.76 562.71 189.479 562.569C189.198 562.428 188.838 562.358 188.399 562.358C187.798 562.358 187.297 562.496 186.897 562.773C186.501 563.046 186.302 563.393 186.302 563.815C186.302 564.19 186.439 564.487 186.711 564.704C186.984 564.921 187.41 565.102 187.99 565.247L189.447 565.605C190.325 565.818 190.979 566.144 191.41 566.583C191.84 567.018 192.055 567.578 192.055 568.264C192.055 568.827 191.893 569.33 191.569 569.773C191.25 570.216 190.802 570.565 190.227 570.821C189.652 571.077 188.983 571.205 188.22 571.205C187.219 571.205 186.39 570.987 185.733 570.553C185.077 570.118 184.662 569.483 184.487 568.648L185.919 568.29C186.055 568.818 186.313 569.214 186.692 569.479C187.076 569.743 187.577 569.875 188.194 569.875C188.898 569.875 189.456 569.726 189.869 569.428C190.287 569.125 190.496 568.763 190.496 568.341C190.496 568 190.376 567.714 190.138 567.484C189.899 567.25 189.532 567.075 189.038 566.96L187.402 566.577C186.503 566.364 185.842 566.033 185.42 565.586C185.003 565.134 184.794 564.57 184.794 563.892C184.794 563.338 184.949 562.848 185.26 562.422C185.576 561.996 186.004 561.661 186.545 561.418C187.091 561.175 187.709 561.054 188.399 561.054C189.371 561.054 190.133 561.267 190.687 561.693C191.246 562.119 191.642 562.682 191.876 563.381ZM201.281 563.381L199.925 563.764C199.84 563.538 199.714 563.319 199.548 563.106C199.386 562.888 199.165 562.71 198.884 562.569C198.602 562.428 198.242 562.358 197.803 562.358C197.202 562.358 196.702 562.496 196.301 562.773C195.905 563.046 195.707 563.393 195.707 563.815C195.707 564.19 195.843 564.487 196.116 564.704C196.388 564.921 196.815 565.102 197.394 565.247L198.852 565.605C199.729 565.818 200.384 566.144 200.814 566.583C201.244 567.018 201.46 567.578 201.46 568.264C201.46 568.827 201.298 569.33 200.974 569.773C200.654 570.216 200.207 570.565 199.631 570.821C199.056 571.077 198.387 571.205 197.624 571.205C196.623 571.205 195.794 570.987 195.138 570.553C194.482 570.118 194.066 569.483 193.891 568.648L195.323 568.29C195.46 568.818 195.717 569.214 196.097 569.479C196.48 569.743 196.981 569.875 197.599 569.875C198.302 569.875 198.86 569.726 199.273 569.428C199.691 569.125 199.9 568.763 199.9 568.341C199.9 568 199.781 567.714 199.542 567.484C199.303 567.25 198.937 567.075 198.442 566.96L196.806 566.577C195.907 566.364 195.246 566.033 194.825 565.586C194.407 565.134 194.198 564.57 194.198 563.892C194.198 563.338 194.354 562.848 194.665 562.422C194.98 561.996 195.408 561.661 195.95 561.418C196.495 561.175 197.113 561.054 197.803 561.054C198.775 561.054 199.538 561.267 200.092 561.693C200.65 562.119 201.046 562.682 201.281 563.381ZM205.955 571L202.963 561.182H204.548L206.671 568.699H206.773L208.869 561.182H210.48L212.551 568.673H212.654L214.776 561.182H216.361L213.369 571H211.887L209.739 563.457H209.585L207.438 571H205.955ZM222.01 571.205C221.124 571.205 220.346 570.994 219.677 570.572C219.012 570.15 218.492 569.56 218.117 568.801C217.746 568.043 217.561 567.156 217.561 566.142C217.561 565.119 217.746 564.227 218.117 563.464C218.492 562.701 219.012 562.109 219.677 561.687C220.346 561.265 221.124 561.054 222.01 561.054C222.896 561.054 223.672 561.265 224.337 561.687C225.006 562.109 225.526 562.701 225.896 563.464C226.271 564.227 226.459 565.119 226.459 566.142C226.459 567.156 226.271 568.043 225.896 568.801C225.526 569.56 225.006 570.15 224.337 570.572C223.672 570.994 222.896 571.205 222.01 571.205ZM222.01 569.849C222.683 569.849 223.237 569.677 223.672 569.332C224.107 568.987 224.428 568.533 224.637 567.97C224.846 567.408 224.95 566.798 224.95 566.142C224.95 565.486 224.846 564.874 224.637 564.308C224.428 563.741 224.107 563.283 223.672 562.933C223.237 562.584 222.683 562.409 222.01 562.409C221.337 562.409 220.783 562.584 220.348 562.933C219.913 563.283 219.592 563.741 219.383 564.308C219.174 564.874 219.07 565.486 219.07 566.142C219.07 566.798 219.174 567.408 219.383 567.97C219.592 568.533 219.913 568.987 220.348 569.332C220.783 569.677 221.337 569.849 222.01 569.849ZM228.762 571V561.182H230.219V562.665H230.321C230.5 562.179 230.824 561.785 231.293 561.482C231.762 561.18 232.29 561.028 232.878 561.028C232.989 561.028 233.127 561.031 233.294 561.035C233.46 561.039 233.585 561.045 233.671 561.054V562.588C233.619 562.575 233.502 562.556 233.319 562.531C233.14 562.501 232.95 562.486 232.75 562.486C232.273 562.486 231.847 562.586 231.472 562.786C231.101 562.982 230.807 563.255 230.59 563.604C230.377 563.95 230.27 564.344 230.27 564.787V571H228.762ZM238.867 571.205C238.049 571.205 237.327 570.998 236.7 570.585C236.074 570.167 235.584 569.579 235.23 568.82C234.877 568.058 234.7 567.156 234.7 566.116C234.7 565.085 234.877 564.19 235.23 563.432C235.584 562.673 236.076 562.087 236.707 561.674C237.338 561.261 238.066 561.054 238.893 561.054C239.532 561.054 240.037 561.161 240.408 561.374C240.783 561.582 241.068 561.821 241.264 562.089C241.465 562.354 241.62 562.571 241.731 562.741H241.859V557.909H243.367V571H241.91V569.491H241.731C241.62 569.67 241.463 569.896 241.258 570.169C241.053 570.437 240.762 570.678 240.382 570.891C240.003 571.1 239.498 571.205 238.867 571.205ZM239.072 569.849C239.677 569.849 240.188 569.692 240.606 569.376C241.024 569.057 241.341 568.616 241.558 568.053C241.776 567.487 241.884 566.832 241.884 566.091C241.884 565.358 241.778 564.717 241.565 564.167C241.352 563.613 241.036 563.183 240.619 562.876C240.201 562.565 239.686 562.409 239.072 562.409C238.433 562.409 237.9 562.573 237.474 562.901C237.052 563.225 236.735 563.666 236.521 564.224C236.313 564.778 236.208 565.401 236.208 566.091C236.208 566.79 236.315 567.425 236.528 567.996C236.745 568.562 237.065 569.014 237.487 569.351C237.913 569.683 238.441 569.849 239.072 569.849Z" fill="#D9D9D9"/>
<path d="M52.5781 565.68V564C52.5781 563.297 52.3177 562.698 51.7969 562.203C51.3021 561.682 50.7031 561.422 50 561.422C49.2969 561.422 48.6849 561.682 48.1641 562.203C47.6693 562.698 47.4219 563.297 47.4219 564V565.68H52.5781ZM48.8281 572.672C49.1667 573.01 49.5573 573.18 50 573.18C50.4427 573.18 50.8333 573.01 51.1719 572.672C51.5104 572.333 51.6797 571.943 51.6797 571.5C51.6797 571.057 51.5104 570.667 51.1719 570.328C50.8333 569.99 50.4427 569.82 50 569.82C49.5573 569.82 49.1667 569.99 48.8281 570.328C48.4896 570.667 48.3203 571.057 48.3203 571.5C48.3203 571.943 48.4896 572.333 48.8281 572.672ZM55 565.68C55.4427 565.68 55.8333 565.849 56.1719 566.188C56.5104 566.5 56.6797 566.878 56.6797 567.32V575.68C56.6797 576.122 56.5104 576.513 56.1719 576.852C55.8333 577.164 55.4427 577.32 55 577.32H45C44.5573 577.32 44.1667 577.164 43.8281 576.852C43.4896 576.513 43.3203 576.122 43.3203 575.68V567.32C43.3203 566.878 43.4896 566.5 43.8281 566.188C44.1667 565.849 44.5573 565.68 45 565.68H45.8203V564C45.8203 562.854 46.224 561.878 47.0312 561.07C47.8646 560.237 48.8542 559.82 50 559.82C51.1458 559.82 52.1224 560.237 52.9297 561.07C53.763 561.878 54.1797 562.854 54.1797 564V565.68H55Z" fill="black"/>
<rect x="29.5" y="478.5" width="299" height="49" rx="9.5" stroke="black"/>
<line x1="72.9979" y1="515.5" x2="312.998" y2="514.474" stroke="black"/>
<path d="M79.3807 506.682V493.182H80.8381V494.741H81.017C81.1278 494.571 81.2813 494.354 81.4773 494.089C81.6776 493.821 81.9631 493.582 82.3338 493.374C82.7088 493.161 83.2159 493.054 83.8551 493.054C84.6818 493.054 85.4105 493.261 86.0412 493.674C86.6719 494.087 87.1641 494.673 87.5178 495.432C87.8714 496.19 88.0483 497.085 88.0483 498.116C88.0483 499.156 87.8714 500.058 87.5178 500.82C87.1641 501.579 86.674 502.167 86.0476 502.585C85.4212 502.998 84.6989 503.205 83.8807 503.205C83.25 503.205 82.745 503.1 82.3658 502.891C81.9865 502.678 81.6946 502.437 81.4901 502.169C81.2855 501.896 81.1278 501.67 81.017 501.491H80.8892V506.682H79.3807ZM80.8636 498.091C80.8636 498.832 80.9723 499.487 81.1896 500.053C81.407 500.616 81.7244 501.057 82.142 501.376C82.5597 501.692 83.071 501.849 83.6761 501.849C84.3068 501.849 84.8331 501.683 85.255 501.351C85.6811 501.014 86.0007 500.562 86.2138 499.996C86.4311 499.425 86.5398 498.79 86.5398 498.091C86.5398 497.401 86.4332 496.778 86.2202 496.224C86.0114 495.666 85.6939 495.225 85.2678 494.901C84.8459 494.573 84.3153 494.409 83.6761 494.409C83.0625 494.409 82.5469 494.565 82.1293 494.876C81.7116 495.183 81.3963 495.613 81.1832 496.167C80.9702 496.717 80.8636 497.358 80.8636 498.091ZM93.2386 503.23C92.6165 503.23 92.0518 503.113 91.5447 502.879C91.0376 502.64 90.6349 502.297 90.3366 501.849C90.0384 501.398 89.8892 500.852 89.8892 500.213C89.8892 499.651 90 499.195 90.2216 498.845C90.4432 498.491 90.7393 498.214 91.1101 498.014C91.4808 497.814 91.8899 497.665 92.3374 497.567C92.7891 497.464 93.2429 497.384 93.6989 497.324C94.2955 497.247 94.7791 497.19 95.1499 497.151C95.5249 497.109 95.7976 497.038 95.968 496.94C96.1428 496.842 96.2301 496.672 96.2301 496.429V496.378C96.2301 495.747 96.0575 495.257 95.7124 494.908C95.3714 494.558 94.8537 494.384 94.1591 494.384C93.4389 494.384 92.8743 494.541 92.4652 494.857C92.0561 495.172 91.7685 495.509 91.6023 495.866L90.1705 495.355C90.4261 494.759 90.767 494.294 91.1932 493.962C91.6236 493.625 92.0923 493.391 92.5994 493.259C93.1108 493.122 93.6136 493.054 94.108 493.054C94.4233 493.054 94.7855 493.092 95.1946 493.169C95.608 493.241 96.0064 493.393 96.3899 493.623C96.7777 493.853 97.0994 494.2 97.3551 494.665C97.6108 495.129 97.7386 495.751 97.7386 496.531V503H96.2301V501.67H96.1534C96.0511 501.884 95.8807 502.112 95.642 502.354C95.4034 502.597 95.0859 502.804 94.6896 502.974C94.2933 503.145 93.8097 503.23 93.2386 503.23ZM93.4688 501.875C94.0653 501.875 94.5682 501.758 94.9773 501.523C95.3906 501.289 95.7017 500.987 95.9105 500.616C96.1236 500.245 96.2301 499.855 96.2301 499.446V498.065C96.1662 498.142 96.0256 498.212 95.8082 498.276C95.5952 498.336 95.348 498.389 95.0668 498.436C94.7898 498.479 94.5192 498.517 94.255 498.551C93.995 498.581 93.7841 498.607 93.6222 498.628C93.2301 498.679 92.8636 498.762 92.5227 498.877C92.1861 498.988 91.9134 499.156 91.7045 499.382C91.5 499.604 91.3977 499.906 91.3977 500.29C91.3977 500.814 91.5916 501.21 91.9794 501.479C92.3714 501.743 92.8679 501.875 93.4688 501.875ZM107.447 495.381L106.091 495.764C106.006 495.538 105.881 495.319 105.714 495.106C105.552 494.888 105.331 494.71 105.05 494.569C104.768 494.428 104.408 494.358 103.969 494.358C103.368 494.358 102.868 494.496 102.467 494.773C102.071 495.046 101.873 495.393 101.873 495.815C101.873 496.19 102.009 496.487 102.282 496.704C102.555 496.921 102.981 497.102 103.56 497.247L105.018 497.605C105.895 497.818 106.55 498.144 106.98 498.583C107.41 499.018 107.626 499.578 107.626 500.264C107.626 500.827 107.464 501.33 107.14 501.773C106.82 502.216 106.373 502.565 105.797 502.821C105.222 503.077 104.553 503.205 103.79 503.205C102.789 503.205 101.96 502.987 101.304 502.553C100.648 502.118 100.232 501.483 100.057 500.648L101.489 500.29C101.626 500.818 101.883 501.214 102.263 501.479C102.646 501.743 103.147 501.875 103.765 501.875C104.468 501.875 105.026 501.726 105.439 501.428C105.857 501.125 106.066 500.763 106.066 500.341C106.066 500 105.947 499.714 105.708 499.484C105.469 499.25 105.103 499.075 104.608 498.96L102.972 498.577C102.073 498.364 101.412 498.033 100.991 497.586C100.573 497.134 100.364 496.57 100.364 495.892C100.364 495.338 100.52 494.848 100.831 494.422C101.146 493.996 101.574 493.661 102.116 493.418C102.661 493.175 103.279 493.054 103.969 493.054C104.941 493.054 105.704 493.267 106.258 493.693C106.816 494.119 107.212 494.682 107.447 495.381ZM116.851 495.381L115.496 495.764C115.411 495.538 115.285 495.319 115.119 495.106C114.957 494.888 114.735 494.71 114.454 494.569C114.173 494.428 113.812 494.358 113.374 494.358C112.773 494.358 112.272 494.496 111.871 494.773C111.475 495.046 111.277 495.393 111.277 495.815C111.277 496.19 111.413 496.487 111.686 496.704C111.959 496.921 112.385 497.102 112.964 497.247L114.422 497.605C115.3 497.818 115.954 498.144 116.384 498.583C116.815 499.018 117.03 499.578 117.03 500.264C117.03 500.827 116.868 501.33 116.544 501.773C116.224 502.216 115.777 502.565 115.202 502.821C114.626 503.077 113.957 503.205 113.195 503.205C112.193 503.205 111.364 502.987 110.708 502.553C110.052 502.118 109.636 501.483 109.462 500.648L110.893 500.29C111.03 500.818 111.288 501.214 111.667 501.479C112.05 501.743 112.551 501.875 113.169 501.875C113.872 501.875 114.43 501.726 114.844 501.428C115.261 501.125 115.47 500.763 115.47 500.341C115.47 500 115.351 499.714 115.112 499.484C114.874 499.25 114.507 499.075 114.013 498.96L112.376 498.577C111.477 498.364 110.817 498.033 110.395 497.586C109.977 497.134 109.768 496.57 109.768 495.892C109.768 495.338 109.924 494.848 110.235 494.422C110.55 493.996 110.979 493.661 111.52 493.418C112.065 493.175 112.683 493.054 113.374 493.054C114.345 493.054 115.108 493.267 115.662 493.693C116.22 494.119 116.616 494.682 116.851 495.381ZM121.525 503L118.534 493.182H120.119L122.241 500.699H122.343L124.44 493.182H126.051L128.122 500.673H128.224L130.346 493.182H131.931L128.94 503H127.457L125.309 495.457H125.156L123.008 503H121.525ZM137.58 503.205C136.694 503.205 135.916 502.994 135.247 502.572C134.582 502.15 134.062 501.56 133.688 500.801C133.317 500.043 133.131 499.156 133.131 498.142C133.131 497.119 133.317 496.227 133.688 495.464C134.062 494.701 134.582 494.109 135.247 493.687C135.916 493.265 136.694 493.054 137.58 493.054C138.467 493.054 139.242 493.265 139.907 493.687C140.576 494.109 141.096 494.701 141.467 495.464C141.842 496.227 142.029 497.119 142.029 498.142C142.029 499.156 141.842 500.043 141.467 500.801C141.096 501.56 140.576 502.15 139.907 502.572C139.242 502.994 138.467 503.205 137.58 503.205ZM137.58 501.849C138.254 501.849 138.808 501.677 139.242 501.332C139.677 500.987 139.999 500.533 140.207 499.97C140.416 499.408 140.521 498.798 140.521 498.142C140.521 497.486 140.416 496.874 140.207 496.308C139.999 495.741 139.677 495.283 139.242 494.933C138.808 494.584 138.254 494.409 137.58 494.409C136.907 494.409 136.353 494.584 135.918 494.933C135.484 495.283 135.162 495.741 134.953 496.308C134.744 496.874 134.64 497.486 134.64 498.142C134.64 498.798 134.744 499.408 134.953 499.97C135.162 500.533 135.484 500.987 135.918 501.332C136.353 501.677 136.907 501.849 137.58 501.849ZM144.332 503V493.182H145.789V494.665H145.892C146.07 494.179 146.394 493.785 146.863 493.482C147.332 493.18 147.86 493.028 148.448 493.028C148.559 493.028 148.698 493.031 148.864 493.035C149.03 493.039 149.156 493.045 149.241 493.054V494.588C149.19 494.575 149.073 494.556 148.889 494.531C148.71 494.501 148.521 494.486 148.32 494.486C147.843 494.486 147.417 494.586 147.042 494.786C146.671 494.982 146.377 495.255 146.16 495.604C145.947 495.95 145.84 496.344 145.84 496.787V503H144.332ZM154.438 503.205C153.619 503.205 152.897 502.998 152.271 502.585C151.644 502.167 151.154 501.579 150.801 500.82C150.447 500.058 150.27 499.156 150.27 498.116C150.27 497.085 150.447 496.19 150.801 495.432C151.154 494.673 151.646 494.087 152.277 493.674C152.908 493.261 153.637 493.054 154.463 493.054C155.102 493.054 155.607 493.161 155.978 493.374C156.353 493.582 156.639 493.821 156.835 494.089C157.035 494.354 157.191 494.571 157.301 494.741H157.429V489.909H158.938V503H157.48V501.491H157.301C157.191 501.67 157.033 501.896 156.828 502.169C156.624 502.437 156.332 502.678 155.953 502.891C155.573 503.1 155.068 503.205 154.438 503.205ZM154.642 501.849C155.247 501.849 155.759 501.692 156.176 501.376C156.594 501.057 156.911 500.616 157.129 500.053C157.346 499.487 157.455 498.832 157.455 498.091C157.455 497.358 157.348 496.717 157.135 496.167C156.922 495.613 156.607 495.183 156.189 494.876C155.771 494.565 155.256 494.409 154.642 494.409C154.003 494.409 153.47 494.573 153.044 494.901C152.622 495.225 152.305 495.666 152.092 496.224C151.883 496.778 151.779 497.401 151.779 498.091C151.779 498.79 151.885 499.425 152.098 499.996C152.316 500.562 152.635 501.014 153.057 501.351C153.483 501.683 154.012 501.849 154.642 501.849Z" fill="#D9D9D9"/>
<path d="M52.5781 497.68V496C52.5781 495.297 52.3177 494.698 51.7969 494.203C51.3021 493.682 50.7031 493.422 50 493.422C49.2969 493.422 48.6849 493.682 48.1641 494.203C47.6693 494.698 47.4219 495.297 47.4219 496V497.68H52.5781ZM48.8281 504.672C49.1667 505.01 49.5573 505.18 50 505.18C50.4427 505.18 50.8333 505.01 51.1719 504.672C51.5104 504.333 51.6797 503.943 51.6797 503.5C51.6797 503.057 51.5104 502.667 51.1719 502.328C50.8333 501.99 50.4427 501.82 50 501.82C49.5573 501.82 49.1667 501.99 48.8281 502.328C48.4896 502.667 48.3203 503.057 48.3203 503.5C48.3203 503.943 48.4896 504.333 48.8281 504.672ZM55 497.68C55.4427 497.68 55.8333 497.849 56.1719 498.188C56.5104 498.5 56.6797 498.878 56.6797 499.32V507.68C56.6797 508.122 56.5104 508.513 56.1719 508.852C55.8333 509.164 55.4427 509.32 55 509.32H45C44.5573 509.32 44.1667 509.164 43.8281 508.852C43.4896 508.513 43.3203 508.122 43.3203 507.68V499.32C43.3203 498.878 43.4896 498.5 43.8281 498.188C44.1667 497.849 44.5573 497.68 45 497.68H45.8203V496C45.8203 494.854 46.224 493.878 47.0312 493.07C47.8646 492.237 48.8542 491.82 50 491.82C51.1458 491.82 52.1224 492.237 52.9297 493.07C53.763 493.878 54.1797 494.854 54.1797 496V497.68H55Z" fill="black"/>
<line x1="72.9979" y1="446.526" x2="312.998" y2="445.5" stroke="black"/>
<path d="M85.5682 430.986V425.182H87.0767V435H85.5682V433.338H85.4659C85.2358 433.837 84.8778 434.261 84.392 434.61C83.9063 434.955 83.2926 435.128 82.5511 435.128C81.9375 435.128 81.392 434.994 80.9148 434.725C80.4375 434.452 80.0625 434.043 79.7898 433.498C79.517 432.948 79.3807 432.256 79.3807 431.42V425.182H80.8892V431.318C80.8892 432.034 81.0895 432.605 81.4901 433.031C81.8949 433.457 82.4105 433.67 83.0369 433.67C83.4119 433.67 83.7933 433.575 84.1811 433.383C84.5732 433.191 84.9013 432.897 85.1655 432.501C85.4339 432.104 85.5682 431.599 85.5682 430.986ZM96.7942 427.381L95.4391 427.764C95.3539 427.538 95.2282 427.319 95.062 427.106C94.9 426.888 94.6784 426.71 94.3972 426.569C94.1159 426.428 93.7559 426.358 93.3169 426.358C92.7161 426.358 92.2154 426.496 91.8148 426.773C91.4185 427.046 91.2203 427.393 91.2203 427.815C91.2203 428.19 91.3567 428.487 91.6294 428.704C91.9022 428.921 92.3283 429.102 92.9078 429.247L94.3652 429.605C95.2431 429.818 95.8972 430.144 96.3276 430.583C96.758 431.018 96.9732 431.578 96.9732 432.264C96.9732 432.827 96.8113 433.33 96.4874 433.773C96.1678 434.216 95.7203 434.565 95.1451 434.821C94.5698 435.077 93.9007 435.205 93.138 435.205C92.1365 435.205 91.3077 434.987 90.6515 434.553C89.9952 434.118 89.5797 433.483 89.405 432.648L90.8368 432.29C90.9732 432.818 91.231 433.214 91.6103 433.479C91.9938 433.743 92.4945 433.875 93.1124 433.875C93.8155 433.875 94.3738 433.726 94.7871 433.428C95.2047 433.125 95.4135 432.763 95.4135 432.341C95.4135 432 95.2942 431.714 95.0556 431.484C94.8169 431.25 94.4505 431.075 93.9561 430.96L92.3198 430.577C91.4206 430.364 90.7601 430.033 90.3382 429.586C89.9206 429.134 89.7118 428.57 89.7118 427.892C89.7118 427.338 89.8674 426.848 90.1784 426.422C90.4938 425.996 90.9221 425.661 91.4632 425.418C92.0087 425.175 92.6266 425.054 93.3169 425.054C94.2885 425.054 95.0513 425.267 95.6053 425.693C96.1635 426.119 96.5598 426.682 96.7942 427.381ZM103.36 435.205C102.414 435.205 101.598 434.996 100.912 434.578C100.23 434.156 99.7042 433.568 99.3335 432.814C98.967 432.055 98.7837 431.173 98.7837 430.168C98.7837 429.162 98.967 428.276 99.3335 427.509C99.7042 426.737 100.22 426.136 100.88 425.706C101.545 425.271 102.321 425.054 103.207 425.054C103.718 425.054 104.223 425.139 104.722 425.31C105.221 425.48 105.674 425.757 106.083 426.141C106.493 426.52 106.819 427.023 107.061 427.649C107.304 428.276 107.426 429.047 107.426 429.963V430.602H99.8576V429.298H105.892C105.892 428.744 105.781 428.25 105.559 427.815C105.342 427.381 105.031 427.038 104.626 426.786C104.225 426.535 103.752 426.409 103.207 426.409C102.606 426.409 102.086 426.558 101.647 426.857C101.213 427.151 100.878 427.534 100.644 428.007C100.409 428.48 100.292 428.987 100.292 429.528V430.398C100.292 431.139 100.42 431.768 100.676 432.283C100.936 432.795 101.296 433.185 101.756 433.453C102.216 433.717 102.751 433.849 103.36 433.849C103.757 433.849 104.115 433.794 104.434 433.683C104.758 433.568 105.037 433.398 105.272 433.172C105.506 432.942 105.687 432.656 105.815 432.315L107.272 432.724C107.119 433.219 106.861 433.653 106.499 434.028C106.137 434.399 105.689 434.689 105.157 434.898C104.624 435.102 104.025 435.205 103.36 435.205ZM109.721 435V425.182H111.178V426.665H111.28C111.459 426.179 111.783 425.785 112.252 425.482C112.721 425.18 113.249 425.028 113.837 425.028C113.948 425.028 114.086 425.031 114.252 425.035C114.419 425.039 114.544 425.045 114.63 425.054V426.588C114.578 426.575 114.461 426.556 114.278 426.531C114.099 426.501 113.909 426.486 113.709 426.486C113.232 426.486 112.806 426.586 112.431 426.786C112.06 426.982 111.766 427.255 111.549 427.604C111.336 427.95 111.229 428.344 111.229 428.787V435H109.721ZM117.926 429.094V435H116.418V425.182H117.875V426.716H118.003C118.233 426.217 118.583 425.817 119.051 425.514C119.52 425.207 120.125 425.054 120.867 425.054C121.531 425.054 122.113 425.19 122.612 425.463C123.11 425.732 123.498 426.141 123.775 426.69C124.052 427.236 124.191 427.926 124.191 428.761V435H122.682V428.864C122.682 428.092 122.482 427.491 122.081 427.061C121.681 426.626 121.131 426.409 120.432 426.409C119.95 426.409 119.52 426.513 119.141 426.722C118.766 426.931 118.47 427.236 118.252 427.636C118.035 428.037 117.926 428.523 117.926 429.094ZM129.836 435.23C129.214 435.23 128.65 435.113 128.142 434.879C127.635 434.64 127.233 434.297 126.934 433.849C126.636 433.398 126.487 432.852 126.487 432.213C126.487 431.651 126.598 431.195 126.819 430.845C127.041 430.491 127.337 430.214 127.708 430.014C128.078 429.814 128.488 429.665 128.935 429.567C129.387 429.464 129.841 429.384 130.297 429.324C130.893 429.247 131.377 429.19 131.748 429.151C132.123 429.109 132.395 429.038 132.566 428.94C132.74 428.842 132.828 428.672 132.828 428.429V428.378C132.828 427.747 132.655 427.257 132.31 426.908C131.969 426.558 131.451 426.384 130.757 426.384C130.037 426.384 129.472 426.541 129.063 426.857C128.654 427.172 128.366 427.509 128.2 427.866L126.768 427.355C127.024 426.759 127.365 426.294 127.791 425.962C128.221 425.625 128.69 425.391 129.197 425.259C129.708 425.122 130.211 425.054 130.706 425.054C131.021 425.054 131.383 425.092 131.792 425.169C132.206 425.241 132.604 425.393 132.988 425.623C133.375 425.853 133.697 426.2 133.953 426.665C134.208 427.129 134.336 427.751 134.336 428.531V435H132.828V433.67H132.751C132.649 433.884 132.478 434.112 132.24 434.354C132.001 434.597 131.684 434.804 131.287 434.974C130.891 435.145 130.407 435.23 129.836 435.23ZM130.066 433.875C130.663 433.875 131.166 433.758 131.575 433.523C131.988 433.289 132.299 432.987 132.508 432.616C132.721 432.245 132.828 431.855 132.828 431.446V430.065C132.764 430.142 132.623 430.212 132.406 430.276C132.193 430.336 131.946 430.389 131.664 430.436C131.387 430.479 131.117 430.517 130.853 430.551C130.593 430.581 130.382 430.607 130.22 430.628C129.828 430.679 129.461 430.762 129.12 430.877C128.784 430.988 128.511 431.156 128.302 431.382C128.098 431.604 127.995 431.906 127.995 432.29C127.995 432.814 128.189 433.21 128.577 433.479C128.969 433.743 129.466 433.875 130.066 433.875ZM137.09 435V425.182H138.547V426.716H138.675C138.879 426.192 139.21 425.785 139.666 425.495C140.122 425.201 140.669 425.054 141.308 425.054C141.956 425.054 142.495 425.201 142.926 425.495C143.36 425.785 143.699 426.192 143.942 426.716H144.044C144.296 426.209 144.673 425.806 145.176 425.508C145.678 425.205 146.281 425.054 146.985 425.054C147.862 425.054 148.58 425.329 149.139 425.879C149.697 426.424 149.976 427.274 149.976 428.429V435H148.468V428.429C148.468 427.705 148.269 427.187 147.873 426.876C147.477 426.565 147.01 426.409 146.473 426.409C145.783 426.409 145.248 426.618 144.869 427.036C144.49 427.449 144.3 427.973 144.3 428.608V435H142.766V428.276C142.766 427.717 142.585 427.268 142.222 426.927C141.86 426.582 141.394 426.409 140.823 426.409C140.431 426.409 140.064 426.513 139.723 426.722C139.387 426.931 139.114 427.221 138.905 427.592C138.7 427.958 138.598 428.382 138.598 428.864V435H137.09ZM156.851 435.205C155.905 435.205 155.089 434.996 154.403 434.578C153.721 434.156 153.194 433.568 152.824 432.814C152.457 432.055 152.274 431.173 152.274 430.168C152.274 429.162 152.457 428.276 152.824 427.509C153.194 426.737 153.71 426.136 154.371 425.706C155.035 425.271 155.811 425.054 156.697 425.054C157.209 425.054 157.714 425.139 158.212 425.31C158.711 425.48 159.165 425.757 159.574 426.141C159.983 426.52 160.309 427.023 160.552 427.649C160.795 428.276 160.916 429.047 160.916 429.963V430.602H153.348V429.298H159.382C159.382 428.744 159.271 428.25 159.05 427.815C158.832 427.381 158.521 427.038 158.116 426.786C157.716 426.535 157.243 426.409 156.697 426.409C156.096 426.409 155.577 426.558 155.138 426.857C154.703 427.151 154.368 427.534 154.134 428.007C153.9 428.48 153.782 428.987 153.782 429.528V430.398C153.782 431.139 153.91 431.768 154.166 432.283C154.426 432.795 154.786 433.185 155.246 433.453C155.706 433.717 156.241 433.849 156.851 433.849C157.247 433.849 157.605 433.794 157.925 433.683C158.248 433.568 158.528 433.398 158.762 433.172C158.996 432.942 159.177 432.656 159.305 432.315L160.763 432.724C160.609 433.219 160.351 433.653 159.989 434.028C159.627 434.399 159.18 434.689 158.647 434.898C158.114 435.102 157.515 435.205 156.851 435.205Z" fill="#D9D9D9"/>
<rect x="29.5" y="410.5" width="299" height="49" rx="9.5" stroke="black"/>
<path d="M46.8717 434.617C48.4081 433.992 49.8795 433.68 51.2857 433.68C52.692 433.68 54.1503 433.992 55.6607 434.617C57.1972 435.216 57.9654 436.01 57.9654 437V438.68H44.606V437C44.606 436.01 45.3612 435.216 46.8717 434.617ZM53.6295 431.023C52.9784 431.674 52.1972 432 51.2857 432C50.3743 432 49.593 431.674 48.942 431.023C48.2909 430.372 47.9654 429.591 47.9654 428.68C47.9654 427.768 48.2909 426.987 48.942 426.336C49.593 425.659 50.3743 425.32 51.2857 425.32C52.1972 425.32 52.9784 425.659 53.6295 426.336C54.2805 426.987 54.606 427.768 54.606 428.68C54.606 429.591 54.2805 430.372 53.6295 431.023Z" fill="black"/>
<line x1="72.9979" y1="385.526" x2="312.998" y2="384.5" stroke="black"/>
<path d="M83.4972 374.205C82.5511 374.205 81.7351 373.996 81.049 373.578C80.3672 373.156 79.8409 372.568 79.4702 371.814C79.1037 371.055 78.9205 370.173 78.9205 369.168C78.9205 368.162 79.1037 367.276 79.4702 366.509C79.8409 365.737 80.3565 365.136 81.017 364.706C81.6818 364.271 82.4574 364.054 83.3438 364.054C83.8551 364.054 84.3601 364.139 84.8587 364.31C85.3572 364.48 85.8111 364.757 86.2202 365.141C86.6293 365.52 86.9553 366.023 87.1982 366.649C87.4411 367.276 87.5625 368.047 87.5625 368.963V369.602H79.9943V368.298H86.0284C86.0284 367.744 85.9176 367.25 85.696 366.815C85.4787 366.381 85.1676 366.038 84.7628 365.786C84.3622 365.535 83.8892 365.409 83.3438 365.409C82.7429 365.409 82.223 365.558 81.7841 365.857C81.3494 366.151 81.0149 366.534 80.7805 367.007C80.5462 367.48 80.429 367.987 80.429 368.528V369.398C80.429 370.139 80.5568 370.768 80.8125 371.283C81.0724 371.795 81.4325 372.185 81.8928 372.453C82.353 372.717 82.8878 372.849 83.4972 372.849C83.8935 372.849 84.2514 372.794 84.571 372.683C84.8949 372.568 85.174 372.398 85.4084 372.172C85.6428 371.942 85.8239 371.656 85.9517 371.315L87.4091 371.724C87.2557 372.219 86.9979 372.653 86.6357 373.028C86.2734 373.399 85.826 373.689 85.2933 373.898C84.7607 374.102 84.1619 374.205 83.4972 374.205ZM89.8572 374V364.182H91.3146V365.716H91.4425C91.647 365.192 91.9773 364.785 92.4332 364.495C92.8892 364.201 93.4368 364.054 94.076 364.054C94.7237 364.054 95.2628 364.201 95.6932 364.495C96.1278 364.785 96.4666 365.192 96.7095 365.716H96.8118C97.0632 365.209 97.4403 364.806 97.9432 364.508C98.446 364.205 99.049 364.054 99.7521 364.054C100.63 364.054 101.348 364.329 101.906 364.879C102.464 365.424 102.744 366.274 102.744 367.429V374H101.235V367.429C101.235 366.705 101.037 366.187 100.641 365.876C100.244 365.565 99.7777 365.409 99.2408 365.409C98.5504 365.409 98.0156 365.618 97.6364 366.036C97.2571 366.449 97.0675 366.973 97.0675 367.608V374H95.5334V367.276C95.5334 366.717 95.3523 366.268 94.9901 365.927C94.6278 365.582 94.1612 365.409 93.5902 365.409C93.1982 365.409 92.8317 365.513 92.4908 365.722C92.1541 365.931 91.8814 366.221 91.6726 366.592C91.468 366.958 91.3658 367.382 91.3658 367.864V374H89.8572ZM108.391 374.23C107.769 374.23 107.204 374.113 106.697 373.879C106.19 373.64 105.787 373.297 105.489 372.849C105.191 372.398 105.042 371.852 105.042 371.213C105.042 370.651 105.152 370.195 105.374 369.845C105.596 369.491 105.892 369.214 106.262 369.014C106.633 368.814 107.042 368.665 107.49 368.567C107.941 368.464 108.395 368.384 108.851 368.324C109.448 368.247 109.931 368.19 110.302 368.151C110.677 368.109 110.95 368.038 111.12 367.94C111.295 367.842 111.382 367.672 111.382 367.429V367.378C111.382 366.747 111.21 366.257 110.865 365.908C110.524 365.558 110.006 365.384 109.311 365.384C108.591 365.384 108.027 365.541 107.618 365.857C107.208 366.172 106.921 366.509 106.755 366.866L105.323 366.355C105.578 365.759 105.919 365.294 106.346 364.962C106.776 364.625 107.245 364.391 107.752 364.259C108.263 364.122 108.766 364.054 109.26 364.054C109.576 364.054 109.938 364.092 110.347 364.169C110.76 364.241 111.159 364.393 111.542 364.623C111.93 364.853 112.252 365.2 112.507 365.665C112.763 366.129 112.891 366.751 112.891 367.531V374H111.382V372.67H111.306C111.203 372.884 111.033 373.112 110.794 373.354C110.556 373.597 110.238 373.804 109.842 373.974C109.446 374.145 108.962 374.23 108.391 374.23ZM108.621 372.875C109.218 372.875 109.721 372.758 110.13 372.523C110.543 372.289 110.854 371.987 111.063 371.616C111.276 371.245 111.382 370.855 111.382 370.446V369.065C111.319 369.142 111.178 369.212 110.961 369.276C110.748 369.336 110.5 369.389 110.219 369.436C109.942 369.479 109.672 369.517 109.407 369.551C109.147 369.581 108.936 369.607 108.775 369.628C108.382 369.679 108.016 369.762 107.675 369.877C107.338 369.988 107.066 370.156 106.857 370.382C106.652 370.604 106.55 370.906 106.55 371.29C106.55 371.814 106.744 372.21 107.132 372.479C107.524 372.743 108.02 372.875 108.621 372.875ZM115.644 374V364.182H117.153V374H115.644ZM116.411 362.545C116.117 362.545 115.864 362.445 115.651 362.245C115.442 362.045 115.338 361.804 115.338 361.523C115.338 361.241 115.442 361.001 115.651 360.8C115.864 360.6 116.117 360.5 116.411 360.5C116.705 360.5 116.957 360.6 117.166 360.8C117.379 361.001 117.485 361.241 117.485 361.523C117.485 361.804 117.379 362.045 117.166 362.245C116.957 362.445 116.705 362.545 116.411 362.545ZM121.424 360.909V374H119.916V360.909H121.424Z" fill="#D9D9D9"/>
<rect x="29.5" y="349.5" width="299" height="49" rx="9.5" stroke="black"/>
<path d="M57.6797 367.68V366L51 370.18L44.3203 366V367.68L51 371.82L57.6797 367.68ZM57.6797 364.32C58.1224 364.32 58.5 364.49 58.8125 364.828C59.151 365.167 59.3203 365.557 59.3203 366V376C59.3203 376.443 59.151 376.833 58.8125 377.172C58.5 377.51 58.1224 377.68 57.6797 377.68H44.3203C43.8776 377.68 43.487 377.51 43.1484 377.172C42.8359 376.833 42.6797 376.443 42.6797 376V366C42.6797 365.557 42.8359 365.167 43.1484 364.828C43.487 364.49 43.8776 364.32 44.3203 364.32H57.6797Z" fill="black"/>
<path d="M52.1946 51V27.7273H61.3764C63.134 27.7273 64.634 28.0417 65.8764 28.6705C67.1264 29.2917 68.0772 30.1742 68.7287 31.3182C69.3878 32.4545 69.7173 33.7917 69.7173 35.3295C69.7173 36.875 69.384 38.2045 68.7173 39.3182C68.0507 40.4242 67.0848 41.2727 65.8196 41.8636C64.562 42.4545 63.0393 42.75 61.2514 42.75H55.1037V38.7955H60.456C61.3954 38.7955 62.1757 38.6667 62.7969 38.4091C63.4181 38.1515 63.8802 37.7652 64.1832 37.25C64.4938 36.7348 64.6491 36.0947 64.6491 35.3295C64.6491 34.5568 64.4938 33.9053 64.1832 33.375C63.8802 32.8447 63.4143 32.4432 62.7855 32.1705C62.1643 31.8902 61.3802 31.75 60.4332 31.75H57.1151V51H52.1946ZM64.7628 40.4091L70.5469 51H65.1151L59.456 40.4091H64.7628ZM73.1946 51V27.7273H88.8764V31.7841H78.1151V37.3295H88.0696V41.3864H78.1151V46.9432H88.9219V51H73.1946ZM108.22 35.25C108.061 34.697 107.838 34.2083 107.55 33.7841C107.262 33.3523 106.91 32.9886 106.493 32.6932C106.084 32.3902 105.614 32.1591 105.084 32C104.561 31.8409 103.982 31.7614 103.345 31.7614C102.156 31.7614 101.11 32.0568 100.209 32.6477C99.3149 33.2386 98.6179 34.0985 98.1179 35.2273C97.6179 36.3485 97.3679 37.7197 97.3679 39.3409C97.3679 40.9621 97.6141 42.3409 98.1065 43.4773C98.599 44.6136 99.2959 45.4811 100.197 46.0795C101.099 46.6705 102.163 46.9659 103.391 46.9659C104.504 46.9659 105.455 46.7689 106.243 46.375C107.038 45.9735 107.644 45.4091 108.061 44.6818C108.485 43.9545 108.697 43.0947 108.697 42.1023L109.697 42.25H103.697V38.5455H113.436V41.4773C113.436 43.5227 113.004 45.2803 112.141 46.75C111.277 48.2121 110.088 49.3409 108.572 50.1364C107.057 50.9242 105.322 51.3182 103.368 51.3182C101.186 51.3182 99.2694 50.8371 97.6179 49.875C95.9664 48.9053 94.6785 47.5303 93.7543 45.75C92.8376 43.9621 92.3793 41.8409 92.3793 39.3864C92.3793 37.5 92.652 35.8182 93.1974 34.3409C93.7505 32.8561 94.5232 31.5985 95.5156 30.5682C96.508 29.5379 97.6634 28.7538 98.9815 28.2159C100.3 27.678 101.728 27.4091 103.266 27.4091C104.584 27.4091 105.811 27.6023 106.947 27.9886C108.084 28.3674 109.091 28.9053 109.97 29.6023C110.857 30.2992 111.58 31.1288 112.141 32.0909C112.701 33.0455 113.061 34.0985 113.22 35.25H108.22ZM122.053 27.7273V51H117.132V27.7273H122.053ZM138.726 34.4205C138.635 33.5038 138.245 32.7917 137.555 32.2841C136.866 31.7765 135.93 31.5227 134.749 31.5227C133.946 31.5227 133.268 31.6364 132.714 31.8636C132.161 32.0833 131.737 32.3902 131.442 32.7841C131.154 33.178 131.01 33.625 131.01 34.125C130.995 34.5417 131.082 34.9053 131.271 35.2159C131.468 35.5265 131.737 35.7955 132.078 36.0227C132.419 36.2424 132.813 36.4356 133.26 36.6023C133.707 36.7614 134.184 36.8977 134.692 37.0114L136.783 37.5114C137.798 37.7386 138.73 38.0417 139.578 38.4205C140.427 38.7992 141.161 39.2652 141.783 39.8182C142.404 40.3712 142.885 41.0227 143.226 41.7727C143.574 42.5227 143.752 43.3826 143.76 44.3523C143.752 45.7765 143.389 47.0114 142.669 48.0568C141.957 49.0947 140.927 49.9015 139.578 50.4773C138.237 51.0455 136.62 51.3295 134.726 51.3295C132.847 51.3295 131.211 51.0417 129.817 50.4659C128.43 49.8902 127.347 49.0379 126.567 47.9091C125.794 46.7727 125.389 45.3674 125.351 43.6932H130.112C130.165 44.4735 130.389 45.125 130.783 45.6477C131.184 46.1629 131.718 46.553 132.385 46.8182C133.059 47.0758 133.821 47.2045 134.669 47.2045C135.502 47.2045 136.226 47.0833 136.839 46.8409C137.461 46.5985 137.942 46.2614 138.283 45.8295C138.624 45.3977 138.794 44.9015 138.794 44.3409C138.794 43.8182 138.639 43.3788 138.328 43.0227C138.025 42.6667 137.578 42.3636 136.987 42.1136C136.404 41.8636 135.688 41.6364 134.839 41.4318L132.305 40.7955C130.343 40.3182 128.794 39.572 127.658 38.5568C126.521 37.5417 125.957 36.1742 125.964 34.4545C125.957 33.0455 126.332 31.8144 127.089 30.7614C127.855 29.7083 128.904 28.8864 130.237 28.2955C131.571 27.7045 133.086 27.4091 134.783 27.4091C136.51 27.4091 138.018 27.7045 139.305 28.2955C140.601 28.8864 141.608 29.7083 142.328 30.7614C143.048 31.8144 143.419 33.0341 143.442 34.4205H138.726ZM146.183 31.7841V27.7273H165.297V31.7841H158.172V51H153.308V31.7841H146.183ZM168.445 51V27.7273H177.626C179.384 27.7273 180.884 28.0417 182.126 28.6705C183.376 29.2917 184.327 30.1742 184.979 31.3182C185.638 32.4545 185.967 33.7917 185.967 35.3295C185.967 36.875 185.634 38.2045 184.967 39.3182C184.301 40.4242 183.335 41.2727 182.07 41.8636C180.812 42.4545 179.289 42.75 177.501 42.75H171.354V38.7955H176.706C177.645 38.7955 178.426 38.6667 179.047 38.4091C179.668 38.1515 180.13 37.7652 180.433 37.25C180.744 36.7348 180.899 36.0947 180.899 35.3295C180.899 34.5568 180.744 33.9053 180.433 33.375C180.13 32.8447 179.664 32.4432 179.036 32.1705C178.414 31.8902 177.63 31.75 176.683 31.75H173.365V51H168.445ZM181.013 40.4091L186.797 51H181.365L175.706 40.4091H181.013ZM193.456 51H188.183L196.217 27.7273H202.558L210.581 51H205.308L199.479 33.0455H199.297L193.456 51ZM193.126 41.8523H205.581V45.6932H193.126V41.8523ZM213.132 51V48.0795L224.746 31.7841H213.109V27.7273H230.928V30.6477L219.303 46.9432H230.95V51H213.132ZM239.646 27.7273V51H234.726V27.7273H239.646ZM265.081 39.3636C265.081 41.9015 264.6 44.0606 263.638 45.8409C262.683 47.6212 261.38 48.9811 259.729 49.9205C258.085 50.8523 256.236 51.3182 254.183 51.3182C252.115 51.3182 250.259 50.8485 248.615 49.9091C246.971 48.9697 245.672 47.6098 244.717 45.8295C243.763 44.0492 243.286 41.8939 243.286 39.3636C243.286 36.8258 243.763 34.6667 244.717 32.8864C245.672 31.1061 246.971 29.75 248.615 28.8182C250.259 27.8788 252.115 27.4091 254.183 27.4091C256.236 27.4091 258.085 27.8788 259.729 28.8182C261.38 29.75 262.683 31.1061 263.638 32.8864C264.6 34.6667 265.081 36.8258 265.081 39.3636ZM260.092 39.3636C260.092 37.7197 259.846 36.3333 259.354 35.2045C258.869 34.0758 258.183 33.2197 257.297 32.6364C256.411 32.053 255.373 31.7614 254.183 31.7614C252.994 31.7614 251.956 32.053 251.07 32.6364C250.183 33.2197 249.494 34.0758 249.001 35.2045C248.517 36.3333 248.274 37.7197 248.274 39.3636C248.274 41.0076 248.517 42.3939 249.001 43.5227C249.494 44.6515 250.183 45.5076 251.07 46.0909C251.956 46.6742 252.994 46.9659 254.183 46.9659C255.373 46.9659 256.411 46.6742 257.297 46.0909C258.183 45.5076 258.869 44.6515 259.354 43.5227C259.846 42.3939 260.092 41.0076 260.092 39.3636ZM288.192 27.7273V51H283.942L273.817 36.3523H273.646V51H268.726V27.7273H273.044L283.089 42.3636H283.294V27.7273H288.192ZM292.257 51V27.7273H307.939V31.7841H297.178V37.3295H307.132V41.3864H297.178V46.9432H307.984V51H292.257Z" fill="black"/>
<rect x="104" y="77" width="150" height="150" rx="5" fill="#D9D9D9"/>
</svg>
