<svg width="360" height="696" viewBox="0 0 360 696" fill="none" xmlns="http://www.w3.org/2000/svg">
<rect width="360" height="696" fill="white"/>
<rect x="80" y="200" width="200" height="200" rx="15" fill="#D9D9D9"/>
<path d="M64.6321 450.312H57.1662C57.0298 449.347 56.7514 448.489 56.331 447.739C55.9105 446.977 55.3707 446.33 54.7116 445.795C54.0526 445.261 53.2912 444.852 52.4276 444.568C51.5753 444.284 50.6491 444.142 49.6491 444.142C47.8423 444.142 46.2685 444.591 44.9276 445.489C43.5866 446.375 42.5469 447.67 41.8082 449.375C41.0696 451.068 40.7003 453.125 40.7003 455.545C40.7003 458.034 41.0696 460.125 41.8082 461.818C42.5582 463.511 43.6037 464.79 44.9446 465.653C46.2855 466.517 47.8366 466.949 49.598 466.949C50.5866 466.949 51.5014 466.818 52.3423 466.557C53.1946 466.295 53.9503 465.915 54.6094 465.415C55.2685 464.903 55.8139 464.284 56.2457 463.557C56.6889 462.83 56.9957 462 57.1662 461.068L64.6321 461.102C64.4389 462.705 63.956 464.25 63.1832 465.739C62.4219 467.216 61.3935 468.54 60.098 469.71C58.8139 470.869 57.2798 471.79 55.4957 472.472C53.723 473.142 51.7173 473.477 49.4787 473.477C46.3651 473.477 43.581 472.773 41.1264 471.364C38.6832 469.955 36.7514 467.915 35.331 465.244C33.9219 462.574 33.2173 459.341 33.2173 455.545C33.2173 451.739 33.9332 448.5 35.3651 445.83C36.7969 443.159 38.7401 441.125 41.1946 439.727C43.6491 438.318 46.4105 437.614 49.4787 437.614C51.5014 437.614 53.3764 437.898 55.1037 438.466C56.8423 439.034 58.3821 439.864 59.723 440.955C61.0639 442.034 62.1548 443.358 62.9957 444.926C63.848 446.494 64.3935 448.29 64.6321 450.312ZM75.2855 473H67.3764L79.4276 438.091H88.9389L100.973 473H93.0639L84.3196 446.068H84.0469L75.2855 473ZM74.7912 459.278H93.473V465.04H74.7912V459.278ZM134.335 450.312H126.869C126.733 449.347 126.455 448.489 126.034 447.739C125.614 446.977 125.074 446.33 124.415 445.795C123.756 445.261 122.994 444.852 122.131 444.568C121.278 444.284 120.352 444.142 119.352 444.142C117.545 444.142 115.972 444.591 114.631 445.489C113.29 446.375 112.25 447.67 111.511 449.375C110.773 451.068 110.403 453.125 110.403 455.545C110.403 458.034 110.773 460.125 111.511 461.818C112.261 463.511 113.307 464.79 114.648 465.653C115.989 466.517 117.54 466.949 119.301 466.949C120.29 466.949 121.205 466.818 122.045 466.557C122.898 466.295 123.653 465.915 124.312 465.415C124.972 464.903 125.517 464.284 125.949 463.557C126.392 462.83 126.699 462 126.869 461.068L134.335 461.102C134.142 462.705 133.659 464.25 132.886 465.739C132.125 467.216 131.097 468.54 129.801 469.71C128.517 470.869 126.983 471.79 125.199 472.472C123.426 473.142 121.42 473.477 119.182 473.477C116.068 473.477 113.284 472.773 110.83 471.364C108.386 469.955 106.455 467.915 105.034 465.244C103.625 462.574 102.92 459.341 102.92 455.545C102.92 451.739 103.636 448.5 105.068 445.83C106.5 443.159 108.443 441.125 110.898 439.727C113.352 438.318 116.114 437.614 119.182 437.614C121.205 437.614 123.08 437.898 124.807 438.466C126.545 439.034 128.085 439.864 129.426 440.955C130.767 442.034 131.858 443.358 132.699 444.926C133.551 446.494 134.097 448.29 134.335 450.312ZM139.628 473V438.091H147.009V452.494H161.991V438.091H169.355V473H161.991V458.58H147.009V473H139.628ZM175.44 473V438.091H198.963V444.176H182.821V452.494H197.753V458.58H182.821V466.915H199.031V473H175.44ZM210.848 473H202.939L214.99 438.091H224.501L236.536 473H228.626L219.882 446.068H219.609L210.848 473ZM210.354 459.278H229.036V465.04H210.354V459.278ZM262.244 449.375C262.006 448.545 261.67 447.812 261.239 447.176C260.807 446.528 260.278 445.983 259.653 445.54C259.04 445.085 258.335 444.739 257.54 444.5C256.756 444.261 255.886 444.142 254.932 444.142C253.148 444.142 251.58 444.585 250.227 445.472C248.886 446.358 247.841 447.648 247.091 449.341C246.341 451.023 245.966 453.08 245.966 455.511C245.966 457.943 246.335 460.011 247.074 461.716C247.813 463.42 248.858 464.722 250.21 465.619C251.562 466.506 253.159 466.949 255 466.949C256.67 466.949 258.097 466.653 259.278 466.062C260.472 465.46 261.381 464.614 262.006 463.523C262.642 462.432 262.96 461.142 262.96 459.653L264.46 459.875H255.46V454.318H270.068V458.716C270.068 461.784 269.42 464.42 268.125 466.625C266.83 468.818 265.045 470.511 262.773 471.705C260.5 472.886 257.898 473.477 254.966 473.477C251.693 473.477 248.818 472.756 246.341 471.312C243.864 469.858 241.932 467.795 240.545 465.125C239.17 462.443 238.483 459.261 238.483 455.58C238.483 452.75 238.892 450.227 239.71 448.011C240.54 445.784 241.699 443.898 243.188 442.352C244.676 440.807 246.409 439.631 248.386 438.824C250.364 438.017 252.506 437.614 254.812 437.614C256.79 437.614 258.631 437.903 260.335 438.483C262.04 439.051 263.551 439.858 264.869 440.903C266.199 441.949 267.284 443.193 268.125 444.636C268.966 446.068 269.506 447.648 269.744 449.375H262.244ZM275.612 473V438.091H282.993V466.915H297.959V473H275.612ZM302.847 473V438.091H326.369V444.176H310.227V452.494H325.159V458.58H310.227V466.915H326.438V473H302.847Z" fill="black"/>
</svg>
