<?xml version="1.0" encoding="UTF-8"?>
<svg id="Livello_2" data-name="Livello 2" xmlns="http://www.w3.org/2000/svg" viewBox="0 0 377.59 427.78">
  <defs>
    <style>
      .cls-1 {
        fill: #00bf63;
      }
    </style>
  </defs>
  <g id="Livello_1-2" data-name="Livello 1">
    <path class="cls-1" d="m0,120.23v187.31c0,9.49,5.07,18.27,13.29,23.02l162.22,93.66c8.22,4.75,18.35,4.75,26.58,0l162.22-93.66c8.22-4.75,13.29-13.52,13.29-23.02V120.23c0-9.49-5.07-18.27-13.29-23.02L202.08,3.56c-8.22-4.75-18.35-4.75-26.58,0L13.29,97.22C5.07,101.96,0,110.74,0,120.23Z"/>
    <path d="m9.57,119.04c3.62,18.21,16.11,39.37,30.69,51.95,12.11,10.58,27.17,19.35,44.42,26.12,4.67,1.81,8.1,3.43,7.63,3.53-.38.19-13.63-2.48-29.36-5.81-15.73-3.34-28.79-5.91-29.07-5.62-.95.95,13.92,13.82,22.88,19.83,15.16,10.2,30.69,16.3,49.47,19.45l9.82,1.62-11.63,3.24c-10.87,2.95-11.53,3.24-9.34,4.38,4.77,2.48,18.49,5.24,31.93,6.39l13.92,1.14-6.77,2.86c-3.81,1.53-6.86,3.15-6.86,3.43,0,.86,8.86,1.81,17.63,1.81,4.19.1,9.34.38,11.34.76l3.72.67-3.43,2.38c-1.91,1.33-3.53,2.67-3.53,3.05,0,.48,3.43.76,7.63.76,7.91,0,8.48.38,6.58,4-1.33,2.57-.48,3.24,2.57,1.81l2.57-1.14-.48,6.29c-.67,8.01-4.48,16.01-11.63,24.21-5.05,5.91-6.2,7.72-4.58,7.72.38,0,3.81-.57,7.63-1.33l6.86-1.33v8.96c0,4.96.29,8.96.57,8.96,2.38,0,7.43-3.81,9.72-7.24l2.76-4.1.57,4.77c.67,5.24,4.1,12.3,6.1,12.3,1.43,0,1.33.29,4.1-9.34l2.1-6.86,2.1,3.05c2,2.95,7.53,7.43,9.25,7.43.48,0,.86-4,.86-8.96v-8.86l7.34,1.24c4,.76,7.43,1.14,7.72.95.19-.19-2.48-4.1-5.81-8.67-8.2-11.06-10.29-15.63-10.96-22.97l-.48-6.2,2.67,1.05c3.34,1.24,3.91.67,2.57-2.38-.67-1.33-1.14-2.67-1.14-2.86,0-.29,3.24-.48,7.15-.48,8.01,0,9.06-1.05,4.29-4.29l-2.86-1.91,4-.67c2.29-.29,7.15-.67,10.77-.67,9.53-.19,16.78-1.14,16.4-2.29-.19-.57-2.95-2.19-6.2-3.53l-5.91-2.48,14.01-1.14c12.87-.95,24.02-3.15,31.17-5.81,1.53-.67,2.57-1.33,2.29-1.53-.29-.29-5.62-1.91-11.82-3.62l-11.34-3.24,6.39-.67c19.45-2,42.13-11.25,59.38-24.31,6.39-4.86,17.63-15.25,17.63-16.4,0-.38-4,.38-8.77,1.62-13.25,3.53-32.89,7.82-39.37,8.48l-5.72.57,9.06-4.1c35.27-16.2,56.05-37.65,66.25-67.87,1.33-4.1,2.38-8.01,2.19-8.77-.19-.86-4.38,2.29-11.25,8.29-35.17,30.79-71.11,47.85-126.97,60.05-9.44,2.1-18.02,4.19-18.97,4.77-1.05.48-2.1,2.19-2.38,3.62l-.57,2.76-8.29-5.53c-9.34-6.29-15.82-8.58-24.59-8.58-7.43,0-11.72,2-17.25,8.01-3.81,4.1-5.05,7.43-3.24,8.58,1.62.95,7.91-1.53,9.34-3.72,2.1-3.15,8.96-6.1,15.92-6.77,4.29-.38,5.53-.29,4.48.48-.76.57-2.67,1.05-4.29,1.05-5.43,0-10.01,1.91-10.96,4.38s-3.15,3.53-10.77,5.53c-6.86,1.72-8.48,5.91-4,10.1q2.38,2.19,2.38.19c0-3.81,3.91-7.05,9.25-7.53,4.29-.48,5.15-.19,7.82,2.19,2.1,1.91,3.15,3.91,3.53,6.58l.48,3.81-1.81-3.91c-2.38-4.86-5.34-7.05-9.72-7.05s-7.43,2.19-7.82,5.53c-.67,6.29-9.72,1.81-9.63-4.86.1-3.81,1.53-9.82,3.15-13.34,1.91-4,.29-4.96-14.77-8.77-36.51-9.25-66.91-21.73-90.94-37.37-10.87-7.05-17.06-11.91-28.79-22.4-9.34-8.39-9.63-8.58-8.96-5.43Zm137.74,100.37c6.77,4,15.82,7.63,24.12,9.72,3.53.86,6.39,1.81,6.29,2.19,0,.29-.38,1.43-.76,2.48-.86,2.1.29,5.24,2,5.24.57,0,1.53-.67,2.19-1.62,1.33-1.81,3.05-1.05,4.38,2,.76,1.72.76,1.62.57-.86-.19-2.29-.76-2.95-3.05-3.43-1.53-.38-2.1-.67-1.14-.76.86,0,1.62-.48,1.62-.95s1.62-1.24,3.72-1.72c2.95-.76,4-.67,5.91.76,1.72,1.24,2.38,1.43,3.24.48.48-.67,5.43-2.38,10.96-3.81,12.2-3.05,23.16-8.2,31.65-14.77,5.62-4.19,6.29-4.58,5.53-2.48-3.15,8.29-8.96,14.39-18.3,19.06-5.34,2.67-6.2,3.34-4.1,3.34,1.43,0,5.15-.67,8.29-1.53,3.15-.76,5.91-1.24,6.1-1.05.76.67-6.1,5.43-11.25,7.82-2.76,1.33-6.86,2.57-9.06,2.95-4,.57-4.86,2.29-1.14,2.29.95,0,1.81.38,1.81.86,0,1.05-4.67,2-9.91,2q-3.91.1-1.53,1.43t-2.1,1.43c-2.57,0-4.58.38-4.58.95,0,.48-.48.95-1.05.95s-1.62.67-2.48,1.43c-1.72,1.81-1.05,5.34,1.72,9.25l1.91,2.67h-1.91c-1.53,0-2,.57-2,2.38,0,2.76-1.43,3.15-2.76.76-.76-1.53-.95-1.33-1.53.95-.76,2.86-2.38,2.57-2.38-.38,0-2.38-.76-2.29-2.95.29l-1.72,2.19-.1-3.15c0-2.38-.38-3.05-1.91-3.05-1.72,0-1.72-.19.48-3.43,3.34-4.96,3.05-9.91-.67-9.91-.95,0-1.53-.48-1.24-.95.38-.57-1.14-.95-3.91-.95-4.19,0-4.38-.1-2.67-1.43,1.72-1.24,1.53-1.33-2.48-1.53-2.38-.1-5.53-.48-7.15-.86l-2.86-.67,2.86-1.14,2.86-1.24-6.2-1.62c-6.67-1.62-13.63-5.24-16.68-8.67l-1.81-2,2.29.48c10.77,2.48,14.77,3.34,15.06,2.95.19-.19-2.86-1.91-6.86-3.91-8.58-4.1-15.82-11.34-18.02-18.02l-1.53-4.38,4.48,4c2.48,2.1,6.86,5.34,9.72,6.96Zm38.99,11.06c-1.33.38-3.62,1.53-5.15,2.48q-2.67,1.72-1.62-.29c1.33-2.38,2.57-2.95,6.39-2.95q2.86,0,.38.76Z"/>
  </g>
</svg>