<?xml version="1.0" encoding="UTF-8"?>
<svg id="Livello_1" data-name="Livello 1" xmlns="http://www.w3.org/2000/svg" viewBox="0 0 417 345.87">
  <defs>
    <style>
      .cls-1 {
        font-family: BerlinSansFBDemi-Bold, 'Berlin Sans FB Demi';
        font-size: 67px;
        font-weight: 700;
      }

      .cls-2 {
        fill: #00bf63;
      }
    </style>
  </defs>
  <path d="m18.5,1.97c3.8,19.1,16.9,41.3,32.2,54.5,12.7,11.1,28.5,20.3,46.6,27.4,4.9,1.9,8.5,3.6,8,3.7-.4.2-14.3-2.6-30.8-6.1s-30.2-6.2-30.5-5.9c-1,1,14.6,14.5,24,20.8,15.9,10.7,32.2,17.1,51.9,20.4l10.3,1.7-12.2,3.4c-11.4,3.1-12.1,3.4-9.8,4.6,5,2.6,19.4,5.5,33.5,6.7l14.6,1.2-7.1,3c-4,1.6-7.2,3.3-7.2,3.6,0,.9,9.3,1.9,18.5,1.9,4.4.1,9.8.4,11.9.8l3.9.7-3.6,2.5c-2,1.4-3.7,2.8-3.7,3.2,0,.5,3.6.8,8,.8,8.3,0,8.9.4,6.9,4.2-1.4,2.7-.5,3.4,2.7,1.9l2.7-1.2-.5,6.6c-.7,8.4-4.7,16.8-12.2,25.4-5.3,6.2-6.5,8.1-4.8,8.1.4,0,4-.6,8-1.4l7.2-1.4v9.4c0,5.2.3,9.4.6,9.4,2.5,0,7.8-4,10.2-7.6l2.9-4.3.6,5c.7,5.5,4.3,12.9,6.4,12.9,1.5,0,1.4.3,4.3-9.8l2.2-7.2,2.2,3.2c2.1,3.1,7.9,7.8,9.7,7.8.5,0,.9-4.2.9-9.4v-9.3l7.7,1.3c4.2.8,7.8,1.2,8.1,1,.2-.2-2.6-4.3-6.1-9.1-8.6-11.6-10.8-16.4-11.5-24.1l-.5-6.5,2.8,1.1c3.5,1.3,4.1.7,2.7-2.5-.7-1.4-1.2-2.8-1.2-3,0-.3,3.4-.5,7.5-.5,8.4,0,9.5-1.1,4.5-4.5l-3-2,4.2-.7c2.4-.3,7.5-.7,11.3-.7,10-.2,17.6-1.2,17.2-2.4-.2-.6-3.1-2.3-6.5-3.7l-6.2-2.6,14.7-1.2c13.5-1,25.2-3.3,32.7-6.1,1.6-.7,2.7-1.4,2.4-1.6-.3-.3-5.9-2-12.4-3.8l-11.9-3.4,6.7-.7c20.4-2.1,44.2-11.8,62.3-25.5,6.7-5.1,18.5-16,18.5-17.2,0-.4-4.2.4-9.2,1.7-13.9,3.7-34.5,8.2-41.3,8.9l-6,.6,9.5-4.3c37-17,58.8-39.5,69.5-71.2,1.4-4.3,2.5-8.4,2.3-9.2-.2-.9-4.6,2.4-11.8,8.7-36.9,32.3-74.6,50.2-133.2,63-9.9,2.2-18.9,4.4-19.9,5-1.1.5-2.2,2.3-2.5,3.8l-.6,2.9-8.7-5.8c-9.8-6.6-16.6-9-25.8-9-7.8,0-12.3,2.1-18.1,8.4-4,4.3-5.3,7.8-3.4,9,1.7,1,8.3-1.6,9.8-3.9,2.2-3.3,9.4-6.4,16.7-7.1,4.5-.4,5.8-.3,4.7.5-.8.6-2.8,1.1-4.5,1.1-5.7,0-10.5,2-11.5,4.6s-3.3,3.7-11.3,5.8c-7.2,1.8-8.9,6.2-4.2,10.6q2.5,2.3,2.5.2c0-4,4.1-7.4,9.7-7.9,4.5-.5,5.4-.2,8.2,2.3,2.2,2,3.3,4.1,3.7,6.9l.5,4-1.9-4.1c-2.5-5.1-5.6-7.4-10.2-7.4s-7.8,2.3-8.2,5.8c-.7,6.6-10.2,1.9-10.1-5.1.1-4,1.6-10.3,3.3-14,2-4.2.3-5.2-15.5-9.2-38.3-9.7-70.2-22.8-95.4-39.2-11.4-7.4-17.9-12.5-30.2-23.5C18.1-1.13,17.8-1.33,18.5,1.97Zm144.5,105.3c7.1,4.2,16.6,8,25.3,10.2,3.7.9,6.7,1.9,6.6,2.3,0,.3-.4,1.5-.8,2.6-.9,2.2.3,5.5,2.1,5.5.6,0,1.6-.7,2.3-1.7,1.4-1.9,3.2-1.1,4.6,2.1.8,1.8.8,1.7.6-.9-.2-2.4-.8-3.1-3.2-3.6-1.6-.4-2.2-.7-1.2-.8.9,0,1.7-.5,1.7-1s1.7-1.3,3.9-1.8c3.1-.8,4.2-.7,6.2.8,1.8,1.3,2.5,1.5,3.4.5.5-.7,5.7-2.5,11.5-4,12.8-3.2,24.3-8.6,33.2-15.5,5.9-4.4,6.6-4.8,5.8-2.6-3.3,8.7-9.4,15.1-19.2,20-5.6,2.8-6.5,3.5-4.3,3.5,1.5,0,5.4-.7,8.7-1.6,3.3-.8,6.2-1.3,6.4-1.1.8.7-6.4,5.7-11.8,8.2-2.9,1.4-7.2,2.7-9.5,3.1-4.2.6-5.1,2.4-1.2,2.4,1,0,1.9.4,1.9.9,0,1.1-4.9,2.1-10.4,2.1q-4.1.1-1.6,1.5t-2.2,1.5c-2.7,0-4.8.4-4.8,1,0,.5-.5,1-1.1,1s-1.7.7-2.6,1.5c-1.8,1.9-1.1,5.6,1.8,9.7l2,2.8h-2c-1.6,0-2.1.6-2.1,2.5,0,2.9-1.5,3.3-2.9.8-.8-1.6-1-1.4-1.6,1-.8,3-2.5,2.7-2.5-.4,0-2.5-.8-2.4-3.1.3l-1.8,2.3-.1-3.3c0-2.5-.4-3.2-2-3.2-1.8,0-1.8-.2.5-3.6,3.5-5.2,3.2-10.4-.7-10.4-1,0-1.6-.5-1.3-1,.4-.6-1.2-1-4.1-1-4.4,0-4.6-.1-2.8-1.5,1.8-1.3,1.6-1.4-2.6-1.6-2.5-.1-5.8-.5-7.5-.9l-3-.7,3-1.2,3-1.3-6.5-1.7c-7-1.7-14.3-5.5-17.5-9.1l-1.9-2.1,2.4.5c11.3,2.6,15.5,3.5,15.8,3.1.2-.2-3-2-7.2-4.1-9-4.3-16.6-11.9-18.9-18.9l-1.6-4.6,4.7,4.2c2.6,2.2,7.2,5.6,10.2,7.3Zm40.9,11.6c-1.4.4-3.8,1.6-5.4,2.6q-2.8,1.8-1.7-.3c1.4-2.5,2.7-3.1,6.7-3.1q3,0,.4.8Z"/>
  <text class="cls-1" transform="translate(15.32 295.1)"><tspan x="0" y="0">CACH</tspan><tspan class="cls-2" x="179.9" y="0">EAGLE</tspan></text>
</svg>