<?xml version="1.0" standalone="no"?>
<!DOCTYPE svg PUBLIC "-//W3C//DTD SVG 20010904//EN"
 "http://www.w3.org/TR/2001/REC-SVG-20010904/DTD/svg10.dtd">
<svg version="1.0" xmlns="http://www.w3.org/2000/svg"
 width="437.000000pt" height="489.000000pt" viewBox="0 0 437.000000 489.000000"
 preserveAspectRatio="xMidYMid meet">

<g transform="translate(0.000000,489.000000) scale(0.100000,-0.100000)"
fill="#000000" stroke="none">
<path d="M305 3519 c38 -191 169 -413 322 -545 127 -111 285 -203 466 -274 49
-19 85 -36 80 -37 -4 -2 -143 26 -308 61 -165 35 -302 62 -305 59 -10 -10 146
-145 240 -208 159 -107 322 -171 519 -204 l103 -17 -122 -34 c-114 -31 -121
-34 -98 -46 50 -26 194 -55 335 -67 l146 -12 -71 -30 c-40 -16 -72 -33 -72
-36 0 -9 93 -19 185 -19 44 -1 98 -4 119 -8 l39 -7 -36 -25 c-20 -14 -37 -28
-37 -32 0 -5 36 -8 80 -8 83 0 89 -4 69 -42 -14 -27 -5 -34 27 -19 l27 12 -5
-66 c-7 -84 -47 -168 -122 -254 -53 -62 -65 -81 -48 -81 4 0 40 6 80 14 l72
14 0 -94 c0 -52 3 -94 6 -94 25 0 78 40 102 76 l29 43 6 -50 c7 -55 43 -129
64 -129 15 0 14 -3 43 98 l22 72 22 -32 c21 -31 79 -78 97 -78 5 0 9 42 9 94
l0 93 77 -13 c42 -8 78 -12 81 -10 2 2 -26 43 -61 91 -86 116 -108 164 -115
241 l-5 65 28 -11 c35 -13 41 -7 27 25 -7 14 -12 28 -12 30 0 3 34 5 75 5 84
0 95 11 45 45 l-30 20 42 7 c24 3 75 7 113 7 100 2 176 12 172 24 -2 6 -31 23
-65 37 l-62 26 147 12 c135 10 252 33 327 61 16 7 27 14 24 16 -3 3 -59 20
-124 38 l-119 34 67 7 c204 21 442 118 623 255 67 51 185 160 185 172 0 4 -42
-4 -92 -17 -139 -37 -345 -82 -413 -89 l-60 -6 95 43 c370 170 588 395 695
712 14 43 25 84 23 92 -2 9 -46 -24 -118 -87 -369 -323 -746 -502 -1332 -630
-99 -22 -189 -44 -199 -50 -11 -5 -22 -23 -25 -38 l-6 -29 -87 58 c-98 66
-166 90 -258 90 -78 0 -123 -21 -181 -84 -40 -43 -53 -78 -34 -90 17 -10 83
16 98 39 22 33 94 64 167 71 45 4 58 3 47 -5 -8 -6 -28 -11 -45 -11 -57 0
-105 -20 -115 -46 -10 -26 -33 -37 -113 -58 -72 -18 -89 -62 -42 -106 25 -23
25 -23 25 -2 0 40 41 74 97 79 45 5 54 2 82 -23 22 -20 33 -41 37 -69 l5 -40
-19 41 c-25 51 -56 74 -102 74 -45 0 -78 -23 -82 -58 -7 -66 -102 -19 -101 51
1 40 16 103 33 140 20 42 3 52 -155 92 -383 97 -702 228 -954 392 -114 74
-179 125 -302 235 -98 88 -101 90 -94 57z m1445 -1053 c71 -42 166 -80 253
-102 37 -9 67 -19 66 -23 0 -3 -4 -15 -8 -26 -9 -22 3 -55 21 -55 6 0 16 7 23
17 14 19 32 11 46 -21 8 -18 8 -17 6 9 -2 24 -8 31 -32 36 -16 4 -22 7 -12 8
9 0 17 5 17 10 0 5 17 13 39 18 31 8 42 7 62 -8 18 -13 25 -15 34 -5 5 7 57
25 115 40 128 32 243 86 332 155 59 44 66 48 58 26 -33 -87 -94 -151 -192
-200 -56 -28 -65 -35 -43 -35 15 0 54 7 87 16 33 8 62 13 64 11 8 -7 -64 -57
-118 -82 -29 -14 -72 -27 -95 -31 -42 -6 -51 -24 -12 -24 10 0 19 -4 19 -9 0
-11 -49 -21 -104 -21 -41 -1 -41 -1 -16 -15 24 -14 24 -14 -22 -15 -27 0 -48
-4 -48 -10 0 -5 -5 -10 -11 -10 -6 0 -17 -7 -26 -15 -18 -19 -11 -56 18 -97
l20 -28 -20 0 c-16 0 -21 -6 -21 -25 0 -29 -15 -33 -29 -8 -8 16 -10 14 -16
-10 -8 -30 -25 -27 -25 4 0 25 -8 24 -31 -3 l-18 -23 -1 33 c0 25 -4 32 -20
32 -18 0 -18 2 5 36 35 52 32 104 -7 104 -10 0 -16 5 -13 10 4 6 -12 10 -41
10 -44 0 -46 1 -28 15 18 13 16 14 -26 16 -25 1 -58 5 -75 9 l-30 7 30 12 30
13 -65 17 c-70 17 -143 55 -175 91 l-19 21 24 -5 c113 -26 155 -35 158 -31 2
2 -30 20 -72 41 -90 43 -166 119 -189 189 l-16 46 47 -42 c26 -22 72 -56 102
-73z m409 -116 c-14 -4 -38 -16 -54 -26 -28 -18 -28 -18 -17 3 14 25 27 31 67
31 30 0 30 0 4 -8z"/>
</g>
</svg>
